<?xml version="1.0" encoding="utf-8"?>
<!-- Generator: Adobe Illustrator 21.1.0, SVG Export Plug-In . SVG Version: 6.00 Build 0)  -->
<svg version="1.1" id="Layer_2" xmlns="http://www.w3.org/2000/svg" xmlns:xlink="http://www.w3.org/1999/xlink" x="0px" y="0px"
	 viewBox="0 0 772.7 132.3" style="enable-background:new 0 0 772.7 132.3;" xml:space="preserve">
<style type="text/css">
	.st0{fill:none;}
	.st1{fill:#55BB6C;}
	.st2{fill:#4D69B1;}
	.st3{fill:#C4C4C3;}
</style>
<g>
	<path class="st0" d="M394.4,47.4c-6,0-10.8,4.8-10.8,10.7s4.8,10.7,10.8,10.7c5.9,0,10.8-4.8,10.8-10.7S400.3,47.4,394.4,47.4z"/>
	<path class="st0" d="M559.7,46.1c-5.2,0-9.5,3.8-10.7,9V61c1.2,5.2,5.5,9,10.7,9c6.1,0,11.1-5.4,11.1-12
		C570.8,51.5,565.8,46.1,559.7,46.1z"/>
	<path class="st0" d="M105,54.7c-1.3-5-5.7-8.7-10.9-8.7c-6.2,0-11.3,5.4-11.3,12s5.1,12,11.3,12c5.2,0,9.5-3.7,10.9-8.7
		c0.3-1,0.4-2.1,0.4-3.3C105.4,56.9,105.3,55.8,105,54.7z"/>
	<path class="st0" d="M625.1,46c-6.2,0-11.3,5.4-11.3,12s5,12,11.3,12c5.2,0,9.5-3.7,10.9-8.7v-6.5C634.7,49.7,630.3,46,625.1,46z"
		/>
	<path class="st0" d="M259.3,44c-5.7,0-10.3,3.6-10.3,7.9h20.6C269.7,47.5,265,44,259.3,44z"/>
	<path class="st0" d="M34.2,27C33.4,27,24,27,24,27v7v7.1c0,0,9.4,0,10.2,0s6.4-0.6,6.4-7.1C40.6,27.5,35,27,34.2,27z"/>
	<path class="st1" d="M685,40.1V28h-22v60h22V61.6c0,0,2.1-11.8,18.1-11.8V27C703.1,27,690.2,25.2,685,40.1z"/>
	<path class="st1" d="M636,33.5c-4.6-4.5-10.5-7.1-17-7.1c-13.7,0-25,12-26.7,27.6c-1.7-15.6-13-27.7-26.6-27.7
		c-6.3,0-12.1,2.6-16.7,6.9V28h-22v84h22V83c4.6,4.3,10.4,6.9,16.7,6.9c13.6,0,24.9-12,26.6-27.6C594,77.9,605.3,90,619,90
		c6.4,0,12.3-2.7,17-7.1V88h22V28h-22V33.5z M559.7,70c-5.2,0-9.5-3.8-10.7-9v-5.9c1.2-5.2,5.5-9,10.7-9c6.1,0,11.1,5.4,11.1,12
		S565.8,70,559.7,70z M625.1,70c-6.2,0-11.3-5.4-11.3-12s5-12,11.3-12c5.2,0,9.5,3.7,10.9,8.7v6.5C634.7,66.3,630.3,70,625.1,70z"/>
	<path class="st1" d="M394.4,26.2c-10.7,0-20.2,5.2-26,13.2c-0.5,0.6-0.9,1.3-1.3,1.9c-0.3,0.4-0.5,0.9-0.8,1.3
		c-2.6,4.6-4,9.8-4,15.4s1.5,10.9,4,15.4c0.2,0.5,0.5,0.9,0.8,1.3c0.4,0.6,0.8,1.3,1.3,1.9c5.8,8,15.3,13.2,26,13.2
		c17.7,0,32.1-14.3,32.1-31.9S412.1,26.2,394.4,26.2z M394.4,68.8c-6,0-10.8-4.8-10.8-10.7s4.8-10.7,10.8-10.7
		c5.9,0,10.8,4.8,10.8,10.7S400.3,68.8,394.4,68.8z"/>
	<path class="st1" d="M347.5,63.4c-1.9,3.2-5.3,5.3-9.3,5.3c-6,0-10.8-4.8-10.8-10.7s4.8-10.7,10.8-10.7c4,0,7.4,2.1,9.3,5.3l1-0.6
		l17.4-10c-5.6-9.4-15.9-15.8-27.7-15.8c-9.7,0-18.3,4.2-24.2,11c-5,5.5-8,12.8-8,20.9s3,15.3,7.9,20.9c5.9,6.7,14.5,11,24.2,11
		c11.8,0,22.1-6.4,27.7-15.8L348.5,64L347.5,63.4z"/>
	<path class="st2" d="M302.6,58.1c0-10.2,4.4-19.4,11.3-25.8V0h-22v88h22v-4.1C307,77.4,302.6,68.3,302.6,58.1z"/>
	<path class="st2" d="M258.9,26.2c-11.2,0-21,5.7-26.7,14.4c-0.6,0.9-1.1,1.8-1.6,2.7c-2.3,4.4-3.6,9.4-3.6,14.8s1.3,10.3,3.6,14.8
		c0.5,0.9,1,1.8,1.6,2.7c5.7,8.7,15.5,14.4,26.7,14.4c19.8,0,27.4-9.7,27.4-9.7L272.6,68c-15.6,11.5-23.4-2.5-23.4-2.5H290
		c0,0,0-6.9,0-9.4C290,38.5,276.5,26.2,258.9,26.2z M249,51.9c0-4.4,4.6-7.9,10.3-7.9c5.7,0,10.3,3.6,10.3,7.9H249z"/>
	<path class="st1" d="M732.3,26.2c-11.2,0-21,5.7-26.7,14.4c-0.6,0.9-1.1,1.8-1.6,2.7c-2.3,4.4-3.6,9.4-3.6,14.8s1.3,10.3,3.6,14.8
		c0.5,0.9,1,1.8,1.6,2.7c5.7,8.7,15.5,14.4,26.7,14.4c19.8,0,27.4-9.7,27.4-9.7L745.9,68c-15.6,11.5-23.4-2.5-23.4-2.5h40.8
		c0,0,0-6.9,0-9.4C763.3,38.5,749.9,26.2,732.3,26.2z M722.4,51.9c0-4.4,4.6-7.9,10.3-7.9s10.3,3.6,10.3,7.9H722.4z"/>
	<path class="st2" d="M202.2,68.8c-5.9,0-10.8-4.8-10.8-10.7s4.8-10.7,10.8-10.7c4,0,7.5,2.1,9.3,5.3L229.9,42
		c-5.6-9.4-15.9-15.8-27.7-15.8c-13.8,0-25.6,8.7-30.1,20.8V27c0,0-12.9-1.9-18.1,13.1V28h-22v60h22V61.6c0,0,2.1-11.4,17.2-11.8
		c-0.7,2.6-1.1,5.4-1.1,8.3c0,17.6,14.4,31.9,32.1,31.9c11.8,0,22.2-6.4,27.7-15.8l-18.4-10.7C209.6,66.6,206.1,68.8,202.2,68.8z"/>
	<path class="st2" d="M105,33.5c-4.6-4.5-10.5-7.1-17-7.1c-14.9,0-26.9,14.3-26.9,31.8S73.2,90,88,90c6.4,0,12.3-2.7,17-7.1V88h22
		V28h-22V33.5z M94.1,70c-6.2,0-11.3-5.4-11.3-12s5.1-12,11.3-12c5.2,0,9.5,3.7,10.9,8.7c0.3,1,0.4,2.1,0.4,3.3
		c0,1.1-0.1,2.2-0.4,3.3C103.7,66.3,99.3,70,94.1,70z"/>
	<path class="st2" d="M64,30.6C61.3,5.4,37.8,4,34.8,4S0,4,0,4v84h24V64.1c0,0,3.3,0,10.8,0C45,64.1,66.6,55.9,64,30.6z M34.2,41.1
		c-0.8,0-10.2,0-10.2,0V34v-7c0,0,9.4,0,10.2,0s6.4,0.6,6.4,7.1C40.6,40.5,35,41.1,34.2,41.1z"/>
	<path class="st1" d="M501.8,26.3c-14.4,0-19.1,7.9-19.1,7.9c-13.7-15.3-28-4.3-31.7-0.9V28h-22v60h22.1l0,0l0,0l0,0l0,0V53.5
		c0-3.2,2.6-5.9,5.9-5.9h1.1c3.2,0,5.9,2.6,5.9,5.9V88h0.3h21.8h0.3V53.5c0-3.2,2.6-5.9,5.9-5.9h1.5c3.2,0,5.9,2.6,5.9,5.9V88h0.3
		h0.1h21.4c0,0,0-34.3,0-41C521.4,40.2,516.2,26.3,501.8,26.3z"/>
</g>
<g>
	<g>
		<path class="st1" d="M764.3,27.9c-4.6,0-8.4-3.8-8.4-8.4s3.8-8.4,8.4-8.4s8.4,3.8,8.4,8.4S769,27.9,764.3,27.9z M764.3,12.1
			c-4.1,0-7.4,3.3-7.4,7.4s3.3,7.4,7.4,7.4s7.4-3.3,7.4-7.4S768.4,12.1,764.3,12.1z"/>
	</g>
	<g>
		<path class="st1" d="M761.8,23.9h-1.2V15h4.1c1.5,0,2.9,0.5,2.9,2.4c0,1.3-0.7,1.8-1.2,2.1c0.5,0.2,1,0.4,1.1,1.7l0.1,1.6
			c0,0.5,0.1,0.7,0.4,0.9v0.2h-1.5c-0.2-0.5-0.2-1.9-0.2-2.2c0-0.7-0.1-1.6-1.6-1.6h-2.9L761.8,23.9L761.8,23.9z M761.8,19.1h2.8
			c0.9,0,1.8-0.2,1.8-1.5c0-1.4-1-1.5-1.6-1.5h-3V19.1z"/>
	</g>
</g>
<g>
	<path class="st3" d="M175.2,109.9h9.1v1.8h-6.9v5.6h6.4v1.8h-6.4v7.6h-2.2L175.2,109.9L175.2,109.9z"/>
	<path class="st3" d="M198.3,120.6c0,4.5-3.1,6.4-6,6.4c-3.3,0-5.8-2.4-5.8-6.2c0-4,2.6-6.4,6-6.4S198.3,116.9,198.3,120.6z
		 M188.7,120.7c0,2.6,1.5,4.6,3.7,4.6c2.1,0,3.7-2,3.7-4.7c0-2-1-4.6-3.6-4.6S188.7,118.4,188.7,120.7z"/>
	<path class="st3" d="M201.9,118.4c0-1.4,0-2.6-0.1-3.8h1.9l0.1,2.4h0.1c0.5-1.6,1.9-2.6,3.3-2.6c0.3,0,0.4,0,0.6,0.1v2.1
		c-0.2,0-0.4-0.1-0.8-0.1c-1.5,0-2.6,1.2-2.9,2.8c0,0.3-0.1,0.7-0.1,1v6.4h-2.2L201.9,118.4L201.9,118.4z"/>
	<path class="st3" d="M211,117.9c0-1.2,0-2.3-0.1-3.3h1.9l0.1,1.9h0.1c0.7-1.1,1.8-2.2,3.8-2.2c1.6,0,2.9,1,3.4,2.4h0.1
		c0.4-0.7,0.8-1.2,1.3-1.6c0.7-0.5,1.5-0.8,2.7-0.8c1.6,0,4,1,4,5.2v7.1h-2.1v-6.8c0-2.3-0.9-3.7-2.6-3.7c-1.2,0-2.2,0.9-2.6,2
		c-0.1,0.3-0.2,0.7-0.2,1.1v7.5h-2.1v-7.2c0-1.9-0.8-3.3-2.5-3.3c-1.4,0-2.4,1.1-2.7,2.2c-0.1,0.3-0.2,0.7-0.2,1.1v7.3H211V117.9z"
		/>
	<path class="st3" d="M233.9,121.1c0.1,3,2,4.2,4.1,4.2c1.6,0,2.5-0.3,3.3-0.6l0.4,1.6c-0.8,0.3-2.1,0.8-4,0.8
		c-3.7,0-5.9-2.4-5.9-6.1s2.1-6.5,5.7-6.5c3.9,0,5,3.5,5,5.7c0,0.5,0,0.8-0.1,1L233.9,121.1L233.9,121.1z M240.3,119.5
		c0-1.4-0.6-3.6-3-3.6c-2.2,0-3.2,2-3.4,3.6H240.3z"/>
	<path class="st3" d="M246,118.4c0-1.4,0-2.6-0.1-3.8h1.9l0.1,2.4h0.1c0.5-1.6,1.9-2.6,3.3-2.6c0.3,0,0.4,0,0.6,0.1v2.1
		c-0.2,0-0.4-0.1-0.8-0.1c-1.5,0-2.6,1.2-2.9,2.8c0,0.3-0.1,0.7-0.1,1v6.4H246V118.4z"/>
	<path class="st3" d="M255.1,109h2.2v17.7h-2.2L255.1,109L255.1,109z"/>
	<path class="st3" d="M262.6,114.7l2.6,7.1c0.3,0.8,0.6,1.8,0.8,2.5l0,0c0.2-0.7,0.5-1.6,0.8-2.5l2.4-7.1h2.3l-3.3,8.6
		c-1.6,4.1-2.6,6.3-4.1,7.6c-1.1,1-2.2,1.3-2.7,1.4l-0.5-1.8c0.5-0.2,1.3-0.5,1.9-1.1c0.6-0.5,1.3-1.3,1.8-2.4
		c0.1-0.2,0.2-0.4,0.2-0.5s0-0.3-0.1-0.6l-4.5-11.1L262.6,114.7L262.6,114.7z"/>
	<path class="st3" d="M280.6,109.9h9.1v1.8h-6.9v5.6h6.4v1.8h-6.4v7.6h-2.2V109.9z"/>
	<path class="st3" d="M299.1,126.8l-0.2-1.5h-0.1c-0.7,0.9-2,1.8-3.7,1.8c-2.5,0-3.7-1.7-3.7-3.5c0-2.9,2.6-4.5,7.3-4.5v-0.3
		c0-1-0.3-2.8-2.8-2.8c-1.1,0-2.3,0.3-3.1,0.9l-0.5-1.4c1-0.7,2.4-1.1,4-1.1c3.7,0,4.6,2.5,4.6,4.9v4.5c0,1,0,2.1,0.2,2.9
		L299.1,126.8L299.1,126.8z M298.8,120.6c-2.4,0-5.1,0.4-5.1,2.7c0,1.4,1,2.1,2.1,2.1c1.6,0,2.6-1,2.9-2c0.1-0.2,0.1-0.5,0.1-0.7
		V120.6z"/>
	<path class="st3" d="M305,124.5c0.7,0.4,1.8,0.9,2.9,0.9c1.6,0,2.3-0.8,2.3-1.8s-0.6-1.6-2.3-2.2c-2.2-0.8-3.2-2-3.2-3.4
		c0-1.9,1.6-3.5,4.2-3.5c1.2,0,2.3,0.3,3,0.8l-0.5,1.6c-0.5-0.3-1.3-0.7-2.5-0.7c-1.3,0-2,0.8-2,1.6c0,1,0.7,1.5,2.3,2
		c2.1,0.8,3.2,1.8,3.2,3.6c0,2.1-1.6,3.6-4.5,3.6c-1.3,0-2.6-0.3-3.4-0.8L305,124.5z"/>
	<path class="st3" d="M318.7,111.2v3.5h3.1v1.7h-3.1v6.5c0,1.5,0.4,2.3,1.6,2.3c0.6,0,1-0.1,1.3-0.1l0.1,1.6
		c-0.4,0.2-1.1,0.3-1.9,0.3c-1,0-1.8-0.3-2.4-0.9s-0.8-1.7-0.8-3.1v-6.6h-1.9v-1.7h1.9v-2.9L318.7,111.2z"/>
	<path class="st3" d="M325.1,109h2.2v17.7h-2.2V109z"/>
	<path class="st3" d="M338.5,126.8l-0.2-1.5h-0.1c-0.7,0.9-2,1.8-3.7,1.8c-2.5,0-3.7-1.7-3.7-3.5c0-2.9,2.6-4.5,7.3-4.5v-0.3
		c0-1-0.3-2.8-2.8-2.8c-1.1,0-2.3,0.3-3.1,0.9l-0.5-1.4c1-0.7,2.4-1.1,4-1.1c3.7,0,4.6,2.5,4.6,4.9v4.5c0,1,0,2.1,0.2,2.9
		L338.5,126.8L338.5,126.8z M338.2,120.6c-2.4,0-5.1,0.4-5.1,2.7c0,1.4,1,2.1,2.1,2.1c1.6,0,2.6-1,2.9-2c0.1-0.2,0.1-0.5,0.1-0.7
		V120.6z"/>
	<path class="st3" d="M344.7,117.9c0-1.2,0-2.3-0.1-3.3h1.9l0.1,2l0,0c0.6-1.1,2-2.3,4-2.3c1.7,0,4.3,1,4.3,5.1v7.2h-2.2v-7
		c0-1.9-0.7-3.6-2.8-3.6c-1.4,0-2.6,1-2.9,2.3c-0.1,0.3-0.1,0.6-0.1,1v7.3h-2.2L344.7,117.9L344.7,117.9z"/>
	<path class="st3" d="M360.6,121.1c0.1,3,2,4.2,4.1,4.2c1.6,0,2.5-0.3,3.3-0.6l0.4,1.6c-0.8,0.3-2.1,0.8-4,0.8
		c-3.7,0-5.9-2.4-5.9-6.1s2.1-6.5,5.7-6.5c3.9,0,5,3.5,5,5.7c0,0.5,0,0.8-0.1,1L360.6,121.1L360.6,121.1z M367.1,119.5
		c0-1.4-0.6-3.6-3-3.6c-2.2,0-3.2,2-3.4,3.6H367.1z"/>
	<path class="st3" d="M381.1,109.9v16.8H379v-16.8C379,109.9,381.1,109.9,381.1,109.9z"/>
	<path class="st3" d="M385.9,117.9c0-1.2,0-2.3-0.1-3.3h1.9l0.1,2l0,0c0.6-1.1,2-2.3,4-2.3c1.7,0,4.3,1,4.3,5.1v7.2H394v-7
		c0-1.9-0.7-3.6-2.8-3.6c-1.4,0-2.6,1-2.9,2.3c-0.1,0.3-0.1,0.6-0.1,1v7.3H386v-8.7H385.9z"/>
	<path class="st3" d="M403.2,111.2v3.5h3.1v1.7h-3.1v6.5c0,1.5,0.4,2.3,1.6,2.3c0.6,0,1-0.1,1.3-0.1l0.1,1.6
		c-0.4,0.2-1.1,0.3-1.9,0.3c-1,0-1.8-0.3-2.4-0.9s-0.8-1.7-0.8-3.1v-6.6h-1.9v-1.7h1.9v-2.9L403.2,111.2z"/>
	<path class="st3" d="M410.7,121.1c0.1,3,2,4.2,4.1,4.2c1.6,0,2.5-0.3,3.3-0.6l0.4,1.6c-0.8,0.3-2.1,0.8-4,0.8
		c-3.7,0-5.9-2.4-5.9-6.1s2.1-6.5,5.7-6.5c3.9,0,5,3.5,5,5.7c0,0.5,0,0.8-0.1,1L410.7,121.1L410.7,121.1z M417.2,119.5
		c0-1.4-0.6-3.6-3-3.6c-2.2,0-3.2,2-3.4,3.6H417.2z"/>
	<path class="st3" d="M422.8,118.4c0-1.4,0-2.6-0.1-3.8h1.9l0.1,2.4h0.1c0.5-1.6,1.9-2.6,3.3-2.6c0.3,0,0.4,0,0.6,0.1v2.1
		c-0.2,0-0.4-0.1-0.8-0.1c-1.5,0-2.6,1.2-2.9,2.8c0,0.3-0.1,0.7-0.1,1v6.4h-2.2v-8.3H422.8z"/>
	<path class="st3" d="M431.9,117.9c0-1.2,0-2.3-0.1-3.3h1.9l0.1,2l0,0c0.6-1.1,2-2.3,4-2.3c1.7,0,4.3,1,4.3,5.1v7.2H440v-7
		c0-1.9-0.7-3.6-2.8-3.6c-1.4,0-2.6,1-2.9,2.3c-0.1,0.3-0.1,0.6-0.1,1v7.3H432v-8.7H431.9z"/>
	<path class="st3" d="M453.3,126.8l-0.2-1.5H453c-0.7,0.9-2,1.8-3.7,1.8c-2.5,0-3.7-1.7-3.7-3.5c0-2.9,2.6-4.5,7.3-4.5v-0.3
		c0-1-0.3-2.8-2.8-2.8c-1.1,0-2.3,0.3-3.1,0.9l-0.5-1.4c1-0.7,2.4-1.1,4-1.1c3.7,0,4.6,2.5,4.6,4.9v4.5c0,1,0,2.1,0.2,2.9
		L453.3,126.8L453.3,126.8z M453,120.6c-2.4,0-5.1,0.4-5.1,2.7c0,1.4,1,2.1,2.1,2.1c1.6,0,2.6-1,2.9-2c0.1-0.2,0.1-0.5,0.1-0.7
		V120.6z"/>
	<path class="st3" d="M462.1,111.2v3.5h3.1v1.7h-3.1v6.5c0,1.5,0.4,2.3,1.6,2.3c0.6,0,1-0.1,1.3-0.1l0.1,1.6
		c-0.4,0.2-1.1,0.3-1.9,0.3c-1,0-1.8-0.3-2.4-0.9s-0.8-1.7-0.8-3.1v-6.6h-2v-1.7h1.9v-2.9L462.1,111.2z"/>
	<path class="st3" d="M471,111.3c0,0.8-0.5,1.3-1.4,1.3c-0.8,0-1.3-0.6-1.3-1.3c0-0.8,0.6-1.4,1.4-1.4
		C470.4,109.9,471,110.5,471,111.3z M468.5,126.8v-12.1h2.2v12.1H468.5z"/>
	<path class="st3" d="M486.1,120.6c0,4.5-3.1,6.4-6,6.4c-3.3,0-5.8-2.4-5.8-6.2c0-4,2.6-6.4,6-6.4
		C483.8,114.4,486.1,116.9,486.1,120.6z M476.5,120.7c0,2.6,1.5,4.6,3.7,4.6c2.1,0,3.7-2,3.7-4.7c0-2-1-4.6-3.6-4.6
		S476.5,118.4,476.5,120.7z"/>
	<path class="st3" d="M489.7,117.9c0-1.2,0-2.3-0.1-3.3h1.9l0.1,2l0,0c0.6-1.1,2-2.3,4-2.3c1.7,0,4.3,1,4.3,5.1v7.2h-2.2v-7
		c0-1.9-0.7-3.6-2.8-3.6c-1.4,0-2.6,1-2.9,2.3c-0.1,0.3-0.1,0.6-0.1,1v7.3h-2.2L489.7,117.9L489.7,117.9z"/>
	<path class="st3" d="M511.1,126.8l-0.2-1.5h-0.1c-0.7,0.9-2,1.8-3.7,1.8c-2.5,0-3.7-1.7-3.7-3.5c0-2.9,2.6-4.5,7.3-4.5v-0.3
		c0-1-0.3-2.8-2.8-2.8c-1.1,0-2.3,0.3-3.1,0.9l-0.5-1.4c1-0.7,2.4-1.1,4-1.1c3.7,0,4.6,2.5,4.6,4.9v4.5c0,1,0,2.1,0.2,2.9
		L511.1,126.8L511.1,126.8z M510.8,120.6c-2.4,0-5.1,0.4-5.1,2.7c0,1.4,1,2.1,2.1,2.1c1.6,0,2.6-1,2.9-2c0.1-0.2,0.1-0.5,0.1-0.7
		V120.6z"/>
	<path class="st3" d="M517.3,109h2.2v17.7h-2.2V109z"/>
</g>
</svg>
