<?xml version="1.0" encoding="utf-8"?>
<!-- Generator: Adobe Illustrator 22.0.1, SVG Export Plug-In . SVG Version: 6.00 Build 0)  -->
<svg version="1.1" id="Layer_1" xmlns="http://www.w3.org/2000/svg" xmlns:xlink="http://www.w3.org/1999/xlink" x="0px" y="0px"
	 viewBox="0 0 125.5 78.4" style="enable-background:new 0 0 125.5 78.4;" xml:space="preserve">
<style type="text/css">
	.st0{fill:#FAFAFA;}
	.st1{fill:#2E78BF;}
</style>
<path class="st0" d="M125.4,74.2c0,2.3-1.9,4.2-4.2,4.2H4.2c-2.3,0-4.2-1.9-4.2-4.2v-70C0,1.9,1.9,0,4.2,0h117.1
	c2.3,0,4.2,1.9,4.2,4.2L125.4,74.2L125.4,74.2z"/>
<path class="st1" d="M11.3,30.3l-2.4-5.9l-2.4,5.9 M64.5,27.9c-0.5,0.3-1.1,0.3-1.7,0.3h-4.3v-3.3h4.3c0.6,0,1.3,0,1.7,0.3
	c0.5,0.2,0.7,0.7,0.7,1.3C65.2,27.2,65,27.7,64.5,27.9z M95.1,30.3l-2.4-5.9l-2.4,5.9H95.1z M38.1,36.6h-3.6l0-11.6l-5.1,11.6h-3.1
	l-5.1-11.6v11.6h-7.2l-1.4-3.3H5.2l-1.4,3.3H0l6.3-14.8h5.2l6,14v-14h5.8l4.6,10l4.2-10h5.9L38.1,36.6L38.1,36.6z M52.5,36.6H40.7
	V21.9h11.8v3.1h-8.3v2.7h8.1v3h-8.1v2.9h8.3V36.6z M69.1,25.9c0,2.4-1.6,3.6-2.5,3.9c0.8,0.3,1.4,0.8,1.7,1.2
	c0.5,0.7,0.6,1.4,0.6,2.7v2.9h-3.6l0-1.9c0-0.9,0.1-2.2-0.6-2.9c-0.5-0.5-1.3-0.6-2.6-0.6h-3.8v5.4h-3.5V21.9h8.1
	c1.8,0,3.1,0,4.3,0.7C68.4,23.2,69.1,24.2,69.1,25.9z M74.8,36.6h-3.6V21.9h3.6V36.6z M116.5,36.6h-5l-6.7-11.1v11.1h-7.2l-1.4-3.3
	h-7.3l-1.3,3.3h-4.1c-1.7,0-3.9-0.4-5.1-1.6c-1.2-1.3-1.9-3-1.9-5.6c0-2.2,0.4-4.2,1.9-5.8c1.1-1.2,2.9-1.7,5.4-1.7h3.4V25h-3.3
	c-1.3,0-2,0.2-2.7,0.9c-0.6,0.6-1,1.8-1,3.3c0,1.6,0.3,2.7,1,3.5c0.5,0.6,1.5,0.8,2.5,0.8h1.6l5-11.6h5.3l6,14v-14h5.4l6.2,10.3
	V21.9h3.6L116.5,36.6L116.5,36.6z M0,39.5h6l1.4-3.3h3l1.4,3.3h11.9V37l1.1,2.5h6.2l1.1-2.6v2.5h29.5l0-5.4h0.6
	c0.4,0,0.5,0.1,0.5,0.7v4.7h15.2v-1.3c1.2,0.7,3.1,1.3,5.7,1.3h6.4l1.4-3.3h3l1.3,3.3h12.4v-3.1l1.9,3.1h9.9V18.9h-9.8v2.4l-1.4-2.4
	H98.4v2.4l-1.3-2.4H83.6c-2.3,0-4.3,0.3-5.9,1.2v-1.2h-9.4v1.2c-1-0.9-2.4-1.2-4-1.2H30.1l-2.3,5.3l-2.4-5.3H14.7v2.4l-1.2-2.4H4.3
	L0,28.7L0,39.5L0,39.5z"/>
<path class="st1" d="M125.5,48.8h-6.4c-0.6,0-1.1,0-1.4,0.3c-0.4,0.2-0.5,0.6-0.5,1.1c0,0.6,0.3,0.9,0.8,1.1
	c0.4,0.1,0.8,0.2,1.4,0.2l1.9,0.1c1.9,0,3.2,0.4,4,1.2c0.1,0.1,0.2,0.2,0.3,0.4 M125.5,58.5c-0.9,1.3-2.5,1.9-4.8,1.9h-6.8v-3.2h6.8
	c0.7,0,1.1-0.1,1.4-0.4c0.2-0.2,0.4-0.6,0.4-1c0-0.4-0.2-0.8-0.4-1c-0.3-0.2-0.6-0.3-1.2-0.3c-3.3-0.1-7.4,0.1-7.4-4.6
	c0-2.1,1.4-4.4,5.1-4.4h7v-2.9H119c-2,0-3.4,0.5-4.4,1.2v-1.2h-9.7c-1.5,0-3.4,0.4-4.2,1.2v-1.2H83.4v1.2c-1.4-1-3.7-1.2-4.8-1.2
	H67.3v1.2c-1.1-1.1-3.5-1.2-5-1.2H49.6l-2.9,3.2L44,42.7H25v20.6h18.7l3-3.2l2.8,3.2l11.5,0v-4.8h1.1c1.5,0,3.3,0,4.9-0.7v5.6h9.5
	v-5.4h0.5c0.6,0,0.6,0,0.6,0.6v4.8h28.8c1.8,0,3.7-0.5,4.8-1.3v1.3h9.1c1.9,0,3.8-0.3,5.2-0.9L125.5,58.5L125.5,58.5z M111.4,52.6
	c0.7,0.7,1.1,1.6,1.1,3.1c0,3.2-2,4.7-5.5,4.7h-6.9v-3.2h6.8c0.7,0,1.1-0.1,1.4-0.4c0.2-0.2,0.4-0.6,0.4-1c0-0.4-0.2-0.8-0.4-1
	c-0.3-0.2-0.6-0.3-1.3-0.3c-3.3-0.1-7.4,0.1-7.4-4.6c0-2.1,1.3-4.4,5-4.4h7.1v3.1h-6.5c-0.6,0-1.1,0-1.4,0.3
	c-0.4,0.2-0.5,0.6-0.5,1.1c0,0.6,0.3,0.9,0.8,1.1c0.4,0.1,0.8,0.2,1.4,0.2l1.9,0.1C109.3,51.5,110.6,51.8,111.4,52.6z M79.6,51.7
	C79.1,52,78.5,52,77.9,52h-4.3v-3.3h4.3c0.6,0,1.3,0,1.7,0.3c0.5,0.2,0.7,0.7,0.7,1.3S80.1,51.4,79.6,51.7z M81.7,53.5
	c0.8,0.3,1.4,0.8,1.7,1.2c0.5,0.7,0.6,1.4,0.6,2.7v2.9h-3.5v-1.8c0-0.9,0.1-2.2-0.6-2.9c-0.5-0.5-1.3-0.7-2.6-0.7h-3.8v5.4H70V45.6
	h8.1c1.8,0,3.1,0.1,4.2,0.7c1.1,0.7,1.8,1.6,1.8,3.3C84.2,52,82.7,53.2,81.7,53.5z M86.2,45.6H98v3.1h-8.3v2.7h8.1v3h-8.1v2.9l8.3,0
	v3.1H86.2V45.6z M62.4,52.4h-4.6v-3.8h4.6c1.3,0,2.2,0.5,2.2,1.8C64.6,51.8,63.7,52.4,62.4,52.4z M54.3,59l-5.4-6l5.4-5.8V59z
	 M40.3,57.3h-8.7v-2.9h7.7v-3h-7.7v-2.7h8.8l3.9,4.3L40.3,57.3z M68.4,50.5c0,4.1-3.1,4.9-6.1,4.9h-4.4v5H51l-4.3-4.9l-4.5,4.9h-14
	V45.6h14.2l4.3,4.8l4.5-4.8h11.3C65.2,45.6,68.4,46.4,68.4,50.5z"/>
</svg>
