<?xml version="1.0" encoding="UTF-8"?>
<svg width="20px" height="22px" viewBox="0 0 20 22" version="1.1" xmlns="http://www.w3.org/2000/svg" xmlns:xlink="http://www.w3.org/1999/xlink">
    <!-- Generator: Sketch 58 (84663) - https://sketch.com -->
    <title>trash 2</title>
    <desc>Created with Sketch.</desc>
    <g id="Page-1" stroke="none" stroke-width="1" fill="none" fill-rule="evenodd">
        <g id="Buttons-Copy" transform="translate(-374.000000, -412.000000)" fill="#626D80" fill-rule="nonzero">
            <g id="trash-2" transform="translate(374.000000, 412.000000)">
                <g id="trash">
                    <path d="M19.8721854,3.69681558 C19.7870587,3.61330568 19.6781005,3.57133084 19.545659,3.57133084 L15.1562852,3.57133084 L14.1619794,1.2416539 C14.0199855,0.897450432 13.7642571,0.604457249 13.3951425,0.362625485 C13.0256797,0.120842585 12.6514406,0 12.2727735,0 L7.7272263,0 C7.34855923,0 6.97441964,0.120842585 6.60510605,0.362625485 C6.23574272,0.604457249 5.98006408,0.897401567 5.83797064,1.2416539 L4.84366483,3.57133084 L0.454490044,3.57133084 C0.321799847,3.57133084 0.213040654,3.61330568 0.127764689,3.69681558 C0.0427374875,3.78052094 0,3.88753479 0,4.01771055 L0,4.91066542 C0,5.04084118 0.0425384771,5.14785503 0.127764689,5.23141379 C0.213040654,5.31507029 0.321998858,5.35689853 0.454490044,5.35689853 L1.81800993,5.35689853 L1.81800993,18.638344 C1.81800993,19.410554 2.04055333,20.0684205 2.48559038,20.6123831 C2.93072693,21.1566878 3.46576645,21.4285714 4.09080842,21.4285714 L15.9091417,21.4285714 C16.5343329,21.4285714 17.0693226,21.1473058 17.5144094,20.5847745 C17.9594465,20.0218523 18.1818406,19.3546527 18.1818406,18.5827359 L18.1818406,5.35689853 L19.5456093,5.35689853 C19.6780507,5.35689853 19.7870587,5.31507029 19.8721356,5.23141379 C19.9571131,5.1479039 20,5.04084118 20,4.91066542 L20,4.01771055 C20,3.88753479 19.9571628,3.78052094 19.8721854,3.69681558 Z M7.5142354,1.93885649 C7.58045612,1.85519999 7.66100558,1.80389198 7.75568479,1.7854211 L12.2584945,1.7854211 C12.3531737,1.80403858 12.4338725,1.85529772 12.4999937,1.93885649 L13.1820521,3.57113538 L6.81819646,3.57113538 L7.5142354,1.93885649 Z M16.3638307,18.5828336 C16.3638307,18.7873816 16.330795,18.9758041 16.2643753,19.1477593 C16.1980053,19.3196655 16.1291974,19.445248 16.0583497,19.5243112 C15.9871537,19.6035699 15.9377992,19.642906 15.9091914,19.642906 L4.09085817,19.642906 C4.06244943,19.642906 4.01299535,19.6035699 3.94179937,19.5243112 C3.8707029,19.445248 3.80199455,19.3196655 3.73567433,19.1477593 C3.66945361,18.9758041 3.63631838,18.7871861 3.63631838,18.5828336 L3.63631838,5.35689853 L16.3638307,5.35689853 L16.3638307,18.5828336 L16.3638307,18.5828336 Z" id="Shape"></path>
                    <path d="M7.67858609,16.4285714 L8.75010263,16.4285714 C8.90645221,16.4285714 9.0348864,16.3884639 9.13505335,16.308155 C9.23580675,16.2275646 9.28571429,16.1251613 9.28571429,15.9999601 L9.28571429,8.28551961 C9.28571429,8.16059985 9.2357481,8.05786823 9.13505335,7.9774655 C9.0348864,7.89729731 8.90645221,7.85714286 8.75010263,7.85714286 L7.67858609,7.85714286 C7.52235381,7.85714286 7.39391961,7.8972504 7.29345943,7.9774655 C7.19294062,8.05786823 7.14285714,8.16059985 7.14285714,8.28551961 L7.14285714,15.9999601 C7.14285714,16.1251613 7.19294062,16.2276115 7.29345943,16.308155 C7.39386096,16.388417 7.52235381,16.4285714 7.67858609,16.4285714 Z" id="Path"></path>
                    <path d="M11.964447,16.4285714 L13.0358462,16.4285714 C13.1923803,16.4285714 13.3208216,16.3884639 13.4211699,16.308155 C13.5215183,16.2275646 13.5714286,16.1251613 13.5714286,15.9999601 L13.5714286,8.28551961 C13.5714286,8.16059985 13.5214597,8.05786823 13.4211699,7.9774655 C13.3208216,7.89729731 13.1923803,7.85714286 13.0358462,7.85714286 L11.964447,7.85714286 C11.8078543,7.85714286 11.6798236,7.8972504 11.5790647,7.9774655 C11.4787163,8.05786823 11.4285714,8.16059985 11.4285714,8.28551961 L11.4285714,15.9999601 C11.4285714,16.1251613 11.4787163,16.2276115 11.5790647,16.308155 C11.6798236,16.388417 11.8078543,16.4285714 11.964447,16.4285714 Z" id="Path"></path>
                </g>
            </g>
        </g>
    </g>
</svg>