<svg id="Layer_1" data-name="Layer 1" xmlns="http://www.w3.org/2000/svg" viewBox="0 0 125.5 78.4"><defs><style>.cls-1{fill:#fafafa;}.cls-2{fill:#231f20;}.cls-3{fill:none;}.cls-4{fill:#ff5f00;}.cls-5{fill:#f79e1b;}.cls-6{fill:#eb001b;}</style></defs><title>mastercard_new</title><path class="cls-1" d="M125.4,74.2a4.23,4.23,0,0,1-4.2,4.2H4.2A4.23,4.23,0,0,1,0,74.2V4.2A4.23,4.23,0,0,1,4.2,0H121.3a4.23,4.23,0,0,1,4.2,4.2l-.1,70Z" transform="translate(0 0)"/><g id="g3806"><path id="path3808" class="cls-2" d="M37.72,69.52a2.18,2.18,0,1,1,2.19,2.31,2.16,2.16,0,0,1-2.19-2.31m5.84,0V65.91H42v.88a2.75,2.75,0,0,0-2.28-1.06,3.79,3.79,0,0,0,0,7.58,2.74,2.74,0,0,0,2.28-1v.87h1.56Zm53,0a2.19,2.19,0,1,1,2.19,2.31,2.16,2.16,0,0,1-2.19-2.31m5.85,0V63h-1.57v3.78a2.75,2.75,0,0,0-2.28-1.06,3.79,3.79,0,0,0,0,7.58,2.74,2.74,0,0,0,2.28-1v.87h1.57Zm-39.4-2.38a1.78,1.78,0,0,1,1.82,1.75H61.13a1.86,1.86,0,0,1,1.92-1.75m0-1.41a3.79,3.79,0,0,0,.1,7.58,4.37,4.37,0,0,0,3-1l-.77-1.16a3.44,3.44,0,0,1-2.1.75,2,2,0,0,1-2.16-1.76h5.36a6,6,0,0,0,0-.61c0-2.25-1.41-3.79-3.43-3.79m19,3.79a2.18,2.18,0,1,1,2.19,2.31A2.16,2.16,0,0,1,82,69.52m5.84,0V65.91H86.3v.88A2.74,2.74,0,0,0,84,65.73a3.79,3.79,0,0,0,0,7.58,2.73,2.73,0,0,0,2.28-1v.87h1.57Zm-14.71,0A3.65,3.65,0,0,0,77,73.31a3.76,3.76,0,0,0,2.59-.86l-.75-1.27a3.14,3.14,0,0,1-1.89.65,2.31,2.31,0,0,1,0-4.62,3.2,3.2,0,0,1,1.89.65l.75-1.27A3.76,3.76,0,0,0,77,65.73a3.65,3.65,0,0,0-3.86,3.79M93.4,65.73a2.13,2.13,0,0,0-1.9,1.06v-.88H89.94v7.22h1.57v-4c0-1.2.52-1.86,1.54-1.86a2.46,2.46,0,0,1,1,.18l.49-1.48a3.28,3.28,0,0,0-1.12-.2m-42.07.76a5.41,5.41,0,0,0-2.95-.76c-1.83,0-3,.88-3,2.31,0,1.18.87,1.91,2.49,2.13l.74.11c.86.12,1.27.35,1.27.75,0,.56-.58.88-1.65.88a3.82,3.82,0,0,1-2.4-.76l-.74,1.23a5.24,5.24,0,0,0,3.13.93c2.08,0,3.29-1,3.29-2.35S50.56,69,49,68.8l-.74-.11C47.57,68.6,47,68.47,47,68s.52-.84,1.38-.84a4.57,4.57,0,0,1,2.25.62l.68-1.27Zm20.25-.76a2.12,2.12,0,0,0-1.9,1.06v-.88H68.12v7.22h1.57v-4c0-1.2.51-1.86,1.54-1.86a2.46,2.46,0,0,1,1,.18l.49-1.48a3.28,3.28,0,0,0-1.12-.2m-13.4.18H55.62V63.72H54v2.19H52.57v1.44H54v3.29c0,1.68.65,2.67,2.51,2.67a3.66,3.66,0,0,0,2-.56l-.45-1.34a2.92,2.92,0,0,1-1.39.41c-.79,0-1-.49-1-1.21V67.35h2.56V65.91ZM34.72,73.13V68.6a2.7,2.7,0,0,0-2.84-2.87A2.8,2.8,0,0,0,29.34,67,2.66,2.66,0,0,0,27,65.73a2.39,2.39,0,0,0-2.11,1.07v-.89H23.27v7.22h1.58v-4a1.69,1.69,0,0,1,1.77-1.92c1,0,1.57.68,1.57,1.9v4h1.59v-4a1.7,1.7,0,0,1,1.76-1.92c1.08,0,1.59.68,1.59,1.9v4Z" transform="translate(0 0)"/></g><polygon class="cls-3" points="62.7 53.65 62.7 53.65 62.7 53.65 62.7 53.65"/><polygon class="cls-4" points="62.7 10.9 62.7 10.9 62.7 10.9 62.7 10.9"/><circle class="cls-5" cx="79.61" cy="32.27" r="27.07"/><circle class="cls-6" cx="45.79" cy="32.27" r="27.07"/><ellipse class="cls-4" cx="62.7" cy="32.1" rx="10.16" ry="21.13"/></svg>