<svg id="Layer_1" data-name="Layer 1" xmlns="http://www.w3.org/2000/svg" viewBox="0 0 755.94 162.95"><defs><style>.cls-1{fill:#2882be;}.cls-2{fill:#d5d9de;}.cls-3{fill:#fe4b4b;}.cls-4{fill:#fff;}</style></defs><title>ph_logo</title><path class="cls-1" d="M618,22A80.77,80.77,0,0,1,662.9.6c14.7-1.6,29.8.2,43.4,6.2A82.64,82.64,0,0,1,747.2,45a81,81,0,0,1-14.1,93.1,81.33,81.33,0,0,1-44,23.6c-18.5,3.3-38.3.3-54.6-9.1A73.64,73.64,0,0,1,602.1,115c-2.6-6.7-4.6-13.8-3.8-21.1,1.7,8.8,5.8,16.9,10.1,24.7A71.08,71.08,0,0,0,637,147a75.57,75.57,0,0,0,62.2,4.3c26.3-9.6,46-35.2,47.6-63.3A72.55,72.55,0,0,0,692,12.6c-16.3-3.9-34.1-2.3-49.2,5.2-19.9,9.7-34.1,29.6-37.9,51.3-.6,2.4-.6,5.3-2.8,7-2.9,2.5-8.1.7-8.9-3.1-.4-2.7.4-5.4.9-8A83,83,0,0,1,618,22" transform="translate(-0.06 -0.05)"/><path class="cls-2" d="M667.4,18.5c12.7-1.2,25.9.7,37.3,6.8A65.09,65.09,0,0,1,739.2,73c1.8,12.9.2,26.6-5.7,38.3a65.48,65.48,0,0,1-42.3,34.6c-14.5,3.5-30.3,2.4-43.7-4.2a64.74,64.74,0,0,1-31.6-32.4,66,66,0,0,1-2.3-46.9c7.5-23.3,29.3-41.3,53.8-43.9" transform="translate(-0.06 -0.05)"/><path class="cls-1" d="M300.3,22.4c3.1-1.4,7.2.8,6.6,4.5.1,27.7,0,55.4,0,83.1,0,2,0,4.7-2.2,5.6s-5.5.6-6.5-1.9c-.6-2.5-.3-5.2-.3-7.8V26.8c0-1.6.5-3.8,2.4-4.4" transform="translate(-0.06 -0.05)"/><path class="cls-3" d="M323.1,26.9c-.1-3.8,5.2-4.8,7.6-2.6,1.1,1.3,1.1,3,1.2,4.6.1,9.6-.1,19.2.1,28.8,3.1-4,7-7.6,12-8.7,13.3-3.7,28.9,6.9,29.2,21,.1,14.3.1,28.7,0,43,.4,4.2-5.6,5.3-7.9,2.7-1-1.4-.8-3.1-.9-4.7V75c0-5.3-1.8-10.9-6-14.4-5.5-4.7-14.2-4.7-19.9-.3A17.15,17.15,0,0,0,332,73.9c-.2,13,.1,26.1-.1,39.1.3,4.5-6.8,5.4-8.5,1.7a19.89,19.89,0,0,1-.3-4.9c0-27.5-.2-55.2,0-82.9" transform="translate(-0.06 -0.05)"/><path class="cls-4" d="M658.1,30c6.8-1.9,13.8-3.8,20.9-2.9,4.7,1.7,4.4,7.7,6.8,11.3,1.4,2.5,4.8,1.3,6.5-.1a24.21,24.21,0,0,0,2.3-7.5A55.73,55.73,0,0,1,730.2,74a99.48,99.48,0,0,1,0,18.1c-2.7,18-15.1,33.9-31.4,41.7-4,1.7-7.6,4.6-12,4.9a92.25,92.25,0,0,1-13.9.4c1.4-3.1,2.3-6.6,4.2-9.4a45.12,45.12,0,0,0,14.2-.3c4.8-3,7.1-8.5,10-13.2,1-1.7,2.3-3.7,1.3-5.7-2.4-3.4-6.1-5.4-9.8-7.1-5-2.4-9.1-6.3-14-8.7-4.9-1.1-10.1,2.2-14.7-.5a84.86,84.86,0,0,1-14.9-11.1c-3.3-2.9-3.1-7.8-3.1-11.9,3.2-.2,6.7-.8,9.8.3,2.7,1.7,4.3,4.9,7.5,5.9,2.1-4.2-4.6-8.9,0-12.1,4.8-3.9,9.9-7.5,14.1-12,1.6-1.9-.5-4.1-1.8-5.4-2.3-2.3-5.3-5.4-8.9-4.1-2.2,1.8-4.1,3.9-6.3,5.8a34.38,34.38,0,0,0-1.9-9,45.54,45.54,0,0,1,6.2-5.3c-1.3-1.1-2.4-3.1-4.3-2.8-2.6.3-5,1.3-7.5,1.9-.6-3.3,2.9-3.6,5.1-4.4" transform="translate(-0.06 -0.05)"/><path class="cls-2" d="M701,37c4.6,3.3,8.6,7.4,12.7,11.4s6.7,9.4,9.6,14.3c1.9,3.1,1.3,6.9,1.3,10.3-.3,6.1.4,12.2-.4,18.3-.5,1.5-.3,3.7-1.9,4.5-2.7-2.9-5-6.3-5.8-10.1-1.2-6.4-.6-12.9-1-19.3-.8-6.6-5.9-11.2-9-16.8A82.87,82.87,0,0,1,701,37" transform="translate(-0.06 -0.05)"/><path class="cls-1" d="M1.8,47.8c2.4-1.3,6.5-.7,6.9,2.4.4,3.3.2,6.6.5,9.8A22.69,22.69,0,0,1,25.1,47.5a24.37,24.37,0,0,1,22.3,8c6.8,7.7,9.4,18.3,9.3,28.4-.3,9.6-3.3,19.6-10.2,26.4-7.9,8-21.6,9.5-30.9,3.1-2.7-1.8-4.6-4.5-6.5-7C9,117.3,9.2,128.2,9,139c.1,3.4-3.9,5.6-6.8,4.1-2-.9-2.1-3.3-2.1-5.2v-85c-.1-1.7-.2-4.1,1.7-5.1" transform="translate(-0.06 -0.05)"/><path class="cls-1" d="M140,57.9a25,25,0,0,1,23.9-10.5c2.1.4,4.5,1.4,5.3,3.6,1.3,2.8-1.1,6.5-4.2,6.3-4.2,0-8.6-1.6-12.7,0-6.8,2.5-12.5,9.1-12.5,16.6-.1,12.7.1,25.4-.1,38,.3,4-5.1,5.1-7.7,2.9-1-1.1-1-2.6-1.1-4V58.7a41.79,41.79,0,0,1,.3-7.9c.9-3.7,7.6-3.6,8.3.2a42.3,42.3,0,0,1,.5,6.9" transform="translate(-0.06 -0.05)"/><path class="cls-1" d="M234.9,59A26.5,26.5,0,0,1,253,47.4c8.1-1.1,17,.8,23.1,6.5,7.6,7.2,9.9,18.6,8.3,28.6-.4,3-3.5,4.6-6.3,4.3-13.5.1-27.1,0-40.6,0,.7,12.8,13.7,24.1,26.6,21.2,5.8-.4,9.5-5.1,14.3-7.6,3.4-1.7,7.4,1.7,5.8,5.3-3.6,5.5-9.8,9.1-16.1,10.6-8.2,1.8-17.2,1.4-24.5-3-7.8-4.5-12.7-12.8-14.6-21.5-2.4-11-.6-23.3,5.9-32.8" transform="translate(-0.06 -0.05)"/><path class="cls-1" d="M74.3,52.2c3.2-2.1,7.1-2.9,10.9-3.7,7.1-1.1,14.6-1.6,21.5.9a20.07,20.07,0,0,1,12.2,11.8c1.9,4.7,1.4,9.8,1.4,14.7-.1,12.4.1,24.7-.1,37.1,0,3.5-4.7,5.2-7.2,3.1-2.2-1.6-1.5-4.7-1.9-7.1-10.2,9.7-28.6,11.2-38.8.7-5-5.5-5.9-13.9-3.1-20.7,2.6-6.2,8.5-10.4,14.8-12.1,9.1-2.6,19.4-1.4,27.1,4.3-.4-6.4,1.7-13.9-3-19.2-5-5.4-13.2-6.1-20.1-5-4.4.5-8.5,2.9-12.9,2.2-3.3-.7-3.3-5.3-.8-7" transform="translate(-0.06 -0.05)"/><path class="cls-3" d="M397.8,52.8c9.1-6.5,22.3-6.2,31.5-.1,9.7,6.7,12.8,19.7,11,30.8-.4,3-3.5,4.6-6.3,4.4-13.5.1-27.1,0-40.6.1.7,12.8,13.6,24,26.5,21.2,5.8-.4,9.6-5.2,14.5-7.6,3.4-1.7,7.5,1.8,5.8,5.4-3.7,5.7-10.1,9.3-16.7,10.7-8,1.6-16.7,1.1-23.9-3.1-7.8-4.5-12.8-12.8-14.6-21.5-3.1-14.3.7-31.3,12.8-40.3" transform="translate(-0.06 -0.05)"/><path class="cls-3" d="M477.9,48.8c4.2-.8,9.2-1.4,13,1.3,3,2.2,1.9,7.5-1.8,8.2-4.3.4-8.7-1.5-12.9-.1-7.5,2.3-13.6,9.7-13.2,17.8v35c-.1,1.6.1,3.5-1,4.8-2.4,2.4-8.2,1.4-7.9-2.7,0-20-.1-40.1.1-60.1-.1-4.4,7.4-4.9,8.4-.9a40.06,40.06,0,0,1,.5,6.9c3.5-5,8.7-9,14.8-10.2" transform="translate(-0.06 -0.05)"/><path class="cls-3" d="M517.5,48.7c7.5-1.5,15.8.1,21.8,5,7,5.6,10.9,14.4,12.3,23.2,1.6,10.9-.2,22.8-7.2,31.6-8.6,11.2-26.4,13.2-37.5,4.7-7-5.3-10.9-13.8-12.3-22.3-1.6-10.4,0-21.6,5.8-30.5a26.12,26.12,0,0,1,17.1-11.7" transform="translate(-0.06 -0.05)"/><path class="cls-4" d="M619.5,82.9c-.7-13,4.4-25.9,12.8-35.7,2.4,6.5-.4,13.5,1.4,20,1.1,3.4,3.6,6.1,4.5,9.6.9,2.8,1,6.3,3.9,8,6,3.9,11.1,9,17.1,13a24.42,24.42,0,0,1,4,3.2c1.7,5.2-3.6,10.1-1.4,15.3,1.1,3,3.8,4.9,5.6,7.4a21,21,0,0,1-3.7,15.2,118.17,118.17,0,0,0-11.5-5.1c-19.5-8.6-33.6-29.3-32.7-50.9" transform="translate(-0.06 -0.05)"/><path class="cls-1" d="M197.5,49.6c7.7-1.4,16.2-1.2,23.2,2.7a4.33,4.33,0,0,1,.9,7.2c-1.9,1.7-4.4.2-6.5-.3-7.2-2.5-15.7-2.8-22.2,1.7-10.3,6.9-13.1,21.7-8.6,32.8,3.3,8.4,11.5,15,20.8,15,4.9.2,9.5-1.7,13.7-4,2.8-1.9,6.3,2.1,4.8,4.9s-4.6,4.3-7.4,5.5c-11.8,5-26.4,1.3-34.6-8.5-11.3-13.2-11.5-34.9.3-47.9a30.19,30.19,0,0,1,15.6-9.1" transform="translate(-0.06 -0.05)"/><path class="cls-4" d="M25.5,56.6a15.31,15.31,0,0,1,14.8,4.1c5.5,5.9,7.2,14.4,7.3,22.2-.1,7.8-1.6,16.4-7.4,22.1-6.7,6.4-18.5,5-24.1-2.1-6.5-8.2-7.5-19.6-5.3-29.5,1.7-7.4,6.7-15.1,14.7-16.8" transform="translate(-0.06 -0.05)"/><path class="cls-4" d="M246.6,59.6c6.4-4.8,16.1-4.8,22.1.7,5.1,4.4,6.9,11.3,7.3,17.8-12.8.1-25.6,0-38.4,0,.2-7,3.1-14.3,9-18.5" transform="translate(-0.06 -0.05)"/><path class="cls-4" d="M403.2,60.2c6.6-4.5,16.3-4.2,22,1.6,4.7,4.4,6.4,11,6.7,17.3-12.8.2-25.6,0-38.3.1.2-7.4,3.3-14.9,9.6-19" transform="translate(-0.06 -0.05)"/><path class="cls-4" d="M518.4,57.5a16.35,16.35,0,0,1,15.4,3.7c5.7,5.3,8.2,13.2,8.9,20.8.5,7.6-1,15.8-5.9,21.8a17.61,17.61,0,0,1-21.7,4.1c-5.1-2.9-8.2-8.4-9.9-13.9-2.5-8.3-2.4-17.7,1.2-25.7,2.1-5.1,6.5-9.5,12-10.8" transform="translate(-0.06 -0.05)"/><path class="cls-4" d="M87.5,84.6a25.6,25.6,0,0,1,18.2,2.6c3.4,1.9,6,5.8,5.2,9.8-.8,4.7-4.9,8-9.1,9.6-6.3,2.4-13.8,2.7-19.7-.7-4.9-2.8-6.7-9.4-4.4-14.4,1.8-3.8,5.8-6,9.8-6.9" transform="translate(-0.06 -0.05)"/></svg>