<?xml version="1.0" encoding="utf-8"?>
<!-- Generator: Adobe Illustrator 22.0.1, SVG Export Plug-In . SVG Version: 6.00 Build 0)  -->
<svg version="1.1" id="Layer_1" xmlns="http://www.w3.org/2000/svg" xmlns:xlink="http://www.w3.org/1999/xlink" x="0px" y="0px"
	 viewBox="0 0 125.4 78.4" style="enable-background:new 0 0 125.4 78.4;" xml:space="preserve">
<style type="text/css">
	.st0{fill:#FAFAFA;}
	.st1{fill:#1166B0;}
	.st2{fill:#F7A536;}
</style>
<path class="st0" d="M125.4,74.2c0,2.3-1.9,4.2-4.2,4.2H4.2c-2.3,0-4.2-1.9-4.2-4.2v-70C0,1.9,1.9,0,4.2,0h117.1
	c2.3,0,4.2,1.9,4.2,4.2V74.2z"/>
<g>
	<g>
		<polygon class="st1" points="55.5,56.3 46.6,56.3 52.1,22.1 61,22.1 		"/>
		<path class="st1" d="M39.1,22.1l-8.5,23.5l-1-5.1v0l-3-15.4c0,0-0.4-3.1-4.2-3.1h-14l-0.2,0.6c0,0,4.3,0.9,9.3,3.9l7.7,29.7h9.3
			l14.1-34.1H39.1z"/>
		<path class="st1" d="M109,56.3h8.2l-7.1-34.1h-7.1c-3.3,0-4.1,2.5-4.1,2.5L85.6,56.3h9.3l1.9-5.1H108L109,56.3z M99.2,44.2
			l4.7-12.8l2.6,12.8H99.2z"/>
		<path class="st1" d="M86.3,30.3l1.3-7.3c0,0-3.9-1.5-8-1.5c-4.4,0-14.9,1.9-14.9,11.3c0,8.8,12.3,8.9,12.3,13.6
			c0,4.6-11,3.8-14.7,0.9l-1.3,7.7c0,0,4,1.9,10,1.9c6.1,0,15.2-3.1,15.2-11.7c0-8.9-12.4-9.7-12.4-13.6
			C73.8,27.8,82.5,28.3,86.3,30.3z"/>
	</g>
	<path class="st2" d="M29.6,40.6l-3-15.4c0,0-0.4-3.1-4.2-3.1h-14l-0.2,0.6c0,0,6.7,1.4,13.2,6.6C27.6,34.3,29.6,40.6,29.6,40.6z"/>
</g>
</svg>
