<?xml version="1.0" encoding="UTF-8"?>
<svg width="46px" height="46px" viewBox="0 0 46 46" version="1.1" xmlns="http://www.w3.org/2000/svg" xmlns:xlink="http://www.w3.org/1999/xlink">
    <!-- Generator: Sketch 55.1 (78136) - https://sketchapp.com -->
    <title>Group 4</title>
    <desc>Created with Sketch.</desc>
    <g id="Page-1" stroke="none" stroke-width="1" fill="none" fill-rule="evenodd">
        <g id="Buttons-Copy" transform="translate(-109.000000, -823.000000)">
            <g id="Group-4" transform="translate(109.000000, 823.000000)">
                <circle id="Oval" fill="#2DA8D0" cx="23" cy="23" r="23"></circle>
                <g id="delivery-truck" transform="translate(10.000000, 14.000000)" fill="#FFFFFF" fill-rule="nonzero" stroke="#FFFFFF" stroke-width="0.8">
                    <path d="M17.3333333,7.44827586 L24.7619048,7.44827586 L24.7619048,7.14515723 L21.2524509,3.72413793 L17.3333333,3.72413793 L17.3333333,7.44827586 Z M17.3333333,8.68965517 L17.3333333,13.0341802 C17.8980464,12.2805577 18.7970101,11.7931034 19.8095238,11.7931034 C21.0787689,11.7931034 22.1695807,12.5590936 22.6472111,13.6551724 L24.7619048,13.6551724 L24.7619048,8.68965517 L17.3333333,8.68965517 Z M16.0952381,13.6551724 L16.0952381,2.48275862 L16.0952381,1.24137931 L1.23809524,1.24137931 L1.23809524,13.6551724 L2.11469371,13.6551724 C2.592324,12.5590936 3.68313583,11.7931034 4.95238095,11.7931034 C6.22162607,11.7931034 7.31243791,12.5590936 7.7900682,13.6551724 L16.0952381,13.6551724 Z M17.3333333,2.48275862 L21.7551021,2.48275862 L26,6.62068961 L26,13.6551724 C26,14.3407672 25.4456858,14.8965517 24.7619048,14.8965517 L22.9047619,14.8965517 C22.9047619,16.6105389 21.5189766,18 19.8095238,18 C18.100071,18 16.7142857,16.6105389 16.7142857,14.8965517 L8.04761905,14.8965517 C8.04761905,16.6105389 6.66183374,18 4.95238095,18 C3.24292816,18 1.85714286,16.6105389 1.85714286,14.8965517 L1.23809524,14.8965517 C0.554314119,14.8965517 0,14.3407672 0,13.6551724 L0,1.24137931 C0,0.555784448 0.554314119,0 1.23809524,0 L16.0952381,0 C16.7790192,0 17.3333333,0.555784448 17.3333333,1.24137931 L17.3333333,2.48275862 Z M4.95238095,16.7586207 C5.97805262,16.7586207 6.80952381,15.924944 6.80952381,14.8965517 C6.80952381,13.8681595 5.97805262,13.0344828 4.95238095,13.0344828 C3.92670928,13.0344828 3.0952381,13.8681595 3.0952381,14.8965517 C3.0952381,15.924944 3.92670928,16.7586207 4.95238095,16.7586207 Z M19.8095238,16.7586207 C20.8351955,16.7586207 21.6666667,15.924944 21.6666667,14.8965517 C21.6666667,13.8681595 20.8351955,13.0344828 19.8095238,13.0344828 C18.7838522,13.0344828 17.952381,13.8681595 17.952381,14.8965517 C17.952381,15.924944 18.7838522,16.7586207 19.8095238,16.7586207 Z" id="Shape"></path>
                </g>
            </g>
        </g>
    </g>
</svg>