<?xml version="1.0" encoding="UTF-8"?>
<svg width="24px" height="24px" viewBox="0 0 24 24" version="1.1" xmlns="http://www.w3.org/2000/svg" xmlns:xlink="http://www.w3.org/1999/xlink">
    <!-- Generator: Sketch 57.1 (83088) - https://sketch.com -->
    <title>Group 21</title>
    <desc>Created with Sketch.</desc>
    <g id="Page-1" stroke="none" stroke-width="1" fill="none" fill-rule="evenodd">
        <g id="Buttons-Copy" transform="translate(-87.000000, -275.000000)">
            <g id="Group-21" transform="translate(87.000000, 275.000000)">
                <circle id="Oval" fill="#FFFFFF" cx="12" cy="12" r="10"></circle>
                <g id="user-(1)" fill="#B7BECC" fill-rule="nonzero">
                    <path d="M11.9998,0 C5.37256954,0 0,5.37269373 0,11.99988 C0,18.6269063 5.37256954,24 11.9998,24 C18.6270305,24 24,18.6269063 24,11.99988 C24,5.37253373 18.6270305,0 11.9998,0 Z M12.0363606,17.6612166 L12.0363606,17.6610566 L11.9630794,17.6610566 L6.83723395,17.6610566 C6.83723395,13.9125391 10.1294488,13.9134191 10.860021,12.9332493 L10.9436224,12.4862849 C9.91720529,11.9661197 9.19263321,10.7120271 9.19263321,9.24529245 C9.19263321,7.31295313 10.4496142,5.74621746 11.9998,5.74621746 C13.5499858,5.74621746 14.8069668,7.31295313 14.8069668,9.24529245 C14.8069668,10.699547 14.0952749,11.9457995 13.082538,12.4742047 L13.1777396,12.9821298 C13.979273,13.9147791 17.161966,13.9755798 17.161966,17.6612166 L12.0363606,17.6612166 L12.0363606,17.6612166 Z" id="Shape"></path>
                </g>
            </g>
        </g>
    </g>
</svg>