<?xml version="1.0" encoding="UTF-8"?>
<svg width="20px" height="20px" viewBox="0 0 20 20" version="1.1" xmlns="http://www.w3.org/2000/svg" xmlns:xlink="http://www.w3.org/1999/xlink">
    <!-- Generator: Sketch 58 (84663) - https://sketch.com -->
    <title>Shape</title>
    <desc>Created with Sketch.</desc>
    <g id="Page-1" stroke="none" stroke-width="1" fill="none" fill-rule="evenodd">
        <g id="Buttons-Copy" transform="translate(-313.000000, -1029.000000)" fill="#B4BECC" fill-rule="nonzero">
            <path d="M324.000014,1043.00119 L318.000014,1043.00119 C317.447729,1043.00119 317.000014,1043.44882 317.000014,1044.00099 C317.000014,1044.55317 317.447729,1045.00079 318.000014,1045.00079 L324.000014,1045.00079 C324.552296,1045.00079 325.000014,1044.55317 325.000014,1044.00099 C325.000014,1043.44882 324.552296,1043.00119 324.000014,1043.00119 Z M320.000013,1037.00238 L322.000013,1037.00238 C322.552297,1037.00238 323.000013,1036.55476 323.000013,1036.00258 C323.000013,1035.45041 322.552297,1035.00278 322.000013,1035.00278 L320.000013,1035.00278 C319.447728,1035.00278 319.000013,1035.45041 319.000013,1036.00258 C319.000013,1036.55476 319.447728,1037.00238 320.000013,1037.00238 Z M332.000008,1039.00199 L329.000008,1039.00199 L329.000008,1030.00378 C329.001433,1029.64516 328.810644,1029.31325 328.500008,1029.13395 C328.190609,1028.95535 327.809411,1028.95535 327.500008,1029.13395 L324.500008,1030.85361 L321.500008,1029.13395 C321.190611,1028.95535 320.809414,1028.95535 320.500008,1029.13395 L317.500008,1030.85361 L314.500008,1029.13395 C314.190614,1028.95535 313.809417,1028.95535 313.500008,1029.13395 C313.189381,1029.31325 312.998592,1029.64516 313.000008,1030.00378 L313.000008,1046.0006 C313.000008,1047.65712 314.343161,1049 316.000008,1049 L330.000008,1049 C331.656863,1049 333.000008,1047.65712 333.000008,1046.0006 L333.000008,1040.00179 C333.000008,1039.44961 332.552293,1039.00199 332.000008,1039.00199 Z M316.000015,1047.0004 C315.44773,1047.0004 315.000015,1046.55277 315.000015,1046.0006 L315.000015,1031.73343 L317.000015,1032.8732 C317.31327,1033.03679 317.686758,1033.03679 318.000015,1032.8732 L321.000015,1031.15355 L324.000015,1032.8732 C324.313267,1033.03679 324.686756,1033.03679 325.000015,1032.8732 L327.000015,1031.73343 L327.000015,1046.0006 C327.002715,1046.34167 327.063588,1046.67979 327.18001,1047.0004 L316.000015,1047.0004 Z M331.000009,1046.0006 C331.000009,1046.55277 330.552294,1047.0004 330.000009,1047.0004 C329.447725,1047.0004 329.000009,1046.55277 329.000009,1046.0006 L329.000009,1041.00159 L331.000009,1041.00159 L331.000009,1046.0006 Z M324.000014,1039.00199 L318.000014,1039.00199 C317.447729,1039.00199 317.000014,1039.44961 317.000014,1040.00179 C317.000014,1040.55396 317.447729,1041.00159 318.000014,1041.00159 L324.000014,1041.00159 C324.552296,1041.00159 325.000014,1040.55396 325.000014,1040.00179 C325.000014,1039.44961 324.552296,1039.00199 324.000014,1039.00199 Z" id="Shape"></path>
        </g>
    </g>
</svg>