<?xml version="1.0" encoding="UTF-8"?>
<svg width="24px" height="24px" viewBox="0 0 24 24" version="1.1" xmlns="http://www.w3.org/2000/svg" xmlns:xlink="http://www.w3.org/1999/xlink">
    <!-- Generator: Sketch 57.1 (83088) - https://sketch.com -->
    <title>nut-icon</title>
    <desc>Created with Sketch.</desc>
    <g id="Page-1" stroke="none" stroke-width="1" fill="none" fill-rule="evenodd">
        <g id="Buttons-Copy" transform="translate(-86.000000, -232.000000)" fill="#B7BECC" fill-rule="nonzero">
            <g id="nut-icon" transform="translate(86.000000, 232.000000)">
                <path d="M23.5154908,9.95105107 L20.6243942,9.40897047 C20.4486648,8.82419854 20.2183302,8.26325432 19.932894,7.73556963 L21.6057984,5.28975358 C21.7606786,5.06339025 21.7284119,4.72285244 21.5343152,4.52925222 L19.4717283,2.4661689 C19.2776317,2.27207227 18.9375903,2.24079839 18.7122198,2.39518215 L16.2649145,4.0690794 C15.7218411,3.77619702 15.1435225,3.54139471 14.5403834,3.36417605 L14.0012812,0.487971825 C13.9506473,0.218420756 13.6885424,0 13.4135308,0 L10.4966209,0 C10.2221057,0 9.95950441,0.218420756 9.9083741,0.487971825 L9.36331503,3.39247147 C8.78499644,3.56919372 8.23050557,3.79952833 7.7082814,4.08347531 L5.2927464,2.43092373 C5.06638307,2.27604356 4.72584526,2.30781385 4.53224504,2.50191048 L2.46916172,4.5649938 C2.27506509,4.75909042 2.24379121,5.09913183 2.39817497,5.32549516 L4.06115118,7.75592248 C3.78117549,8.27814665 3.55431575,8.83214111 3.38057197,9.40946688 L0.489475414,9.95105107 C0.220420756,10.0021814 0.002,10.2647827 0.002,10.5392979 L0.002,13.4562078 C0.002,13.730723 0.220420756,13.9933243 0.489475414,14.044951 L3.37858632,14.5865352 C3.55481216,15.1762712 3.78713242,15.7421796 4.07405787,16.2738355 L2.42994527,18.6774567 C2.27506509,18.90382 2.30683539,19.2443578 2.50093201,19.4374616 L4.56351892,21.5000485 C4.75761555,21.6946416 5.09765695,21.725419 5.32402028,21.5720281 L7.7266486,19.9274191 C8.24341225,20.2068984 8.79194619,20.4342545 9.36430786,20.609984 L9.90887051,23.5154764 C9.96000083,23.7850275 10.2226021,24.0024554 10.4971173,24.0024554 L13.4145236,24.0024554 C13.6895352,24.0024554 13.9511437,23.7850275 14.0027705,23.5154764 L14.542369,20.6387758 C15.138062,20.4630464 15.71092,20.2312225 16.2490294,19.9433042 L18.6819387,21.6082661 C18.9083021,21.7631463 19.2488399,21.731376 19.4424401,21.5362865 L21.5040342,19.4746924 C21.6991236,19.2800994 21.7299011,18.9410508 21.5760138,18.7141911 L19.9204837,16.2951812 C20.2128697,15.7570719 20.447672,15.1847102 20.6268763,14.587528 L23.5154908,14.0459438 C23.784049,13.9943171 24.0019868,13.7317158 24.0019868,13.4572006 L24.0019868,10.5402907 C24.003959,10.2647827 23.7850419,10.0021814 23.5154908,9.95105107 Z M12.0032277,17.0075307 C9.23921233,17.0075307 6.99791753,14.7662359 6.99791753,12.0007313 C6.99791753,9.23721233 9.23921233,6.99542112 12.0032277,6.99542112 C14.7682359,6.99542112 17.0100271,9.23721233 17.0100271,12.0007313 C17.0100271,14.7662359 14.7672431,17.0075307 12.0032277,17.0075307 Z" id="Shape"></path>
            </g>
        </g>
    </g>
</svg>