<?xml version="1.0" encoding="UTF-8"?>
<svg width="25px" height="25px" viewBox="0 0 25 25" version="1.1" xmlns="http://www.w3.org/2000/svg" xmlns:xlink="http://www.w3.org/1999/xlink">
    <!-- Generator: Sketch 55.1 (78136) - https://sketchapp.com -->
    <title>Group 11</title>
    <desc>Created with Sketch.</desc>
    <g id="Page-1" stroke="none" stroke-width="1" fill="none" fill-rule="evenodd">
        <g id="Buttons-Copy" transform="translate(-546.000000, -593.000000)" fill="#2882BE" fill-rule="nonzero">
            <g id="Group-11" transform="translate(546.000000, 593.000000)">
                <path d="M12.5,0 C5.56273474,0 0,5.62505869 0,12.5 C0,19.3749413 5.56273474,25 12.5,25 C19.4372653,25 25,19.3749413 25,12.5 C25,5.62505869 19.3749413,0 12.5,0 Z M12.5,22.5 C7.00011737,22.5 2.5,17.9998239 2.5,12.5 C2.5,7.00017606 7.00011737,2.5 12.5,2.5 C17.9998826,2.5 22.5,7.00011737 22.5,12.5 C22.5,17.9998826 17.9998826,22.5 12.5,22.5 Z" id="Shape"></path>
                <polygon id="Path" points="13 5 11 5 11 13.9722099 18 18 19 16.4016229 13 13.0131236"></polygon>
            </g>
        </g>
    </g>
</svg>