<?xml version="1.0" encoding="UTF-8"?>
<svg width="30px" height="28px" viewBox="0 0 30 28" version="1.1" xmlns="http://www.w3.org/2000/svg" xmlns:xlink="http://www.w3.org/1999/xlink">
    <!-- Generator: Sketch 55.1 (78136) - https://sketchapp.com -->
    <title>Group 8</title>
    <desc>Created with Sketch.</desc>
    <g id="Page-1" stroke="none" stroke-width="1" fill="none" fill-rule="evenodd">
        <g id="Buttons-Copy" transform="translate(-514.000000, -506.000000)" fill="#2882BE">
            <g id="Group-8" transform="translate(514.000000, 506.000000)">
                <path d="M20.2999327,1.81250508 L20.2999327,1.66672163 L6.70006727,1.66672163 L6.70006727,5 L5,5 L5,1.66672163 C5,0.747158654 5.76216291,0 6.70006727,0 L20.2999327,0 C20.9146089,0 21.4524771,0.31961348 21.7510675,0.798035034 C21.2242167,1.07459701 20.7369349,1.41632391 20.2999327,1.81250508 Z" id="Combined-Shape" fill-rule="nonzero"></path>
                <path d="M28,13.3263688 L28,17.4999423 C28,18.4673406 27.2173219,19.2500192 26.2502128,19.2500192 L22.750119,19.2500192 L22.750119,26.2499808 C22.750119,27.2173791 21.9674987,28 21.0000433,28 L7.00012984,28 C6.03457877,28 5.2500541,27.2173791 5.2500541,26.2499808 L5.2500541,19.2500192 L1.75007574,19.2500192 C0.784524671,19.2500192 -4.97379915e-14,18.4673406 -4.97379915e-14,17.4999423 L-4.97379915e-14,8.74990382 C-4.97379915e-14,7.78429438 0.784582378,7 1.75007574,7 L18,7 C18,10.8659932 21.1340068,14 25,14 C26.0735973,14 27.0907446,13.758309 28,13.3263688 Z M20.9999856,26.2499808 L20.9999856,13.9999615 L7.00007213,13.9999615 L7.00007213,26.2499808 L20.9999856,26.2499808 Z" id="Combined-Shape" fill-rule="nonzero"></path>
                <rect id="Rectangle" fill-rule="nonzero" x="9" y="16" width="7" height="2"></rect>
                <rect id="Rectangle" fill-rule="nonzero" x="9" y="19" width="10" height="2"></rect>
                <rect id="Rectangle" fill-rule="nonzero" x="9" y="23" width="10" height="2"></rect>
                <path d="M25,12 C22.2385763,12 20,9.76142375 20,7 C20,4.23857625 22.2385763,2 25,2 C27.7614237,2 30,4.23857625 30,7 C30,9.76142375 27.7614237,12 25,12 Z M22,5 L24,7 L22,9 L23,10 L25,8 L27,10 L28,9 L26,7 L28,5 L27,4 L25,6 L23,4 L22,5 Z" id="Combined-Shape"></path>
            </g>
        </g>
    </g>
</svg>