<?xml version="1.0" encoding="UTF-8"?>
<svg width="24px" height="15px" viewBox="0 0 24 15" version="1.1" xmlns="http://www.w3.org/2000/svg" xmlns:xlink="http://www.w3.org/1999/xlink">
    <!-- Generator: Sketch 58 (84663) - https://sketch.com -->
    <title>Group 26</title>
    <desc>Created with Sketch.</desc>
    <g id="Page-1" stroke="none" stroke-width="1" fill="none" fill-rule="evenodd">
        <g id="Buttons-Copy" transform="translate(-354.000000, -845.000000)" fill="#626D80">
            <g id="Group-26" transform="translate(354.000000, 845.000000)">
                <path d="M1.5,0 L22.5,0 C23.3284271,-1.52179594e-16 24,0.671572875 24,1.5 C24,2.32842712 23.3284271,3 22.5,3 L1.5,3 C0.671572875,3 1.01453063e-16,2.32842712 0,1.5 C-1.01453063e-16,0.671572875 0.671572875,1.52179594e-16 1.5,0 Z" id="Rectangle"></path>
                <path d="M6.5,6 L17.5,6 C18.3284271,6 19,6.67157288 19,7.5 C19,8.32842712 18.3284271,9 17.5,9 L6.5,9 C5.67157288,9 5,8.32842712 5,7.5 C5,6.67157288 5.67157288,6 6.5,6 Z" id="Rectangle"></path>
                <path d="M10.5,12 L13.5,12 C14.3284271,12 15,12.6715729 15,13.5 C15,14.3284271 14.3284271,15 13.5,15 L10.5,15 C9.67157288,15 9,14.3284271 9,13.5 C9,12.6715729 9.67157288,12 10.5,12 Z" id="Rectangle-Copy"></path>
            </g>
        </g>
    </g>
</svg>