<?xml version="1.0" encoding="utf-8"?>
<!-- Generator: Adobe Illustrator 21.1.0, SVG Export Plug-In . SVG Version: 6.00 Build 0)  -->
<svg version="1.1" id="Capa_1" xmlns="http://www.w3.org/2000/svg" xmlns:xlink="http://www.w3.org/1999/xlink" x="0px" y="0px"
	 viewBox="0 0 626 750.6" style="enable-background:new 0 0 626 750.6;" xml:space="preserve">
<style type="text/css">
	.st0{fill:#348AC4;}
</style>
<g>
	<g id="Shape_010_copy">
		<g>
			<path class="st0" d="M618.1,144.6c0,0-62.3-4.2-94.9-35.6c-34.1-32.8-38.5-92.9-38.5-92.9S400,0,313.8,0
				c-84.7,0-170.9,16.1-170.9,16.1s-5.7,60.4-38.1,91.6c-34.3,33.1-95.3,36.9-95.3,36.9S3,262.3,12.3,364.5
				c9.2,100.5,32.8,200,120.2,275.3C204,701.4,311,750.6,311,750.6s84-38.6,144.8-80.7c66.9-46.3,129.7-109.7,149-230.2
				C625.2,312.2,618.1,144.6,618.1,144.6z M431.3,619.2c-40.4,28-93.2,54.1-112.4,63.3V372.8H64.7c-0.2-2.1-0.4-4.3-0.6-6.4
				c-7.7-84.6-2.3-182.1-2.3-182.1s50.5-3.2,78.9-30.6c26.8-25.8,31.5-75.8,31.5-75.8s71.4-13.3,141.5-13.3c1.7,0,3.4,0,5.2,0v308.2
				l242.5,0.4c-1.7,18.8-3.9,37.6-6.7,55.3C538.7,528.4,486.7,580.8,431.3,619.2z"/>
		</g>
	</g>
</g>
</svg>
