<?xml version="1.0" encoding="utf-8"?>
<!-- Generator: Adobe Illustrator 23.0.3, SVG Export Plug-In . SVG Version: 6.00 Build 0)  -->
<svg version="1.1" id="Layer_1" xmlns="http://www.w3.org/2000/svg" xmlns:xlink="http://www.w3.org/1999/xlink" x="0px" y="0px"
	 viewBox="0 0 74.5 88.4" style="enable-background:new 0 0 74.5 88.4;" xml:space="preserve">
<style type="text/css">
	.st0{fill:#330000;}
	.st1{fill:none;}
	.st2{fill:url(#SVGID_1_);}
	.st3{fill:#C86E14;}
	.st4{fill:url(#SVGID_2_);}
	.st5{fill:url(#SVGID_3_);}
	.st6{fill:url(#SVGID_4_);}
	.st7{fill:url(#SVGID_5_);}
	.st8{fill:url(#SVGID_6_);}
	.st9{fill:url(#SVGID_7_);}
	.st10{fill:url(#SVGID_8_);}
	.st11{fill:url(#SVGID_9_);}
	.st12{fill:url(#SVGID_10_);}
	.st13{fill:url(#SVGID_11_);}
	.st14{fill:url(#SVGID_12_);}
	.st15{fill:url(#SVGID_13_);}
	.st16{fill:url(#SVGID_14_);}
	.st17{fill:url(#SVGID_15_);}
	.st18{fill:url(#SVGID_16_);}
	.st19{fill:url(#SVGID_17_);}
	.st20{fill:url(#SVGID_18_);}
	.st21{fill:url(#SVGID_19_);}
	.st22{fill:url(#SVGID_20_);}
	.st23{fill:#8D4A02;}
	.st24{fill:url(#SVGID_21_);}
	.st25{fill:url(#SVGID_22_);}
	.st26{fill:url(#SVGID_23_);}
	.st27{fill:url(#SVGID_24_);}
	.st28{fill:#FCB813;}
	.st29{fill:#CB7A17;}
	.st30{fill:#975006;}
	.st31{fill:#D99814;}
	.st32{fill:#B76E11;}
	.st33{fill:#D89016;}
	.st34{fill:url(#SVGID_25_);}
	.st35{fill:url(#SVGID_26_);}
	.st36{fill:url(#SVGID_27_);}
	.st37{fill:url(#SVGID_28_);}
	.st38{fill:#C07414;}
</style>
<path class="st0" d="M37.2,0C22.6,0,10.6,2.8,0,8.4v43.4c0,9.3,3.5,17,10.1,22.4c6,4.9,25,13.2,27.1,14.2
	c2.2-0.9,21.2-9.3,27.2-14.2c6.6-5.4,10.1-13.2,10.1-22.4V8.4C63.9,2.8,51.8,0,37.2,0z"/>
<path class="st1" d="M30.8,7c0.3,0.2,0.6,0.3,1,0.3c0.5,0,0.8-0.3,0.8-0.7S32.4,6,31.9,5.8s-1.1-0.5-1.1-1.2c0-0.7,0.6-1.2,1.2-1.1
	c0,0,0.1,0,0.1,0c0.3,0,0.6,0.1,0.9,0.2l-0.2,0.4c-0.2-0.1-0.5-0.2-0.8-0.2c-0.6,0-0.8,0.3-0.8,0.6s0.3,0.6,0.8,0.8s1,0.6,1,1.2
	s-0.4,1.2-1.3,1.2c-0.4,0-0.7-0.1-1-0.3L30.8,7z M33.8,5.5c0-0.3,0-0.5,0-0.8h0.5v0.5l0,0c0.2-0.3,0.5-0.6,0.9-0.5
	c0.4,0,0.7,0.2,0.8,0.6l0,0c0.1-0.2,0.2-0.3,0.3-0.4c0.2-0.1,0.4-0.2,0.7-0.2c0.4,0,1,0.3,1,1.3v1.7h-0.5V6c0-0.6-0.2-0.9-0.6-0.9
	c-0.3,0-0.5,0.2-0.6,0.5c0,0.1,0,0.2,0,0.3v1.8h-0.5V5.9c0-0.5-0.2-0.8-0.6-0.8c-0.3,0-0.6,0.2-0.7,0.5c0,0.1,0,0.2,0,0.3v1.8h-0.5
	V5.5z M40.5,7.6V7.3l0,0c-0.2,0.3-0.5,0.4-0.9,0.4c-0.5,0-0.9-0.3-0.9-0.8c0,0,0,0,0-0.1c0-0.7,0.6-1.1,1.8-1.1V5.7
	c0-0.3-0.2-0.6-0.5-0.7c0,0-0.1,0-0.1,0c-0.3,0-0.5,0.1-0.8,0.2L39,4.9c0.3-0.2,0.6-0.3,1-0.3c0.9,0,1.1,0.6,1.1,1.2v1.1
	c0,0.2,0,0.5,0,0.7H40.5z M40.5,6.1c-0.6,0-1.2,0.1-1.2,0.7c0,0.3,0.2,0.5,0.4,0.5c0,0,0,0,0.1,0c0.3,0,0.6-0.2,0.7-0.5
	c0-0.1,0-0.1,0-0.2L40.5,6.1z M41.8,3.3h0.5v4.3h-0.5V3.3z M43.3,3.3h0.5v4.3h-0.5V3.3z"/>
<radialGradient id="SVGID_1_" cx="7614.8916" cy="881.9554" r="232.39" gradientTransform="matrix(0 0.52 0.26 0 -217.2846 -3955.9299)" gradientUnits="userSpaceOnUse">
	<stop  offset="0" style="stop-color:#FFDC00"/>
	<stop  offset="0.35" style="stop-color:#FFBE00"/>
	<stop  offset="1" style="stop-color:#C86E14"/>
</radialGradient>
<path class="st2" d="M37.2,87.6c2.2-0.9,20.8-9.1,26.7-13.9c6.4-5.3,9.8-12.8,9.8-21.8v-43C63.6,3.5,51.3,0.8,37.3,0.8
	S10.9,3.5,0.8,8.9v43c0,9,3.4,16.6,9.8,21.8C16.4,78.5,35.1,86.7,37.2,87.6z"/>
<path class="st3" d="M60.5,82.7v3.7h0.7v-1.6h0.1l1,1.6h0.8c0,0-1-1.5-1.1-1.6c0.5-0.1,0.8-0.5,0.8-1c0-0.6-0.5-1.1-1.1-1.1
	c-0.1,0-0.1,0-0.2,0L60.5,82.7z M61.5,83.2c0.6,0,0.7,0.3,0.7,0.5s-0.2,0.6-0.9,0.6h-0.1v-1.1L61.5,83.2z M64.2,84.6
	c0,1.4-1.1,2.5-2.5,2.5s-2.5-1.1-2.5-2.5c0-1.4,1.1-2.5,2.5-2.5C63,82,64.2,83.2,64.2,84.6 M61.6,81.5c-1.7,0-3.1,1.4-3.1,3.1
	s1.4,3.1,3.1,3.1s3.1-1.4,3.1-3.1l0,0C64.7,82.9,63.3,81.5,61.6,81.5"/>
<radialGradient id="SVGID_2_" cx="-164.6973" cy="885.8309" r="137.07" gradientTransform="matrix(5.388446e-17 0.88 0.44 -2.694223e-17 -377.6324 160.38)" gradientUnits="userSpaceOnUse">
	<stop  offset="0" style="stop-color:#5C3333"/>
	<stop  offset="0.35" style="stop-color:#471919"/>
	<stop  offset="0.85" style="stop-color:#330000"/>
</radialGradient>
<path class="st4" d="M4.1,27.2C19.8,12.9,38.8,9.1,56.4,9.1c4.8,0,9.4,0.3,14,0.7v42c0,8.1-2.9,14.6-8.6,19.3
	c-5.1,4.1-20.3,11-24.6,12.9c-4.3-1.9-19.6-8.8-24.5-12.9c-5.6-4.6-8.6-11.3-8.6-19.3L4.1,27.2z M7.4,49.2c0,6.7,3.2,10.1,9.5,10.1
	c3.4,0.1,6.7-0.8,9.6-2.5V29.3H20v23.9c-0.9,0.6-1.9,0.8-3,0.8c-2.9,0-3.3-2.7-3.3-4.5V29.3H7.4V49.2 M36,58.9
	c0.9,0.3,1.9,0.4,2.8,0.4c7,0,11.1-6.3,11.1-15.6s-4.2-15-11.7-15c-3-0.1-6,0.7-8.5,2.3v41.4H36L36,58.9z M36,53.7
	c0.7,0.2,1.4,0.4,2.1,0.4c3.7,0,5.4-3.3,5.4-10.3c0-7.1-1.5-10-5.2-10c-0.8,0-1.5,0.1-2.3,0.5V53.7z M51.4,36.9c0,3.4,0.9,5.9,6.2,9
	c2.8,1.6,3.9,2.7,4,4.7c0,2.2-1.5,3.5-3.8,3.5c-2.3-0.2-4.4-1.1-6.1-2.6v5.8c2.1,1.3,4.5,2,7,2c6.3,0,9.1-4.4,9.2-8.5
	c0.1-3.7-0.9-6.5-6.2-9.6c-2.4-1.4-4.2-2.3-4.2-4.6s1.9-3,3.7-3c2.1,0.1,4.1,1,5.6,2.5v-5.5c-2-1.5-4.5-2.2-7-2.1
	C55.7,28.8,51.3,31.8,51.4,36.9"/>
<radialGradient id="SVGID_3_" cx="3.9254" cy="543.6423" r="124.08" gradientTransform="matrix(0 0.97 0.68 0 -357.6828 11.9325)" gradientUnits="userSpaceOnUse">
	<stop  offset="0" style="stop-color:#FFDC00"/>
	<stop  offset="0.35" style="stop-color:#FFBE00"/>
	<stop  offset="1" style="stop-color:#C86E14"/>
</radialGradient>
<path class="st5" d="M61.5,50.6c0-2-1.2-3.1-4-4.7c-5.2-3.1-6.2-5.6-6.2-9c0-5.1,4.3-8.2,8.5-8.3c2.5-0.1,5,0.6,7,2.1v5.5
	c-1.5-1.6-3.5-2.5-5.7-2.6c-1.8,0-3.7,0.8-3.7,3s1.8,3.2,4.2,4.6c5.3,3.1,6.3,5.9,6.2,9.6c-0.1,4.1-2.9,8.5-9.2,8.5
	c-2.5,0-4.9-0.7-7-2v-5.7c1.7,1.5,3.8,2.5,6.1,2.6C60,54.2,61.6,52.8,61.5,50.6z M26.4,29.3H20v23.9c-0.9,0.6-1.9,0.8-3,0.8
	c-2.9,0-3.3-2.7-3.3-4.5V29.3H7.4v20c0,6.7,3.2,10.1,9.5,10.1c3.4,0.1,6.7-0.8,9.6-2.5V29.3z M36,58.9v13.4h-6.4V30.9
	c2.6-1.6,5.5-2.4,8.5-2.3c7.6,0,11.7,5.7,11.7,15s-4,15.6-11.1,15.6C37.9,59.3,36.9,59.2,36,58.9z M36,53.7c0.7,0.2,1.4,0.4,2.1,0.4
	c3.7,0,5.4-3.3,5.4-10.3c0-7.1-1.5-10-5.2-10c-0.8,0-1.5,0.1-2.3,0.5L36,53.7z"/>
<linearGradient id="SVGID_4_" gradientUnits="userSpaceOnUse" x1="34.646" y1="3.7938" x2="1.4523" y2="35.8478" gradientTransform="matrix(1 0 0 -1 0 90.42)">
	<stop  offset="0" style="stop-color:#B76E11"/>
	<stop  offset="0.16" style="stop-color:#C27514"/>
	<stop  offset="0.38" style="stop-color:#C97916"/>
	<stop  offset="1" style="stop-color:#CB7A17"/>
</linearGradient>
<path class="st6" d="M4.1,51.8c0,8,3,14.7,8.6,19.3c5,4,20.2,11,24.5,12.9v-0.5C33.7,81.9,18,74.8,13,70.7c-5.5-4.5-8.4-11-8.4-18.9
	H4.1z"/>
<linearGradient id="SVGID_5_" gradientUnits="userSpaceOnUse" x1="39.8211" y1="3.808" x2="72.9893" y2="35.847" gradientTransform="matrix(1 0 0 -1 0 90.42)">
	<stop  offset="0" style="stop-color:#FFC10E"/>
	<stop  offset="1" style="stop-color:#D99814"/>
</linearGradient>
<path class="st7" d="M37.2,83.9c4.3-1.9,19.5-8.7,24.5-12.9c5.7-4.7,8.6-11.2,8.6-19.3h-0.4c0,7.9-2.8,14.3-8.4,18.9
	c-4.9,4-19.6,10.6-24.3,12.7L37.2,83.9z"/>
<linearGradient id="SVGID_6_" gradientUnits="userSpaceOnUse" x1="4.1409" y1="63.0812" x2="68.7074" y2="85.5674" gradientTransform="matrix(1 0 0 -1 0 90.42)">
	<stop  offset="0" style="stop-color:#E39F15"/>
	<stop  offset="0.97" style="stop-color:#8D4A02"/>
</linearGradient>
<path class="st8" d="M69.9,10.2c-4.8-0.4-9.3-0.7-13.5-0.7c-21.7,0-38.7,5.8-51.8,17.9l-0.5-0.2C19.8,12.9,38.8,9.1,56.4,9.1
	c4.8,0,9.4,0.3,14,0.7L69.9,10.2z"/>
<linearGradient id="SVGID_7_" gradientUnits="userSpaceOnUse" x1="39.0702" y1="35.7869" x2="44.2905" y2="46.1673" gradientTransform="matrix(1 0 0 -1 0 90.42)">
	<stop  offset="5.000000e-02" style="stop-color:#FFD300"/>
	<stop  offset="0.95" style="stop-color:#B76E11"/>
</linearGradient>
<path class="st9" d="M38,54.1c3.7,0,5.4-3.3,5.4-10.3H43c0,5.6-1.1,9.8-4.9,9.8V54.1z"/>
<linearGradient id="SVGID_8_" gradientUnits="userSpaceOnUse" x1="38.0787" y1="36.53" x2="35.9987" y2="36.79" gradientTransform="matrix(1 0 0 -1 0 90.42)">
	<stop  offset="5.000000e-02" style="stop-color:#FFD300"/>
	<stop  offset="0.95" style="stop-color:#EFAF13"/>
</linearGradient>
<path class="st10" d="M38,53.7c-0.5,0-1.1-0.1-1.6-0.3L36,53.7c0.7,0.2,1.4,0.4,2.1,0.4V53.7z"/>
<linearGradient id="SVGID_9_" gradientUnits="userSpaceOnUse" x1="36.0492" y1="55.9432" x2="38.2692" y2="56.5233" gradientTransform="matrix(1 0 0 -1 0 90.42)">
	<stop  offset="5.000000e-02" style="stop-color:#A15C0A"/>
	<stop  offset="0.95" style="stop-color:#8D4A02"/>
</linearGradient>
<path class="st11" d="M36.4,34.5c0.6-0.2,1.2-0.3,1.8-0.3v-0.5c-0.8,0-1.5,0.1-2.3,0.5L36.4,34.5z"/>
<linearGradient id="SVGID_10_" gradientUnits="userSpaceOnUse" x1="44.3305" y1="47.0403" x2="39.2105" y2="57.1403" gradientTransform="matrix(1 0 0 -1 0 90.42)">
	<stop  offset="5.000000e-02" style="stop-color:#B76E11"/>
	<stop  offset="0.95" style="stop-color:#8D4A02"/>
</linearGradient>
<path class="st12" d="M43,43.8c0-6.1-1-9.6-4.8-9.6v-0.5c3.7,0,5.2,2.9,5.2,10L43,43.8z"/>
<linearGradient id="SVGID_11_" gradientUnits="userSpaceOnUse" x1="59.36" y1="62.7789" x2="50.08" y2="54.3989" gradientTransform="matrix(1 0 0 -1 0 90.42)">
	<stop  offset="5.000000e-02" style="stop-color:#FFCA05"/>
	<stop  offset="0.95" style="stop-color:#C07414"/>
</linearGradient>
<path class="st13" d="M50.9,36.9c0-5.2,4.3-8.6,9-8.7v0.5c-4.2,0.1-8.5,3.1-8.5,8.3H50.9z"/>
<linearGradient id="SVGID_12_" gradientUnits="userSpaceOnUse" x1="57.241" y1="53.9604" x2="60.871" y2="57.1204" gradientTransform="matrix(1 0 0 -1 0 90.42)">
	<stop  offset="5.000000e-02" style="stop-color:#A2610A"/>
	<stop  offset="0.95" style="stop-color:#8D4A02"/>
</linearGradient>
<path class="st14" d="M61.2,33.6c-1.8,0-3.7,0.8-3.7,3h0.5c0-0.6,0.3-2.6,3.2-2.6L61.2,33.6z"/>
<linearGradient id="SVGID_13_" gradientUnits="userSpaceOnUse" x1="67.6065" y1="53.6317" x2="61.2476" y2="56.9412" gradientTransform="matrix(1 0 0 -1 0 90.42)">
	<stop  offset="0" style="stop-color:#E29618"/>
	<stop  offset="0.95" style="stop-color:#8D4A02"/>
</linearGradient>
<path class="st15" d="M66.8,36.2c-1.5-1.6-3.5-2.5-5.7-2.6L61.1,34c2.4,0.2,4.7,1.4,6.2,3.3L66.8,36.2z"/>
<linearGradient id="SVGID_14_" gradientUnits="userSpaceOnUse" x1="59.9201" y1="62.3502" x2="67.3201" y2="59.9602" gradientTransform="matrix(1 0 0 -1 0 90.42)">
	<stop  offset="5.000000e-02" style="stop-color:#FFCA05"/>
	<stop  offset="0.95" style="stop-color:#EC9D00"/>
</linearGradient>
<path class="st16" d="M67.3,30.5l-0.5,0.2c-2-1.5-4.5-2.2-7-2.1v-0.5C62.5,28.1,65.2,28.9,67.3,30.5z"/>
<linearGradient id="SVGID_15_" gradientUnits="userSpaceOnUse" x1="68.9578" y1="38.7973" x2="59.5701" y2="29.6095" gradientTransform="matrix(1 0 0 -1 0 90.42)">
	<stop  offset="5.000000e-02" style="stop-color:#975006"/>
	<stop  offset="0.95" style="stop-color:#8D4A02"/>
</linearGradient>
<path class="st17" d="M67.8,50.9c-0.1,4.1-2.9,8.5-9.2,8.5v0.5c5.8,0,9.5-3.8,9.6-8.9L67.8,50.9z"/>
<linearGradient id="SVGID_16_" gradientUnits="userSpaceOnUse" x1="51.1645" y1="32.6508" x2="58.6045" y2="30.5108" gradientTransform="matrix(1 0 0 -1 0 90.42)">
	<stop  offset="0" style="stop-color:#975006"/>
	<stop  offset="0.95" style="stop-color:#8D4A02"/>
</linearGradient>
<path class="st18" d="M51.7,57.4c2.1,1.3,4.5,2,7,2v0.5c-2.6,0-5.2-0.8-7.4-2.2L51.7,57.4z"/>
<linearGradient id="SVGID_17_" gradientUnits="userSpaceOnUse" x1="57.6442" y1="36.108" x2="50.9442" y2="39.358" gradientTransform="matrix(1 0 0 -1 0 90.42)">
	<stop  offset="5.000000e-02" style="stop-color:#FFD300"/>
	<stop  offset="1" style="stop-color:#EFAF13"/>
</linearGradient>
<path class="st19" d="M57.8,54.2c-2.3-0.2-4.4-1.1-6.1-2.6l-0.5-1c1.7,1.8,4,2.9,6.5,3.1V54.2z"/>
<linearGradient id="SVGID_18_" gradientUnits="userSpaceOnUse" x1="58.0254" y1="35.9233" x2="61.8454" y2="39.4333" gradientTransform="matrix(1 0 0 -1 0 90.42)">
	<stop  offset="5.000000e-02" style="stop-color:#FFD300"/>
	<stop  offset="0.95" style="stop-color:#E5A812"/>
</linearGradient>
<path class="st20" d="M61.5,50.6c0.1,2.2-1.5,3.6-3.8,3.6v-0.5c2,0,3.4-1,3.3-3.1L61.5,50.6z"/>
<linearGradient id="SVGID_19_" gradientUnits="userSpaceOnUse" x1="50.8268" y1="53.4153" x2="60.6868" y2="39.2153" gradientTransform="matrix(1 0 0 -1 0 90.42)">
	<stop  offset="0" style="stop-color:#C07414"/>
	<stop  offset="0.4" style="stop-color:#A15C0A"/>
	<stop  offset="0.6" style="stop-color:#A15C0A"/>
	<stop  offset="1" style="stop-color:#E5A812"/>
</linearGradient>
<path class="st21" d="M61.1,50.6c0-1.7-0.9-2.7-3.7-4.3c-5.3-3.1-6.4-5.8-6.4-9.4h0.4c0,3.4,0.9,5.9,6.2,9c2.8,1.6,3.9,2.7,4,4.7
	L61.1,50.6z"/>
<linearGradient id="SVGID_20_" gradientUnits="userSpaceOnUse" x1="58.1845" y1="54.3123" x2="68.7486" y2="39.8803" gradientTransform="matrix(1 0 0 -1 0 90.42)">
	<stop  offset="0" style="stop-color:#A2610A"/>
	<stop  offset="0.4" style="stop-color:#F1B70F"/>
	<stop  offset="0.6" style="stop-color:#F1B70F"/>
	<stop  offset="0.95" style="stop-color:#975006"/>
</linearGradient>
<path class="st22" d="M61.8,40.9c5.5,3.3,6.6,6.2,6.4,10h-0.4c0.1-3.7-0.9-6.5-6.2-9.6c-2.4-1.4-4.2-2.3-4.2-4.6h0.5
	C57.8,38.8,59.6,39.5,61.8,40.9"/>
<polygon class="st23" points="36,72.3 29.6,72.3 29.2,72.8 36.4,72.8 "/>
<linearGradient id="SVGID_21_" gradientUnits="userSpaceOnUse" x1="35.9492" y1="31.2746" x2="38.8692" y2="30.8246" gradientTransform="matrix(1 0 0 -1 0 90.42)">
	<stop  offset="5.000000e-02" style="stop-color:#975006"/>
	<stop  offset="0.95" style="stop-color:#8D4A02"/>
</linearGradient>
<path class="st24" d="M38.8,59.7c-0.8,0-1.6-0.1-2.4-0.2L36,58.9c0.9,0.3,1.9,0.4,2.8,0.4L38.8,59.7z"/>
<linearGradient id="SVGID_22_" gradientUnits="userSpaceOnUse" x1="51.9869" y1="45.6074" x2="40.4709" y2="29.513" gradientTransform="matrix(1 0 0 -1 0 90.42)">
	<stop  offset="5.000000e-02" style="stop-color:#A15C00"/>
	<stop  offset="0.95" style="stop-color:#8D4A02"/>
</linearGradient>
<path class="st25" d="M50.4,43.7c0,8.3-3.4,16.1-11.5,16.1v-0.4c7,0,11.1-6.3,11.1-15.6L50.4,43.7z"/>
<linearGradient id="SVGID_23_" gradientUnits="userSpaceOnUse" x1="38.1701" y1="62.2897" x2="29.136" y2="59.9513" gradientTransform="matrix(1 0 0 -1 0 90.42)">
	<stop  offset="5.000000e-02" style="stop-color:#FFD000"/>
	<stop  offset="0.95" style="stop-color:#EC9D19"/>
</linearGradient>
<path class="st26" d="M29.2,30.7c2.7-1.7,5.8-2.6,9-2.5v0.5c-3-0.1-6,0.7-8.5,2.3L29.2,30.7z"/>
<linearGradient id="SVGID_24_" gradientUnits="userSpaceOnUse" x1="39.8585" y1="63.5179" x2="52.0081" y2="48.0184" gradientTransform="matrix(1 0 0 -1 0 90.42)">
	<stop  offset="5.000000e-02" style="stop-color:#FFD000"/>
	<stop  offset="0.5" style="stop-color:#DC8C00"/>
	<stop  offset="0.95" style="stop-color:#A85C00"/>
</linearGradient>
<path class="st27" d="M38.2,28.2c8.8,0,12.2,7.3,12.2,15.5h-0.5c0-9.3-4.2-15-11.7-15L38.2,28.2z"/>
<path class="st28" d="M13.8,29.3H7.4l-0.5-0.5h7.3L13.8,29.3z M26.4,29.3H20l-0.5-0.5h7.3L26.4,29.3z"/>
<polygon class="st29" points="4.1,51.8 4.1,27.3 4.6,27.5 4.6,51.8 "/>
<polygon class="st30" points="67.3,37.4 67.3,30.5 66.8,30.7 66.8,36.3 "/>
<polygon class="st29" points="14.2,49.5 14.2,28.8 13.7,29.3 13.7,49.5 "/>
<polygon class="st31" points="69.9,51.8 69.9,10.2 70.4,9.8 70.4,51.8 "/>
<polygon class="st32" points="51.2,50.6 51.2,57.7 51.7,57.4 51.7,51.6 "/>
<polygon class="st33" points="20,53.2 20,29.3 19.6,28.8 19.6,53 "/>
<polygon class="st33" points="7.4,49.3 7.4,29.3 6.9,28.8 6.9,49.3 "/>
<linearGradient id="SVGID_25_" gradientUnits="userSpaceOnUse" x1="5.7361" y1="40.0782" x2="15.6147" y2="29.4498" gradientTransform="matrix(1 0 0 -1 0 90.42)">
	<stop  offset="5.000000e-02" style="stop-color:#D89016"/>
	<stop  offset="0.95" style="stop-color:#8D4A02"/>
</linearGradient>
<path class="st34" d="M16.8,59.8c-6.8,0-9.9-3.9-9.9-10.6h0.5c0,6.7,3.2,10.1,9.5,10.1V59.8z"/>
<linearGradient id="SVGID_26_" gradientUnits="userSpaceOnUse" x1="26.9068" y1="33.0724" x2="16.8468" y2="30.4624" gradientTransform="matrix(1 0 0 -1 0 90.42)">
	<stop  offset="5.000000e-02" style="stop-color:#A15C0A"/>
	<stop  offset="0.95" style="stop-color:#8D4A02"/>
</linearGradient>
<path class="st35" d="M26.8,57.1c-3,1.9-6.5,2.9-10,2.8v-0.5c3.4,0.1,6.7-0.8,9.6-2.5L26.8,57.1z"/>
<linearGradient id="SVGID_27_" gradientUnits="userSpaceOnUse" x1="17.0119" y1="36.5264" x2="20.0319" y2="37.2564" gradientTransform="matrix(1 0 0 -1 0 90.42)">
	<stop  offset="5.000000e-02" style="stop-color:#FFD300"/>
	<stop  offset="0.95" style="stop-color:#FFC10E"/>
</linearGradient>
<path class="st36" d="M17,53.5c0.9,0,1.8-0.2,2.5-0.6l0.5,0.3c-0.9,0.6-1.9,0.8-3,0.8V53.5z"/>
<linearGradient id="SVGID_28_" gradientUnits="userSpaceOnUse" x1="16.6171" y1="36.1015" x2="13.3288" y2="40.6092" gradientTransform="matrix(1 0 0 -1 0 90.42)">
	<stop  offset="5.000000e-02" style="stop-color:#FFD300"/>
	<stop  offset="0.95" style="stop-color:#CB7A17"/>
</linearGradient>
<path class="st37" d="M17,54c-2.9,0-3.3-2.7-3.3-4.5h0.5c0,2.2,0.7,4,2.9,4V54z"/>
<polygon class="st29" points="29.2,30.7 29.2,72.8 29.6,72.3 29.6,30.9 "/>
<path class="st38" d="M36.4,53.4V34.5L36,34.2v19.5L36.4,53.4z M36.4,59.5v13.2L36,72.3V58.9L36.4,59.5z"/>
<polygon class="st38" points="26.8,57.1 26.8,28.8 26.4,29.3 26.4,56.8 "/>
</svg>
