<?xml version="1.0" encoding="UTF-8"?>
<svg width="46px" height="46px" viewBox="0 0 46 46" version="1.1" xmlns="http://www.w3.org/2000/svg" xmlns:xlink="http://www.w3.org/1999/xlink">
    <!-- Generator: Sketch 55.1 (78136) - https://sketchapp.com -->
    <title>Group 5</title>
    <desc>Created with Sketch.</desc>
    <g id="Page-1" stroke="none" stroke-width="1" fill="none" fill-rule="evenodd">
        <g id="Buttons-Copy" transform="translate(-109.000000, -888.000000)">
            <g id="Group-5" transform="translate(109.000000, 888.000000)">
                <circle id="Oval" fill="#E67E22" cx="23" cy="23" r="23"></circle>
                <g id="Exclamation-Mark" transform="translate(10.000000, 10.000000)" fill="#FFFFFF" fill-rule="nonzero">
                    <path d="M13,6.5 C12.2820298,6.5 11.7,7.08202983 11.7,7.8 L11.7,13 C11.7,13.7179702 12.2820298,14.3 13,14.3 C13.7179702,14.3 14.3,13.7179702 14.3,13 L14.3,7.8 C14.3,7.08202983 13.7179702,6.5 13,6.5 Z M14.196,17.706 C14.1675452,17.6231585 14.1282003,17.5444688 14.079,17.472 L13.923,17.277 C13.5491711,16.9081321 12.9901162,16.8004243 12.506,17.004 C12.3484596,17.0698344 12.2033612,17.1621698 12.077,17.277 C11.8336575,17.5223345 11.6980022,17.8544561 11.6999782,18.2 C11.702054,18.3698804 11.7373867,18.537711 11.804,18.694 C11.9222009,19.0205993 12.1794007,19.2777991 12.506,19.396 C12.8206518,19.5350698 13.1793482,19.5350698 13.494,19.396 C13.8205993,19.2777991 14.0777991,19.0205993 14.196,18.694 C14.2626133,18.537711 14.297946,18.3698804 14.3,18.2 C14.3063812,18.1134508 14.3063812,18.0265492 14.3,17.94 C14.2776163,17.8571006 14.2425342,17.7781659 14.196,17.706 L14.196,17.706 Z M13,0 C5.82029825,0 0,5.82029825 0,13 C0,20.1797017 5.82029825,26 13,26 C20.1797017,26 26,20.1797017 26,13 C26,9.55218563 24.6303611,6.24558476 22.1923882,3.80761184 C19.7544152,1.36963892 16.4478144,0 13,0 Z M13,23.4 C7.2562386,23.4 2.6,18.7437614 2.6,13 C2.6,7.2562386 7.2562386,2.6 13,2.6 C18.7437614,2.6 23.4,7.2562386 23.4,13 C23.4,15.7582515 22.3042889,18.4035322 20.3539105,20.3539105 C18.4035322,22.3042889 15.7582515,23.4 13,23.4 Z" id="Shape"></path>
                </g>
            </g>
        </g>
    </g>
</svg>