<?xml version="1.0" encoding="UTF-8"?>
<svg width="24px" height="24px" viewBox="0 0 24 24" version="1.1" xmlns="http://www.w3.org/2000/svg" xmlns:xlink="http://www.w3.org/1999/xlink">
    <!-- Generator: Sketch 57.1 (83088) - https://sketch.com -->
    <title>Group 20</title>
    <desc>Created with Sketch.</desc>
    <g id="Page-1" stroke="none" stroke-width="1" fill="none" fill-rule="evenodd">
        <g id="Buttons-Copy" transform="translate(-194.000000, -277.000000)">
            <g id="Group-20" transform="translate(194.000000, 277.000000)">
                <circle id="Oval" fill="#FFFFFF" cx="12" cy="12" r="12"></circle>
                <g id="group" fill="#B7BECC" fill-rule="nonzero">
                    <path d="M12.0007459,0 C5.37343546,0 0.000865921788,5.37267582 0.000865921788,11.99968 C0.000865921788,18.6266842 5.37343546,24 12.0006659,24 C18.6278964,24 24.0008659,18.6269242 24.0008659,11.99968 C24.0008659,5.37243582 18.6279764,0 12.0007459,0 Z M3.21874302,16.4916201 C3.21874302,12.7373672 6.49871209,12.7381683 7.22656681,11.7565407 L7.30985724,11.3089115 C6.28725802,10.7877323 5.56538108,9.53201485 5.56538108,8.06293844 C5.56538108,6.12772512 6.81768653,4.55865922 8.36210626,4.55865922 C9.57822621,4.55865922 10.6101508,5.5332363 10.9952793,6.89158716 C9.44822938,7.38576601 8.30384281,9.07196704 8.30384281,11.0764039 C8.30384281,12.4563871 8.84503133,13.725164 9.73348913,14.5312492 C9.5908194,14.6047991 9.43212922,14.6797913 9.29567638,14.7440473 C8.5792193,15.0819125 7.58611047,15.5515747 6.86965338,16.4916201 L3.21874302,16.4916201 L3.21874302,16.4916201 Z M12.037544,19.575419 L12.037544,19.5752588 L11.9642678,19.5752588 L6.83885475,19.5752588 C6.83885475,15.8210904 10.1308433,15.822132 10.8613653,14.8404846 L10.9449609,14.3928463 C9.91861436,13.8716566 9.19409209,12.6159139 9.19409209,11.1468079 C9.19409209,9.21155561 10.4509866,7.6424581 12.0010659,7.6424581 C13.5511452,7.6424581 14.8080397,9.21155561 14.8080397,11.1468079 C14.8080397,12.6032547 14.0963968,13.8515461 13.0837295,14.3805878 L13.1789246,14.8895189 C13.9804028,15.8235742 17.1628771,15.8844664 17.1628771,19.575419 L12.037544,19.575419 L12.037544,19.575419 Z M17.1310943,16.4916201 L17.1310943,16.4914599 L17.1310943,16.4914599 C16.4143614,15.5515747 15.4212016,15.0819926 14.7047078,14.7441274 C14.5637046,14.677628 14.4073976,14.6038377 14.2676697,14.5317299 C15.155376,13.7246032 15.6972299,12.4531021 15.6972299,11.0762436 C15.6972299,9.07204716 14.5531832,7.38616661 13.0064525,6.89182752 C13.3913617,5.5332363 14.4233391,4.55865922 15.6397605,4.55865922 C17.1844188,4.55865922 18.436629,6.12772512 18.436629,8.06293844 C18.436629,9.51935592 17.7275481,10.767462 16.7185265,11.2966531 L16.8133788,11.805574 C17.6119717,12.7394503 20.7829888,12.8002612 20.7829888,16.4916201 L17.1310943,16.4916201 Z" id="Shape"></path>
                </g>
            </g>
        </g>
    </g>
</svg>