<svg id="Layer_1" data-name="Layer 1" xmlns="http://www.w3.org/2000/svg" viewBox="0 0 516.4 132.8"><defs><style>.cls-1{fill:#d8d8d6;}.cls-1,.cls-2,.cls-3{fill-rule:evenodd;}.cls-2{fill:#0091cd;}.cls-3{fill:#333;}.cls-4{fill:#4d4d4d;}</style></defs><title>hermes</title><polyline class="cls-1" points="125.88 23.01 131.73 0.01 120.07 0 114.22 23.01 125.88 23.01"/><polygon class="cls-1" points="106.8 52.24 118.45 52.24 124.3 29.23 112.64 29.23 106.8 52.24"/><polygon class="cls-1" points="99.35 81.47 111.02 81.47 116.87 58.46 105.21 58.46 99.35 81.47"/><polygon class="cls-2" points="114.75 0.02 0 0 0 4.85 19.17 23 108.91 23.01 114.75 0.02"/><polygon class="cls-2" points="60.61 58.46 60.61 62.25 80.94 81.46 94.05 81.47 99.9 58.47 60.61 58.46"/><polygon class="cls-2" points="107.33 29.24 29.65 29.23 29.65 32.94 50.04 52.23 101.48 52.24 107.33 29.24"/><path class="cls-3" d="M516.4,17.16l-2,7.37c-.89,3.38-2.53,4.68-6.49,4.68H496.48c-5.15,0-6.78.34-8.19,1.64a6.83,6.83,0,0,0-1.61,4.4c-.05,1.86.76,2.57,3.66,3.49l11.59,3.44c7.9,2.34,10.28,4.79,10.16,10.86s-2.43,15.71-5.88,20.14-7.58,6.19-14.24,6.19H463.74A2.62,2.62,0,0,1,461,76.06l3.59-14h1.61c.89,3.16,3,4.09,9.27,4.09h11c4.07,0,6.06-.58,7.25-2.1a8.27,8.27,0,0,0,2-5.14c.05-2.56-.88-3.26-6.46-4.78l-10.69-2.93c-6.16-1.63-8.9-4.77-8.8-10a37.81,37.81,0,0,1,4.93-16.46c3.24-5.49,8-7.58,16.6-7.58Zm-274.75-.58c-12.84,0-20,2.8-25.75,10S204.73,51.48,204.54,62.8c-.11,6.89,2.46,12.27,7.22,14.71C215,79.14,220.12,80,228.65,80c9.2,0,14.92-.82,17.89-2.45,2.25-1.29,2.72-2.22,4.34-8.51l2.25-8.54h-1.4c-3.79,4.44-8.16,6.28-18.77,6.28-5.26,0-8.29-.47-9.66-1.52-1.86-1.16-2.65-3-2.6-5.47a25.41,25.41,0,0,1,.53-3.74l1.14-4.88h26.84c5.84,0,7.6-.59,8.81-2.8,1.57-3.15,3.24-11,3.31-15.77.21-11.2-5.67-16-19.68-16m4.95,24.27H225.22c2.76-9.92,6-13,13.91-13,5.93,0,8.69,2.1,8.62,6.65a24.62,24.62,0,0,1-1.15,6.31m193-24.27c-12.84,0-20,2.8-25.75,10S402.68,51.48,402.5,62.8c-.12,6.89,2.44,12.27,7.2,14.71C413,79.14,418.07,80,426.6,80c9.2,0,14.91-.82,17.89-2.45,2.25-1.29,2.71-2.22,4.33-8.51l2.25-8.54h-1.39c-3.8,4.44-8.17,6.28-18.77,6.28-5.27,0-8.3-.47-9.67-1.52-1.85-1.16-2.64-3-2.6-5.47a27,27,0,0,1,.54-3.74l1.13-4.88h26.85c5.83,0,7.6-.59,8.8-2.8,1.58-3.15,3.25-11,3.32-15.77.21-11.2-5.68-16-19.68-16m4.94,24.27H423.16c2.77-9.92,6-13,13.91-13,5.94,0,8.7,2.1,8.63,6.65a24.75,24.75,0,0,1-1.16,6.31M313.72,17.16l-2.13,8.17c-.86,3.38-2.42,4.42-7.07,4.42h-6.08c-6.64,0-8.67,1.76-10.54,9.33l-8.64,33.18a20.11,20.11,0,0,0-.65,3.38c0,1.28.67,2,2.06,2.46l-.26,1.27h-15.3a2.62,2.62,0,0,1-2.71-3.31l13.77-53.89a4.69,4.69,0,0,0,.25-1.28c0-1.29-.67-2-2.08-2.45l.4-1.28H289.9a2.63,2.63,0,0,1,2.71,3.3L291.15,26,295.69,20c1.91-2.67,2.26-2.79,6.13-2.79ZM207,4.82s-11.76,45.8-17.15,66.7c-.56,2.37-1.46,5.4,1.53,6.32-.16.52-.32,1-.49,1.52H173.8a2.63,2.63,0,0,1-2.71-3.31l8.66-33.46H156.38L149,71.52a18.83,18.83,0,0,0-.66,3.53,2.68,2.68,0,0,0,2,2.79c-.12.52-.23,1-.37,1.52H133a2.63,2.63,0,0,1-2.71-3.31S142,30.25,147.42,9.32c.52-2.36,1.47-5.24-1.54-6.19.11-.54.26-1.09.37-1.62h17.2a2.62,2.62,0,0,1,2.71,3.31L159.65,30.1h23.22l5.39-20.78a19.38,19.38,0,0,0,.63-3.5,2.57,2.57,0,0,0-2.15-2.69c.12-.54.25-1.09.37-1.62h17.18A2.63,2.63,0,0,1,207,4.82M387.25,16.66H379.1c-4.29,0-6.56.92-9.36,5.13l-3.05,4.78c.34-4.87-2.35-9.91-10.58-9.91h-7.58c-6.36,0-7.9,2.69-9.48,4.6L335.44,26l1.48-5.56a2.63,2.63,0,0,0-2.72-3.3H318.86l-.26,1.28c1.4.47,2,1.16,1.95,2.45a4.46,4.46,0,0,1-.17,1.28s-13.74,53.89-13.75,53.89a2.63,2.63,0,0,0,2.72,3.31h15.3L325,78.1c-1.5-.49-2.08-1.18-2.05-2.46a23.42,23.42,0,0,1,.64-3.38s8.37-31.85,8.64-33c2-8.27,4.34-9.27,8.68-9.81a22.56,22.56,0,0,1,3.12-.13c4.37,0,5.57,2.56,5,5.59-.35,1.72-10.49,41.14-10.49,41.14a2.62,2.62,0,0,0,2.71,3.31h15.3l.36-1.27c-1.38-.49-2.08-1.18-2-2.46a19.79,19.79,0,0,1,.64-3.38l8.64-33c2.22-8.23,4.38-9.27,8.76-9.81a23,23,0,0,1,3.15-.13c4.41,0,5.63,2.56,5,5.59-.1.52-10.4,41.14-10.41,41.14a2.63,2.63,0,0,0,2.72,3.31h15.28L389,78.1c-1.5-.49-2.08-1.18-2.06-2.46a22.46,22.46,0,0,1,.65-3.38s9.86-39.62,10.71-43.16c.91-3.82.82-12.44-11-12.44"/><path class="cls-4" d="M126.82,120.07a4.67,4.67,0,0,0-.11,1c0,2.25,1.75,2.78,4.07,2.78.63,0,1,0,1.72-.08l-.45,2.48a11.65,11.65,0,0,1-2.09.19c-3.07,0-6.13-1.09-6.13-5A7.6,7.6,0,0,1,124,120l1.64-9.35h-4.55l.67-2.59h4.33l.94-5.34h2.87L129,108.1h5.65l-.74,2.59h-5.4Z"/><path class="cls-4" d="M153.41,113.69a10.77,10.77,0,0,1-.22,2l-1.79,10.33h-2.88l1.83-10.41a8,8,0,0,0,.19-1.54c0-2.4-1.57-3.79-4-3.79a5.26,5.26,0,0,0-5.38,4.51l-1.94,11.23h-2.88l4.9-28.17h2.87l-2,11.76a7.39,7.39,0,0,1,5.11-2C151,107.68,153.41,110.16,153.41,113.69Z"/><path class="cls-4" d="M172.93,118H158.62c.23,3.57,2.69,5.78,6.35,5.78a8.35,8.35,0,0,0,5.61-2.21l1.45,2a10.6,10.6,0,0,1-7.32,2.93,8.67,8.67,0,0,1-9-8.79,10,10,0,0,1,9.86-10c4.49,0,7.85,3.08,7.85,7.59A8.17,8.17,0,0,1,172.93,118Zm-14.05-2.55h11.58v-.34c0-3.12-2.2-4.77-5.08-4.77A6.65,6.65,0,0,0,158.88,115.46Z"/><path class="cls-4" d="M208.22,116.32c0,4.81-3.51,10.14-9.75,10.14a7.64,7.64,0,0,1-7-3.72l-1.75,10.06h-2.88l4.34-24.7h2.69l-.45,2.55a8.55,8.55,0,0,1,6.61-3C204.93,107.68,208.22,111.63,208.22,116.32Zm-2.95.26a5.94,5.94,0,0,0-6.05-6.23c-4.56,0-6.88,4.32-6.88,7.66a5.63,5.63,0,0,0,5.94,5.78A7.11,7.11,0,0,0,205.27,116.58Z"/><path class="cls-4" d="M227.34,113.65a10.88,10.88,0,0,1-.18,1.88l-1.83,10.52h-2.69l.33-1.88a8.69,8.69,0,0,1-5.94,2.29c-3,0-6.05-1.47-6.05-4.85,0-2.7,2-5.4,7.44-5.4h5.75l.11-.6a10.25,10.25,0,0,0,.15-1.58c0-2.52-1.76-3.64-4.22-3.64a7.69,7.69,0,0,0-5.31,2.29l-1.42-2.14a10.39,10.39,0,0,1,7.1-2.82C224.32,107.72,227.34,109.56,227.34,113.65Zm-3.84,6.2.22-1.24h-5.3c-3.25,0-4.49,1-4.49,2.7,0,2.07,2,2.78,3.78,2.78C220.66,124.09,223.08,122.14,223.5,119.85Z"/><path class="cls-4" d="M244.15,108.17l-.45,2.48a10,10,0,0,0-1.64-.15,5.94,5.94,0,0,0-6,5.14l-1.79,10.41h-2.87l3.13-18h2.69l-.33,2a7.49,7.49,0,0,1,5.38-2.18A5.47,5.47,0,0,1,244.15,108.17Z"/><path class="cls-4" d="M262.86,112l-2.2,1.47a6.3,6.3,0,0,0-5.49-3.16,7.1,7.1,0,0,0-7.1,7.17,6.09,6.09,0,0,0,6.2,6.35,7.12,7.12,0,0,0,5.53-2.63l1.87,1.61a9.35,9.35,0,0,1-7.51,3.65,8.72,8.72,0,0,1-9-8.83,10.06,10.06,0,0,1,10.12-9.95A8.5,8.5,0,0,1,262.86,112Z"/><path class="cls-4" d="M283.26,118H269c.23,3.57,2.69,5.78,6.35,5.78a8.35,8.35,0,0,0,5.61-2.21l1.45,2a10.6,10.6,0,0,1-7.32,2.93,8.67,8.67,0,0,1-9-8.79,10,10,0,0,1,9.86-10c4.48,0,7.85,3.08,7.85,7.59A8.17,8.17,0,0,1,283.26,118Zm-14.05-2.55h11.58v-.34c0-3.12-2.2-4.77-5.08-4.77A6.65,6.65,0,0,0,269.21,115.46Z"/><path class="cls-4" d="M289.79,126.05h-2.87l4.93-28.17h2.87Z"/><path class="cls-4" d="M326.74,116.32c0,4.81-3.52,10.14-9.75,10.14a7.64,7.64,0,0,1-7-3.72l-1.75,10.06h-2.88l4.33-24.7h2.69l-.45,2.55a8.57,8.57,0,0,1,6.62-3C323.45,107.68,326.74,111.63,326.74,116.32Zm-2.95.26a5.94,5.94,0,0,0-6.06-6.23c-4.55,0-6.87,4.32-6.87,7.66a5.63,5.63,0,0,0,5.94,5.78A7.11,7.11,0,0,0,323.79,116.58Z"/><path class="cls-4" d="M347.65,118h-14.3c.22,3.57,2.69,5.78,6.35,5.78a8.32,8.32,0,0,0,5.6-2.21l1.46,2a10.62,10.62,0,0,1-7.32,2.93,8.67,8.67,0,0,1-9-8.79,10,10,0,0,1,9.86-10c4.48,0,7.84,3.08,7.84,7.59A7.92,7.92,0,0,1,347.65,118Zm-14-2.55h11.58v-.34c0-3.12-2.21-4.77-5.08-4.77A6.63,6.63,0,0,0,333.61,115.46Z"/><path class="cls-4" d="M370.7,116.62a10.07,10.07,0,0,1-10.16,9.84,8.76,8.76,0,0,1-9-8.9,10,10,0,0,1,10.08-9.88A8.86,8.86,0,0,1,370.7,116.62Zm-16.21.94a6,6,0,0,0,6.16,6.23,7.08,7.08,0,0,0,7.1-7.1,6.12,6.12,0,0,0-6.24-6.34A7.12,7.12,0,0,0,354.49,117.56Z"/><path class="cls-4" d="M394.34,116.32c0,4.81-3.51,10.14-9.75,10.14a7.63,7.63,0,0,1-7-3.72l-1.76,10.06H373l4.33-24.7H380l-.45,2.55a8.57,8.57,0,0,1,6.61-3C391.06,107.68,394.34,111.63,394.34,116.32Zm-2.95.26a5.94,5.94,0,0,0-6.05-6.23c-4.56,0-6.87,4.32-6.87,7.66a5.63,5.63,0,0,0,5.94,5.78A7.11,7.11,0,0,0,391.39,116.58Z"/><path class="cls-4" d="M400.65,126.05h-2.87l4.93-28.17h2.87Z"/><path class="cls-4" d="M424.45,118H410.14c.23,3.57,2.69,5.78,6.35,5.78a8.31,8.31,0,0,0,5.6-2.21l1.46,2a10.6,10.6,0,0,1-7.32,2.93,8.67,8.67,0,0,1-9-8.79,10,10,0,0,1,9.86-10c4.48,0,7.85,3.08,7.85,7.59A8.17,8.17,0,0,1,424.45,118Zm-14.05-2.55H422v-.34c0-3.12-2.2-4.77-5.08-4.77A6.64,6.64,0,0,0,410.4,115.46Z"/></svg>