<?xml version="1.0" encoding="UTF-8"?>
<svg width="25px" height="25px" viewBox="0 0 25 25" version="1.1" xmlns="http://www.w3.org/2000/svg" xmlns:xlink="http://www.w3.org/1999/xlink">
    <!-- Generator: Sketch 55.1 (78136) - https://sketchapp.com -->
    <title></title>
    <desc>Created with Sketch.</desc>
    <g id="Page-1" stroke="none" stroke-width="1" fill="none" fill-rule="evenodd">
        <g id="Buttons-Copy" transform="translate(-576.000000, -593.000000)" fill="#9EB2C2" fill-rule="nonzero">
            <path d="M587.25,601.73 L587.25,599.21 L589.71,599.21 L589.71,601.73 L587.25,601.73 Z M588.48,615.5 C590.280009,615.5 591.96,615.040005 593.52,614.12 C595.040008,613.239996 596.239996,612.040008 597.12,610.52 C598.040005,608.96 598.5,607.280009 598.5,605.48 C598.5,603.679991 598.040005,602.000008 597.12,600.44 C596.239996,598.919992 595.040008,597.720004 593.52,596.84 C591.96,595.919995 590.280009,595.46 588.48,595.46 C586.679991,595.46 585.000008,595.919995 583.44,596.84 C581.919992,597.720004 580.720004,598.919992 579.84,600.44 C578.919995,602.000008 578.46,603.679991 578.46,605.48 C578.46,607.280009 578.919995,608.96 579.84,610.52 C580.720004,612.040008 581.919992,613.239996 583.44,614.12 C585.000008,615.040005 586.679991,615.5 588.48,615.5 Z M588.48,593 C590.760011,593 592.86999,593.569994 594.81,594.71 C596.690009,595.790005 598.169995,597.269991 599.25,599.15 C600.390006,601.09001 600.96,603.199989 600.96,605.48 C600.96,607.760011 600.390006,609.86999 599.25,611.81 C598.169995,613.690009 596.690009,615.169995 594.81,616.25 C592.86999,617.390006 590.760011,617.96 588.48,617.96 C586.199989,617.96 584.09001,617.390006 582.15,616.25 C580.269991,615.149995 578.790005,613.660009 577.71,611.78 C576.569994,609.83999 576,607.740011 576,605.48 C576,603.219989 576.569994,601.12001 577.71,599.18 C578.810005,597.299991 580.299991,595.810005 582.18,594.71 C584.12001,593.569994 586.219989,593 588.48,593 Z M587.25,611.75 L587.25,604.25 L589.71,604.25 L589.71,611.75 L587.25,611.75 Z" id=""></path>
        </g>
    </g>
</svg>