<?xml version="1.0" encoding="UTF-8"?>
<svg width="20px" height="18px" viewBox="0 0 20 18" version="1.1" xmlns="http://www.w3.org/2000/svg" xmlns:xlink="http://www.w3.org/1999/xlink">
    <!-- Generator: Sketch 58 (84663) - https://sketch.com -->
    <title>Path</title>
    <desc>Created with Sketch.</desc>
    <g id="Page-1" stroke="none" stroke-width="1" fill="none" fill-rule="evenodd">
        <g id="Home" transform="translate(-0.576520, -0.239777)" fill="#B4BECC" fill-rule="nonzero">
            <path d="M10.5765203,0.239777132 C10.5765203,0.239777132 4.39052026,5.57977713 0.933520265,8.47177713 C0.71105584,8.66561356 0.581300316,8.94475149 0.576520265,9.23977713 C0.576520265,9.79206188 1.02423551,10.2397771 1.57652026,10.2397771 L3.57652026,10.2397771 L3.57652026,17.2397771 C3.57652026,17.7920619 4.02423551,18.2397771 4.57652026,18.2397771 L7.57652026,18.2397771 C8.12880501,18.2397771 8.57652026,17.7920619 8.57652026,17.2397771 L8.57652026,13.2397771 L12.5765203,13.2397771 L12.5765203,17.2397771 C12.5765203,17.7920619 13.0242355,18.2397771 13.5765203,18.2397771 L16.5765203,18.2397771 C17.128805,18.2397771 17.5765203,17.7920619 17.5765203,17.2397771 L17.5765203,10.2397771 L19.5765203,10.2397771 C20.128805,10.2397771 20.5765203,9.79206188 20.5765203,9.23977713 C20.5736914,8.9385148 20.4324508,8.65529604 20.1935203,8.47177713 C16.7605203,5.57977713 10.5765203,0.239777132 10.5765203,0.239777132 Z" id="Path"></path>
        </g>
    </g>
</svg>