<?xml version="1.0" encoding="UTF-8"?>
<svg width="16px" height="20px" viewBox="0 0 16 20" version="1.1" xmlns="http://www.w3.org/2000/svg" xmlns:xlink="http://www.w3.org/1999/xlink">
    <!-- Generator: Sketch 58 (84663) - https://sketch.com -->
    <title>document</title>
    <desc>Created with Sketch.</desc>
    <g id="Page-1" stroke="none" stroke-width="1" fill="none" fill-rule="evenodd">
        <g id="Buttons-Copy" transform="translate(-240.000000, -1065.000000)" fill="#B4BECC" fill-rule="nonzero">
            <g id="document" transform="translate(240.000000, 1065.000000)">
                <path d="M15.36,6.93571429 L8.93818182,0.628571429 C8.52940405,0.226592893 7.97482284,0.000500148685 7.39636364,0 L2.18181818,0 C0.976833273,0 0,0.959389822 0,2.14285714 L0,17.8571429 C0,19.0406102 0.976833273,20 2.18181818,20 L13.8181818,20 C15.0231667,20 16,19.0406102 16,17.8571429 L16,8.45 C15.9994908,7.88187043 15.7692872,7.33719245 15.36,6.93571429 Z M13.52,7.14285714 L9.45454545,7.14285714 C9.05288382,7.14285714 8.72727273,6.82306054 8.72727273,6.42857143 L8.72727273,2.43571429 L13.52,7.14285714 Z M14.5454545,17.8571429 C14.5454545,18.251632 14.2198435,18.5714286 13.8181818,18.5714286 L2.18181818,18.5714286 C1.78015655,18.5714286 1.45454545,18.251632 1.45454545,17.8571429 L1.45454545,2.14285714 C1.45454545,1.74836804 1.78015655,1.42857143 2.18181818,1.42857143 L7.27272727,1.42857143 L7.27272727,6.42857143 C7.27272727,7.61203875 8.24956055,8.57142857 9.45454545,8.57142857 L14.5454545,8.57142857 L14.5454545,17.8571429 Z" id="Shape"></path>
                <path d="M12.2857143,12.8 L3.71428571,12.8 C3.31979661,12.8 3,13.1134007 3,13.5 C3,13.8865993 3.31979661,14.2 3.71428571,14.2 L12.2857143,14.2 C12.6802034,14.2 13,13.8865993 13,13.5 C13,13.1134007 12.6802034,12.8 12.2857143,12.8 Z M3,10.7 C3,11.0865993 3.31979661,11.4 3.71428571,11.4 L12.2857143,11.4 C12.6802034,11.4 13,11.0865993 13,10.7 C13,10.3134007 12.6802034,10 12.2857143,10 L3.71428571,10 C3.31979661,10 3,10.3134007 3,10.7 Z M8,15.6 L3.71428571,15.6 C3.31979661,15.6 3,15.9134007 3,16.3 C3,16.6865993 3.31979661,17 3.71428571,17 L8,17 C8.39448911,17 8.71428571,16.6865993 8.71428571,16.3 C8.71428571,15.9134007 8.39448911,15.6 8,15.6 Z" id="Shape"></path>
            </g>
        </g>
    </g>
</svg>