<?xml version="1.0" encoding="UTF-8"?>
<svg width="20px" height="19px" viewBox="0 0 20 19" version="1.1" xmlns="http://www.w3.org/2000/svg" xmlns:xlink="http://www.w3.org/1999/xlink">
    <!-- Generator: Sketch 58 (84663) - https://sketch.com -->
    <title>Group 27</title>
    <desc>Created with Sketch.</desc>
    <g id="Page-1" stroke="none" stroke-width="1" fill="none" fill-rule="evenodd">
        <g id="Buttons-Copy" transform="translate(-136.000000, -1027.000000)" fill="#626D80" fill-rule="nonzero">
            <g id="Group-27" transform="translate(136.000000, 1027.000000)">
                <path d="M6.09375,7 C7.11227418,7 7.98065188,7.69677733 8.30307008,8.66666667 L8.30307008,8.66666667 L20,8.66666667 L20,10.3333333 L8.30307008,10.3333333 C7.98065187,11.3032227 7.11227418,12 6.09375,12 C5.07522582,12 4.20684813,11.3032227 3.88442992,10.3333333 L3.88442992,10.3333333 L0,10.3333333 L0,8.66666667 L3.88442992,8.66666667 C4.20684813,7.69677733 5.07522582,7 6.09375,7 Z M6.07142857,8.75 C5.6119559,8.75 5.23809524,9.1425537 5.23809524,9.625 C5.23809524,10.1074463 5.6119559,10.5 6.07142857,10.5 C6.53090124,10.5 6.9047619,10.1074463 6.9047619,9.625 C6.9047619,9.1425537 6.53090124,8.75 6.07142857,8.75 Z" id="Combined-Shape"></path>
                <path d="M14.375,0 C15.3935242,0 16.2619019,0.696777333 16.5843201,1.66666667 L16.5843201,1.66666667 L20,1.66666667 L20,3.33333333 L16.5843201,3.33333333 C16.2619019,4.30322267 15.3935242,5 14.375,5 C13.3564758,5 12.4880981,4.30322267 12.1656799,3.33333333 L12.1656799,3.33333333 L0,3.33333333 L0,1.66666667 L12.1656799,1.66666667 C12.4880981,0.696777333 13.3564758,0 14.375,0 Z M14.4047619,1.5 C13.9452892,1.5 13.5714286,1.8925537 13.5714286,2.375 C13.5714286,2.8574463 13.9452892,3.25 14.4047619,3.25 C14.8642346,3.25 15.2380952,2.8574463 15.2380952,2.375 C15.2380952,1.8925537 14.8642346,1.5 14.4047619,1.5 Z" id="Combined-Shape"></path>
                <path d="M12.890625,14 C13.9091492,14 14.7775269,14.6967773 15.0999451,15.6666667 L15.0999451,15.6666667 L20,15.6666667 L20,17.3333333 L15.0999451,17.3333333 C14.7775269,18.3032227 13.9091492,19 12.890625,19 C11.8721008,19 11.0037231,18.3032227 10.6813049,17.3333333 L10.6813049,17.3333333 L0,17.3333333 L0,15.6666667 L10.6813049,15.6666667 C11.0037231,14.6967773 11.8721008,14 12.890625,14 Z M12.9761905,15.75 C12.5167178,15.75 12.1428571,16.1425537 12.1428571,16.625 C12.1428571,17.1074463 12.5167178,17.5 12.9761905,17.5 C13.4356631,17.5 13.8095238,17.1074463 13.8095238,16.625 C13.8095238,16.1425537 13.4356631,15.75 12.9761905,15.75 Z" id="Combined-Shape"></path>
            </g>
        </g>
    </g>
</svg>