<?xml version="1.0" encoding="UTF-8"?>
<svg width="18px" height="26px" viewBox="0 0 18 26" version="1.1" xmlns="http://www.w3.org/2000/svg" xmlns:xlink="http://www.w3.org/1999/xlink">
    <!-- Generator: Sketch 55.1 (78136) - https://sketchapp.com -->
    <title>Group 10</title>
    <desc>Created with Sketch.</desc>
    <g id="Page-1" stroke="none" stroke-width="1" fill="none" fill-rule="evenodd">
        <g id="Buttons-Copy" transform="translate(-520.000000, -592.000000)" fill="#2882BE" fill-rule="nonzero">
            <g id="Group-10" transform="translate(520.000000, 592.000000)">
                <path d="M16.2,7.62352941 C16.2,13.3411765 8.55,21.6 8.55,21.6 C8.55,21.6 0.9,13.3411765 0.9,7.62352941 C0.9,3.41152941 4.323375,0 8.55,0 C12.776625,0 16.2,3.41152941 16.2,7.62352941 Z M6.3,7.2 C6.3,8.69175 7.50825,9.9 9,9.9 C10.49175,9.9 11.7,8.69175 11.7,7.2 C11.7,5.70825 10.49175,4.5 9,4.5 C7.50825,4.5 6.3,5.70825 6.3,7.2 Z" id="Combined-Shape"></path>
                <polygon id="Path" points="0 22.5 0 25.2 18 25.2 18 22.5"></polygon>
            </g>
        </g>
    </g>
</svg>