<?xml version="1.0" encoding="utf-8"?>
<!-- Generator: Adobe Illustrator 21.1.0, SVG Export Plug-In . SVG Version: 6.00 Build 0)  -->
<svg version="1.1" id="Capa_1" xmlns="http://www.w3.org/2000/svg" xmlns:xlink="http://www.w3.org/1999/xlink" x="0px" y="0px"
	 viewBox="0 0 530.9 530.9" style="enable-background:new 0 0 530.9 530.9;" xml:space="preserve">
<style type="text/css">
	.st0{fill:#348AC4;}
	.st1{fill:#FFFFFF;}
</style>
<g>
	<path class="st0" d="M528.5,462.1L421.2,163.8c-17.1-40-37.4-61.7-76.8-61.7h-3.9c1.4-5.7,2.2-11.7,2.2-17.9
		c0-42.6-34.6-77.2-77.2-77.2c-42.5,0-77.2,34.6-77.2,77.2c0,6.2,0.8,12.1,2.2,17.9h-9.2c-39.5,0-55.5,29.4-66.1,61.7L4.3,462.1
		c-19.7,54,32,61.7,71.5,61.7H457C496.5,523.8,542.2,508.9,528.5,462.1z M224,84.3c0-22.8,18.6-41.4,41.4-41.4
		c22.9,0,41.4,18.6,41.4,41.4c0,6.4-1.5,12.4-4.1,17.9h-74.7C225.5,96.7,224,90.7,224,84.3z"/>
</g>
<g>
	<path class="st1" d="M153,249.8h30v59.3h0.6c3-5.2,6.2-9.9,9.1-14.7l30.4-44.5h37.2l-44.3,57.1l46.7,77h-35.4L194.6,326L183,340.1
		v43.8h-30V249.8z"/>
	<path class="st1" d="M380.5,377.7c-9.3,3.2-27,7.6-44.7,7.6c-24.5,0-42.2-6.2-54.5-18.1c-12.3-11.5-19.1-29-18.9-48.7
		c0.2-44.5,32.6-70,76.6-70c17.3,0,30.6,3.4,37.2,6.6l-6.4,24.3c-7.4-3.2-16.5-5.8-31.2-5.8c-25.3,0-44.3,14.3-44.3,43.4
		c0,27.6,17.3,44,42.2,44c7,0,12.5-0.8,14.9-2v-28h-20.7v-23.7h49.9V377.7z"/>
</g>
</svg>
