<?xml version="1.0" encoding="UTF-8"?>
<svg width="227px" height="92px" viewBox="0 0 227 92" version="1.1" xmlns="http://www.w3.org/2000/svg" xmlns:xlink="http://www.w3.org/1999/xlink">
    <!-- Generator: Sketch 50.2 (55047) - http://www.bohemiancoding.com/sketch -->
    <title>Group 2</title>
    <desc>Created with Sketch.</desc>
    <defs>
        <polygon id="path-1" points="0 0.205 164.01 0.205 164.01 52.94 0 52.94"></polygon>
        <polygon id="path-3" points="0 0.205 164.01 0.205 164.01 52.94 0 52.94"></polygon>
    </defs>
    <g id="Page-1" stroke="none" stroke-width="1" fill="none" fill-rule="evenodd">
        <g id="Feefo_logo_white&amp;yellow">
            <g id="Group-2">
                <g id="Group">
                    <path d="M60.802,36.761 L60.802,35.544 C60.802,21.236 52.432,12.438 40.198,12.438 C34.975,12.438 29.896,14.583 26.032,18.447 C22.241,22.238 20.168,27.175 20.168,32.54 C20.168,37.974 22.099,42.842 25.817,46.775 C29.754,50.926 34.476,52.928 40.34,52.928 C48.928,52.928 55.295,48.851 59.013,40.837 L46.565,40.837 C44.847,42.34 42.988,42.984 40.699,42.984 C35.763,42.984 32.829,40.837 31.828,36.761 L60.802,36.761 Z M49.427,28.746 L31.47,28.746 C32.257,25.099 35.622,22.666 40.34,22.666 C44.847,22.666 48.067,24.813 49.427,28.746 Z" id="Fill-1" fill="#FFFFFE"></path>
                    <g id="Group-7">
                        <mask id="mask-2" fill="white">
                            <use xlink:href="#path-1"></use>
                        </mask>
                        <g id="Clip-3"></g>
                        <path d="M103.576,36.761 L103.576,35.544 C103.576,21.236 95.205,12.438 82.971,12.438 C77.75,12.438 72.669,14.583 68.805,18.447 C65.014,22.238 62.94,27.175 62.94,32.54 C62.94,37.974 64.873,42.842 68.591,46.775 C72.527,50.926 77.249,52.928 83.115,52.928 C91.7,52.928 98.068,48.851 101.788,40.837 L89.338,40.837 C87.622,42.34 85.762,42.984 83.473,42.984 C78.537,42.984 75.602,40.837 74.601,36.761 L103.576,36.761 Z M92.201,28.746 L74.244,28.746 C75.03,25.099 78.393,22.666 83.115,22.666 C87.622,22.666 90.84,24.813 92.201,28.746 Z" id="Fill-2" fill="#FFFFFE" mask="url(#mask-2)"></path>
                        <path d="M4.149,22.166 L4.149,51.997 L15.239,51.997 L15.239,22.166 L19.746,22.166 L19.746,13.581 L15.239,13.581 L15.239,12.651 C15.239,9.146 16.025,8.001 19.459,8.001 L19.746,8.001 L19.746,0.274 C19.102,0.274 18.528,0.204 17.957,0.204 C8.514,0.204 4.076,3.924 4.076,12.15 C4.076,12.58 4.149,13.081 4.149,13.581 L0,13.581 L0,22.166 L4.149,22.166" id="Fill-4" fill="#FFFFFE" mask="url(#mask-2)"></path>
                        <path d="M107.868,22.166 L107.868,51.997 L118.958,51.997 L118.958,22.166 L123.463,22.166 L123.463,13.581 L118.958,13.581 L118.958,12.651 C118.958,9.146 119.745,8.001 123.179,8.001 L123.463,8.001 L123.463,0.274 C122.821,0.274 122.247,0.204 121.674,0.204 C112.232,0.204 107.797,3.924 107.797,12.15 C107.797,12.58 107.868,13.081 107.868,13.581 L103.719,13.581 L103.719,22.166 L107.868,22.166" id="Fill-5" fill="#FFFFFE" mask="url(#mask-2)"></path>
                        <path d="M164.01,32.54 C164.01,27.316 161.793,22.023 157.716,18.161 C153.853,14.512 149.061,12.58 143.478,12.58 C138.257,12.58 133.178,14.727 129.313,18.589 C125.522,22.38 123.449,27.316 123.449,32.681 C123.449,38.047 125.379,42.986 129.1,46.847 C133.036,50.999 137.756,53 143.623,53 C149.417,53 154.282,50.926 158.218,46.992 C162.081,43.127 164.01,38.335 164.01,32.54 M152.78,32.824 C152.78,38.047 148.701,42.269 143.696,42.269 C138.758,42.269 134.608,38.047 134.608,32.824 C134.608,27.532 138.687,23.309 143.696,23.309 C148.701,23.309 152.78,27.532 152.78,32.824" id="Fill-6" fill="#FFFFFE" mask="url(#mask-2)"></path>
                    </g>
                    <path d="M181.361,26.3 C175.919,25.968 171.543,21.599 171.24,16.149 L195.039,16.149 L195.039,15.889 C195.039,6.542 189.066,0.313 180.811,0.313 C172.088,0.313 166.17,6.7 166.17,15.007 C166.17,22.848 172.295,29.753 180.656,29.753 C186.731,29.753 191.561,26.378 194.158,20.147 L191.754,20.147 C190.026,23.797 186.311,26.32 182.004,26.32 C181.779,26.32 181.582,26.314 181.361,26.3" id="Fill-8" fill="#F4D920"></path>
                    <path d="M211.577,26.3 C217.02,25.968 221.396,21.599 221.701,16.149 L197.899,16.149 L197.899,15.889 C197.899,6.542 203.872,0.313 212.129,0.313 C220.85,0.313 226.772,6.7 226.772,15.007 C226.772,22.848 220.645,29.753 212.283,29.753 C206.208,29.753 201.379,26.378 198.782,20.147 L201.187,20.147 C202.915,23.797 206.632,26.32 210.937,26.32 C211.16,26.32 211.359,26.314 211.577,26.3" id="Fill-9" fill="#F4D920"></path>
                </g>
                <polyline id="Fill-115" fill="#298BC1" points="19.0018373 57 24.5614984 68.520176 37 70.3682121 28.0009186 79.3341919 30.1248341 92 19.0018373 86.020176 7.87516587 92 9.99908135 79.3341919 1 70.3682121 13.4385016 68.520176 19.0018373 57"></polyline>
                <polyline id="Fill-116" fill="#298BC1" points="65.9981627 57 71.5614984 68.520176 84 70.3682121 74.9972441 79.3341919 77.1248341 92 65.9981627 86.020176 54.8751659 92 56.9990814 79.3341919 48 70.3682121 60.434827 68.520176 65.9981627 57"></polyline>
                <polyline id="Fill-117" fill="#298BC1" points="112.998163 57 118.561498 68.520176 131 70.3682121 122.000919 79.3341919 124.124834 92 112.998163 86.020176 101.875166 92 103.999081 79.3341919 95 70.3682121 107.438502 68.520176 112.998163 57"></polyline>
                <polyline id="Fill-118" fill="#298BC1" points="160 57 165.559094 68.520176 178 70.3682121 168.998163 79.3341919 171.125536 92 160 86.020176 148.874464 92 150.998163 79.3341919 142 70.3682121 154.437232 68.520176 160 57"></polyline>
                <polyline id="Fill-119" fill="#298BC1" points="208.001837 57 213.565173 68.520176 226 70.3682121 217.000919 79.3341919 219.124834 92 208.001837 86.020176 196.875166 92 198.999081 79.3341919 190 70.3682121 202.434827 68.520176 208.001837 57"></polyline>
                <g id="Group-7">
                    <mask id="mask-4" fill="white">
                        <use xlink:href="#path-3"></use>
                    </mask>
                    <g id="Clip-3"></g>
                    <path d="M103.576,36.761 L103.576,35.544 C103.576,21.236 95.205,12.438 82.971,12.438 C77.75,12.438 72.669,14.583 68.805,18.447 C65.014,22.238 62.94,27.175 62.94,32.54 C62.94,37.974 64.873,42.842 68.591,46.775 C72.527,50.926 77.249,52.928 83.115,52.928 C91.7,52.928 98.068,48.851 101.788,40.837 L89.338,40.837 C87.622,42.34 85.762,42.984 83.473,42.984 C78.537,42.984 75.602,40.837 74.601,36.761 L103.576,36.761 Z M92.201,28.746 L74.244,28.746 C75.03,25.099 78.393,22.666 83.115,22.666 C87.622,22.666 90.84,24.813 92.201,28.746 Z" id="Fill-2" fill="#3B3C3A" mask="url(#mask-4)"></path>
                    <path d="M4.149,22.166 L4.149,51.997 L15.239,51.997 L15.239,22.166 L19.746,22.166 L19.746,13.581 L15.239,13.581 L15.239,12.651 C15.239,9.146 16.025,8.001 19.459,8.001 L19.746,8.001 L19.746,0.274 C19.102,0.274 18.528,0.204 17.957,0.204 C8.514,0.204 4.076,3.924 4.076,12.15 C4.076,12.58 4.149,13.081 4.149,13.581 L0,13.581 L0,22.166 L4.149,22.166" id="Fill-4" fill="#3B3C3A" mask="url(#mask-4)"></path>
                    <path d="M107.868,22.166 L107.868,51.997 L118.958,51.997 L118.958,22.166 L123.463,22.166 L123.463,13.581 L118.958,13.581 L118.958,12.651 C118.958,9.146 119.745,8.001 123.179,8.001 L123.463,8.001 L123.463,0.274 C122.821,0.274 122.247,0.204 121.674,0.204 C112.232,0.204 107.797,3.924 107.797,12.15 C107.797,12.58 107.868,13.081 107.868,13.581 L103.719,13.581 L103.719,22.166 L107.868,22.166" id="Fill-5" fill="#3B3C3A" mask="url(#mask-4)"></path>
                    <path d="M164.01,32.54 C164.01,27.316 161.793,22.023 157.716,18.161 C153.853,14.512 149.061,12.58 143.478,12.58 C138.257,12.58 133.178,14.727 129.313,18.589 C125.522,22.38 123.449,27.316 123.449,32.681 C123.449,38.047 125.379,42.986 129.1,46.847 C133.036,50.999 137.756,53 143.623,53 C149.417,53 154.282,50.926 158.218,46.992 C162.081,43.127 164.01,38.335 164.01,32.54 M152.78,32.824 C152.78,38.047 148.701,42.269 143.696,42.269 C138.758,42.269 134.608,38.047 134.608,32.824 C134.608,27.532 138.687,23.309 143.696,23.309 C148.701,23.309 152.78,27.532 152.78,32.824" id="Fill-6" fill="#3B3C3A" mask="url(#mask-4)"></path>
                    <path d="M60.634,36.323 L60.634,35.106 C60.634,20.798 52.264,12 40.03,12 C34.807,12 29.728,14.145 25.864,18.009 C22.073,21.8 20,26.737 20,32.102 C20,37.536 21.931,42.404 25.649,46.337 C29.586,50.488 34.308,52.49 40.172,52.49 C48.76,52.49 55.127,48.413 58.845,40.399 L46.397,40.399 C44.679,41.902 42.82,42.546 40.531,42.546 C35.595,42.546 32.661,40.399 31.66,36.323 L60.634,36.323 Z M49.259,28.308 L31.302,28.308 C32.089,24.661 35.454,22.228 40.172,22.228 C44.679,22.228 47.899,24.375 49.259,28.308 Z" id="Fill-1" fill="#3B3C3A" mask="url(#mask-4)"></path>
                </g>
            </g>
        </g>
    </g>
</svg>