<?xml version="1.0" encoding="UTF-8"?>
<svg width="44px" height="53px" viewBox="0 0 44 53" version="1.1" xmlns="http://www.w3.org/2000/svg" xmlns:xlink="http://www.w3.org/1999/xlink">
    <!-- Generator: Sketch 55.1 (78136) - https://sketchapp.com -->
    <title>security(1)</title>
    <desc>Created with Sketch.</desc>
    <g id="Page-1" stroke="none" stroke-width="1" fill="none" fill-rule="evenodd">
        <g id="Buttons-Copy" transform="translate(-81.000000, -519.000000)" fill="#C5C5C5" fill-rule="nonzero">
            <g id="security(1)" transform="translate(81.000000, 519.000000)">
                <path d="M43.9435234,13.6464955 C43.9166413,12.2155714 43.8909811,10.8637996 43.8909811,9.55605616 C43.8909811,8.53152935 43.0705875,7.70092553 42.0581088,7.70092553 C34.2195248,7.70092553 28.2514481,5.4208463 23.2767883,0.525280243 C22.565145,-0.175217084 21.4326743,-0.174969733 20.7212755,0.525280243 C15.7471044,5.4208463 9.78000521,7.70092553 1.94191,7.70092553 C0.929675709,7.70092553 0.109037673,8.53152935 0.109037673,9.55605616 C0.109037673,10.8640469 0.0836218435,12.2163135 0.0564953331,13.6474849 C-0.194730367,26.96386 -0.538821598,45.2012782 21.3987051,52.8975968 C21.5932339,52.9658656 21.7960718,53 21.9989097,53 C22.2017475,53 22.4048298,52.9658656 22.5991143,52.8975968 C44.5383516,45.2010308 44.1947491,26.9631179 43.9435234,13.6464955 Z M21.9991541,49.1762047 C3.18484182,42.2585463 3.4693036,27.1046025 3.72175122,13.7182272 C3.73690296,12.914832 3.75156594,12.1361718 3.76183003,11.3728474 C11.1030946,11.0592067 16.9736625,8.80757279 21.9991541,4.37653143 C27.0251344,8.80757279 32.8966798,11.059454 40.2384331,11.3728474 C40.2486972,12.1359245 40.2633602,12.91409 40.2785119,13.7169905 C40.5307152,27.1038605 40.8149326,42.2582989 21.9991541,49.1762047 Z" id="Shape"></path>
                <path d="M43.9435234,13.6464955 C43.9166413,12.2155714 43.8909811,10.8637996 43.8909811,9.55605616 C43.8909811,8.53152935 43.0705875,7.70092553 42.0581088,7.70092553 C34.2195248,7.70092553 28.2514481,5.4208463 23.2767883,0.525280243 C22.565145,-0.175217084 21.4326743,-0.174969733 20.7212755,0.525280243 C15.7471044,5.4208463 9.78000521,7.70092553 1.94191,7.70092553 C0.929675709,7.70092553 0.109037673,8.53152935 0.109037673,9.55605616 C0.109037673,10.8640469 0.0836218435,12.2163135 0.0564953331,13.6474849 C-0.194730367,26.96386 -0.538821598,45.2012782 21.3987051,52.8975968 C21.5932339,52.9658656 21.7960718,53 21.9989097,53 C22.2017475,53 22.4048298,52.9658656 22.5991143,52.8975968 C44.5383516,45.2010308 44.1947491,26.9631179 43.9435234,13.6464955 Z M21.9991541,49.1762047 C3.18484182,42.2585463 3.4693036,27.1046025 3.72175122,13.7182272 C3.73690296,12.914832 3.75156594,12.1361718 3.76183003,11.3728474 C11.1030946,11.0592067 16.9736625,8.80757279 21.9991541,4.37653143 C27.0251344,8.80757279 32.8966798,11.059454 40.2384331,11.3728474 C40.2486972,12.1359245 40.2633602,12.91409 40.2785119,13.7169905 C40.5307152,27.1038605 40.8149326,42.2582989 21.9991541,49.1762047 Z" id="Shape"></path>
            </g>
        </g>
    </g>
</svg>