<svg id="Layer_1" data-name="Layer 1" xmlns="http://www.w3.org/2000/svg" xmlns:xlink="http://www.w3.org/1999/xlink" viewBox="0 0 270 119.42"><defs><style>.cls-1{fill:#bfb8af;}.cls-2{fill:#595555;}.cls-3{fill:#300;}.cls-4{fill:none;}.cls-5{fill:url(#radial-gradient);}.cls-6{fill:#c86e14;}.cls-7{fill:url(#radial-gradient-2);}.cls-8{fill:url(#radial-gradient-3);}.cls-9{fill:url(#linear-gradient);}.cls-10{fill:url(#linear-gradient-2);}.cls-11{fill:url(#linear-gradient-3);}.cls-12{fill:url(#linear-gradient-4);}.cls-13{fill:url(#linear-gradient-5);}.cls-14{fill:url(#linear-gradient-6);}.cls-15{fill:url(#linear-gradient-7);}.cls-16{fill:url(#linear-gradient-8);}.cls-17{fill:url(#linear-gradient-9);}.cls-18{fill:url(#linear-gradient-10);}.cls-19{fill:url(#linear-gradient-11);}.cls-20{fill:url(#linear-gradient-12);}.cls-21{fill:url(#linear-gradient-13);}.cls-22{fill:url(#linear-gradient-14);}.cls-23{fill:url(#linear-gradient-15);}.cls-24{fill:url(#linear-gradient-16);}.cls-25{fill:url(#linear-gradient-17);}.cls-26{fill:#8d4a02;}.cls-27{fill:url(#linear-gradient-18);}.cls-28{fill:url(#linear-gradient-19);}.cls-29{fill:url(#linear-gradient-20);}.cls-30{fill:url(#linear-gradient-21);}.cls-31{fill:#fcb813;}.cls-32{fill:#cb7a17;}.cls-33{fill:#975006;}.cls-34{fill:#d99814;}.cls-35{fill:#b76e11;}.cls-36{fill:#d89016;}.cls-37{fill:url(#linear-gradient-22);}.cls-38{fill:url(#linear-gradient-23);}.cls-39{fill:url(#linear-gradient-24);}.cls-40{fill:url(#linear-gradient-25);}.cls-41{fill:#c07414;}.cls-42{fill:#dfdbd7;}</style><radialGradient id="radial-gradient" cx="7463.68" cy="147.87" r="232.39" gradientTransform="matrix(0, 0.52, -0.26, 0, 71.72, -3861.51)" gradientUnits="userSpaceOnUse"><stop offset="0" stop-color="#ffdc00"/><stop offset="0.35" stop-color="#ffbe00"/><stop offset="1" stop-color="#c86e14"/></radialGradient><radialGradient id="radial-gradient-2" cx="-167.22" cy="-156.53" r="137.07" gradientTransform="translate(-35.49 178.39) rotate(90) scale(0.88 0.44)" gradientUnits="userSpaceOnUse"><stop offset="0" stop-color="#5c3333"/><stop offset="0.35" stop-color="#471919"/><stop offset="0.85" stop-color="#300"/></radialGradient><radialGradient id="radial-gradient-3" cx="21.33" cy="32.45" r="124.08" gradientTransform="matrix(0, 0.97, -0.68, 0, 55.31, 10.84)" xlink:href="#radial-gradient"/><linearGradient id="linear-gradient" x1="55.9" y1="102.42" x2="22.7" y2="70.36" gradientUnits="userSpaceOnUse"><stop offset="0" stop-color="#b76e11"/><stop offset="0.16" stop-color="#c27514"/><stop offset="0.38" stop-color="#c97916"/><stop offset="1" stop-color="#cb7a17"/></linearGradient><linearGradient id="linear-gradient-2" x1="61.09" y1="102.42" x2="94.28" y2="70.36" gradientUnits="userSpaceOnUse"><stop offset="0" stop-color="#ffc10e"/><stop offset="1" stop-color="#d99814"/></linearGradient><linearGradient id="linear-gradient-3" x1="25.39" y1="43.12" x2="89.91" y2="20.65" gradientUnits="userSpaceOnUse"><stop offset="0" stop-color="#e39f15"/><stop offset="0.97" stop-color="#8d4a02"/></linearGradient><linearGradient id="linear-gradient-4" x1="60.32" y1="70.42" x2="65.54" y2="60.04" gradientUnits="userSpaceOnUse"><stop offset="0.05" stop-color="#ffd300"/><stop offset="0.95" stop-color="#b76e11"/></linearGradient><linearGradient id="linear-gradient-5" x1="59.33" y1="69.68" x2="57.25" y2="69.42" gradientUnits="userSpaceOnUse"><stop offset="0.05" stop-color="#ffd300"/><stop offset="0.95" stop-color="#efaf13"/></linearGradient><linearGradient id="linear-gradient-6" x1="57.3" y1="50.27" x2="59.52" y2="49.69" gradientUnits="userSpaceOnUse"><stop offset="0.05" stop-color="#a15c0a"/><stop offset="0.95" stop-color="#8d4a02"/></linearGradient><linearGradient id="linear-gradient-7" x1="65.58" y1="59.17" x2="60.46" y2="49.07" gradientUnits="userSpaceOnUse"><stop offset="0.05" stop-color="#b76e11"/><stop offset="0.95" stop-color="#8d4a02"/></linearGradient><linearGradient id="linear-gradient-8" x1="80.6" y1="43.42" x2="71.32" y2="51.8" gradientUnits="userSpaceOnUse"><stop offset="0.05" stop-color="#ffca05"/><stop offset="0.95" stop-color="#c07414"/></linearGradient><linearGradient id="linear-gradient-9" x1="78.5" y1="52.26" x2="82.13" y2="49.1" gradientUnits="userSpaceOnUse"><stop offset="0.05" stop-color="#a2610a"/><stop offset="0.95" stop-color="#8d4a02"/></linearGradient><linearGradient id="linear-gradient-10" x1="88.84" y1="52.61" x2="82.48" y2="49.3" gradientUnits="userSpaceOnUse"><stop offset="0" stop-color="#e29618"/><stop offset="0.95" stop-color="#8d4a02"/></linearGradient><linearGradient id="linear-gradient-11" x1="81.17" y1="43.86" x2="88.57" y2="46.25" gradientUnits="userSpaceOnUse"><stop offset="0.05" stop-color="#ffca05"/><stop offset="0.95" stop-color="#ec9d00"/></linearGradient><linearGradient id="linear-gradient-12" x1="90.21" y1="67.41" x2="80.82" y2="76.6" gradientUnits="userSpaceOnUse"><stop offset="0.05" stop-color="#975006"/><stop offset="0.95" stop-color="#8d4a02"/></linearGradient><linearGradient id="linear-gradient-13" x1="72.42" y1="73.54" x2="79.86" y2="75.68" gradientUnits="userSpaceOnUse"><stop offset="0" stop-color="#975006"/><stop offset="0.95" stop-color="#8d4a02"/></linearGradient><linearGradient id="linear-gradient-14" x1="78.9" y1="70.09" x2="72.2" y2="66.84" gradientUnits="userSpaceOnUse"><stop offset="0.05" stop-color="#ffd300"/><stop offset="1" stop-color="#efaf13"/></linearGradient><linearGradient id="linear-gradient-15" x1="79.26" y1="70.27" x2="83.08" y2="66.76" gradientUnits="userSpaceOnUse"><stop offset="0.05" stop-color="#ffd300"/><stop offset="0.95" stop-color="#e5a812"/></linearGradient><linearGradient id="linear-gradient-16" x1="72.08" y1="52.79" x2="81.94" y2="66.99" gradientUnits="userSpaceOnUse"><stop offset="0" stop-color="#c07414"/><stop offset="0.4" stop-color="#a15c0a"/><stop offset="0.6" stop-color="#a15c0a"/><stop offset="1" stop-color="#e5a812"/></linearGradient><linearGradient id="linear-gradient-17" x1="79.44" y1="51.91" x2="90.01" y2="66.35" gradientUnits="userSpaceOnUse"><stop offset="0" stop-color="#a2610a"/><stop offset="0.4" stop-color="#f1b70f"/><stop offset="0.6" stop-color="#f1b70f"/><stop offset="0.95" stop-color="#975006"/></linearGradient><linearGradient id="linear-gradient-18" x1="57.2" y1="74.93" x2="60.12" y2="75.38" xlink:href="#linear-gradient-12"/><linearGradient id="linear-gradient-19" x1="73.24" y1="60.6" x2="61.72" y2="76.7" gradientUnits="userSpaceOnUse"><stop offset="0.05" stop-color="#a15c00"/><stop offset="0.95" stop-color="#8d4a02"/></linearGradient><linearGradient id="linear-gradient-20" x1="59.42" y1="43.92" x2="50.38" y2="46.26" gradientUnits="userSpaceOnUse"><stop offset="0.05" stop-color="#ffd000"/><stop offset="0.95" stop-color="#ec9d19"/></linearGradient><linearGradient id="linear-gradient-21" x1="61.11" y1="42.69" x2="73.26" y2="58.19" gradientUnits="userSpaceOnUse"><stop offset="0.05" stop-color="#ffd000"/><stop offset="0.5" stop-color="#dc8c00"/><stop offset="0.95" stop-color="#a85c00"/></linearGradient><linearGradient id="linear-gradient-22" x1="26.98" y1="66.13" x2="36.86" y2="76.76" gradientUnits="userSpaceOnUse"><stop offset="0.05" stop-color="#d89016"/><stop offset="0.95" stop-color="#8d4a02"/></linearGradient><linearGradient id="linear-gradient-23" x1="48.15" y1="73.13" x2="38.09" y2="75.74" xlink:href="#linear-gradient-6"/><linearGradient id="linear-gradient-24" x1="38.26" y1="69.68" x2="41.28" y2="68.95" gradientUnits="userSpaceOnUse"><stop offset="0.05" stop-color="#ffd300"/><stop offset="0.95" stop-color="#ffc10e"/></linearGradient><linearGradient id="linear-gradient-25" x1="37.87" y1="70.11" x2="34.58" y2="65.6" gradientUnits="userSpaceOnUse"><stop offset="0.05" stop-color="#ffd300"/><stop offset="0.95" stop-color="#cb7a17"/></linearGradient></defs><title>ups</title><polygon class="cls-1" points="0 0 0 119.42 107.37 119.42 119.93 0 0 0"/><polygon class="cls-2" points="270 0 119.93 0 107.37 119.42 270 119.42 270 0"/><path class="cls-3" d="M58.49,15.79c-14.6,0-26.63,2.78-37.24,8.4V67.6c0,9.27,3.49,17,10.09,22.44,5.95,4.88,25,13.23,27.15,14.17,2.16-.94,21.21-9.29,27.16-14.17,6.6-5.41,10.09-13.17,10.09-22.44V24.19C85.13,18.57,73.09,15.79,58.49,15.79Z"/><path class="cls-4" d="M52.05,22.8a1.83,1.83,0,0,0,1,.27c.54,0,.85-.29.85-.7s-.22-.6-.77-.82S52,21,52,20.39a1.18,1.18,0,0,1,1.32-1.11,1.91,1.91,0,0,1,.91.2l-.15.43a1.63,1.63,0,0,0-.77-.19c-.56,0-.78.33-.78.61s.25.57.82.79,1,.6,1,1.21S53.93,23.5,53,23.5a2.08,2.08,0,0,1-1.05-.26Zm3.05-1.5c0-.3,0-.55,0-.8h.46l0,.48h0a1,1,0,0,1,.92-.54.86.86,0,0,1,.83.59h0a1.16,1.16,0,0,1,.32-.39,1,1,0,0,1,.65-.2c.39,0,1,.25,1,1.27v1.73h-.52V21.78c0-.57-.21-.91-.64-.91a.7.7,0,0,0-.63.49.72.72,0,0,0,0,.27v1.81h-.52V21.68c0-.47-.2-.81-.61-.81a.72.72,0,0,0-.66.54.75.75,0,0,0-.05.26v1.77H55.1Zm6.7,2.14,0-.37h0a1.09,1.09,0,0,1-.9.44.84.84,0,0,1-.9-.84c0-.71.63-1.1,1.77-1.1v-.06a.61.61,0,0,0-.67-.68,1.54,1.54,0,0,0-.77.22l-.12-.35a1.84,1.84,0,0,1,1-.26c.9,0,1.12.61,1.12,1.2v1.1a3.78,3.78,0,0,0,0,.7Zm-.08-1.5c-.58,0-1.24.09-1.24.67a.47.47,0,0,0,.5.51.73.73,0,0,0,.71-.5.47.47,0,0,0,0-.17Zm1.38-2.81h.54v4.31H63.1Zm1.44,0h.53v4.31h-.53Z"/><path class="cls-5" d="M58.49,103.39c2.15-.93,20.81-9.12,26.68-13.93C91.58,84.2,95,76.64,95,67.61V24.66c-10.14-5.38-22.41-8.1-36.49-8.1S32.15,19.28,22,24.66v43c0,9,3.39,16.59,9.81,21.85C37.69,94.27,56.35,102.46,58.49,103.39Z"/><path class="cls-6" d="M81.78,98.46v3.73h.67v-1.56h.1l1,1.56h.82s-1-1.49-1.12-1.64a1,1,0,0,0,.82-1,1.09,1.09,0,0,0-1.24-1.1Zm1,.55c.57,0,.65.28.65.52s-.15.59-.87.59h-.09V99Zm2.63,1.33a2.52,2.52,0,1,1-2.52-2.53,2.53,2.53,0,0,1,2.52,2.53m-2.53-3.07a3.07,3.07,0,1,0,3.07,3.07,3.07,3.07,0,0,0-3.07-3.07"/><path class="cls-7" d="M25.36,43C41,28.67,60,24.87,77.67,24.87c4.77,0,9.45.27,14,.69V67.61c0,8.07-2.93,14.6-8.58,19.26C78,91,62.75,97.86,58.49,99.73c-4.31-1.9-19.58-8.81-24.55-12.86-5.62-4.58-8.58-11.26-8.58-19.26Zm3.24,22c0,6.73,3.19,10.13,9.47,10.13a16.92,16.92,0,0,0,9.56-2.54V45.1H41.29V69a5.26,5.26,0,0,1-3,.78c-2.91,0-3.34-2.67-3.34-4.47V45.1H28.6V65.05m28.64,9.66a9.8,9.8,0,0,0,2.85.37c7,0,11.09-6.35,11.09-15.62s-4.16-15-11.74-15a15.36,15.36,0,0,0-8.55,2.25V88.08h6.35Zm0-5.18a6,6,0,0,0,2.06.38c3.65,0,5.4-3.35,5.4-10.29,0-7.11-1.53-10-5.21-10a5.6,5.6,0,0,0-2.25.45Zm15.38-16.8c0,3.37.95,5.9,6.19,9,2.79,1.64,3.91,2.72,4,4.72C82.83,68.63,81.29,70,79,70a10.09,10.09,0,0,1-6.06-2.58v5.84a13.87,13.87,0,0,0,7,2c6.27,0,9.06-4.43,9.19-8.49.12-3.7-.91-6.5-6.21-9.62-2.37-1.39-4.24-2.3-4.18-4.61s1.94-3.05,3.74-3A8.47,8.47,0,0,1,88.1,52V46.52a10.82,10.82,0,0,0-7-2.06c-4.18.12-8.54,3.14-8.52,8.27"/><path class="cls-8" d="M82.77,66.42c0-2-1.17-3.08-4-4.72-5.24-3.07-6.18-5.6-6.19-9,0-5.13,4.34-8.15,8.52-8.27a10.82,10.82,0,0,1,7,2.06V52a8.47,8.47,0,0,0-5.68-2.61c-1.8,0-3.67.77-3.74,3s1.81,3.22,4.18,4.61c5.3,3.12,6.33,5.92,6.21,9.62-.13,4.06-2.92,8.49-9.19,8.49a13.87,13.87,0,0,1-7-2V67.37A10.09,10.09,0,0,0,79,70C81.29,70,82.83,68.63,82.77,66.42ZM47.63,45.1H41.29V69a5.26,5.26,0,0,1-3,.78c-2.91,0-3.34-2.67-3.34-4.47V45.1H28.6V65.05c0,6.73,3.19,10.13,9.47,10.13a16.92,16.92,0,0,0,9.56-2.54Zm9.61,29.61V88.08H50.89V46.71a15.36,15.36,0,0,1,8.55-2.25c7.58,0,11.74,5.74,11.74,15s-4,15.62-11.09,15.62A9.8,9.8,0,0,1,57.24,74.71Zm0-5.18a6,6,0,0,0,2.06.38c3.65,0,5.4-3.35,5.4-10.29,0-7.11-1.53-10-5.21-10a5.6,5.6,0,0,0-2.25.45Z"/><path class="cls-9" d="M25.36,67.61c0,8,3,14.68,8.58,19.26,5,4,20.24,11,24.55,12.86v-.5c-3.57-1.58-19.23-8.62-24.26-12.71-5.5-4.49-8.41-11-8.41-18.91Z"/><path class="cls-10" d="M58.49,99.73C62.75,97.86,78,91,83,86.87c5.65-4.66,8.58-11.19,8.58-19.26h-.45c0,7.94-2.84,14.31-8.42,18.91-4.86,4-19.56,10.64-24.26,12.71Z"/><path class="cls-11" d="M91.17,26c-4.85-.44-9.27-.66-13.5-.66C56,25.32,39,31.18,25.82,43.24l-.46-.2C41,28.67,60,24.87,77.67,24.87c4.77,0,9.45.27,14,.69Z"/><path class="cls-12" d="M59.3,69.91c3.65,0,5.4-3.35,5.4-10.29h-.46c0,5.61-1.11,9.83-4.94,9.83Z"/><path class="cls-13" d="M59.3,69.45a5.5,5.5,0,0,1-1.61-.25l-.45.33a6,6,0,0,0,2.06.38Z"/><path class="cls-14" d="M57.69,50.33a5.34,5.34,0,0,1,1.8-.31v-.45a5.6,5.6,0,0,0-2.25.45Z"/><path class="cls-15" d="M64.24,59.62c0-6.1-1-9.6-4.75-9.6v-.45c3.68,0,5.21,2.94,5.21,10Z"/><path class="cls-16" d="M72.17,52.73c0-5.22,4.34-8.6,9-8.73v.46c-4.18.12-8.54,3.14-8.52,8.27Z"/><path class="cls-17" d="M82.42,49.43c-1.8,0-3.67.77-3.74,3h.46c0-.61.3-2.59,3.22-2.59Z"/><path class="cls-18" d="M88.1,52a8.47,8.47,0,0,0-5.68-2.61l-.06.45a8.62,8.62,0,0,1,6.2,3.28Z"/><path class="cls-19" d="M88.56,46.29l-.46.23a10.82,10.82,0,0,0-7-2.06V44A11.38,11.38,0,0,1,88.56,46.29Z"/><path class="cls-20" d="M89.07,66.69c-.13,4.06-2.92,8.49-9.19,8.49v.46c5.75,0,9.49-3.83,9.64-8.93Z"/><path class="cls-21" d="M72.9,73.21a13.87,13.87,0,0,0,7,2v.46a14.23,14.23,0,0,1-7.44-2.17Z"/><path class="cls-22" d="M79,70a10.09,10.09,0,0,1-6.06-2.58l-.46-1A10.3,10.3,0,0,0,79,69.5Z"/><path class="cls-23" d="M82.77,66.42C82.83,68.63,81.29,70,79,70V69.5c2,0,3.39-1,3.34-3.07Z"/><path class="cls-24" d="M82.31,66.43c0-1.68-.87-2.66-3.73-4.34-5.35-3.13-6.4-5.8-6.41-9.36h.45c0,3.37.95,5.9,6.19,9,2.79,1.64,3.91,2.72,4,4.72Z"/><path class="cls-25" d="M83.09,56.68c5.52,3.25,6.56,6.24,6.43,10l-.45,0c.12-3.7-.91-6.5-6.21-9.62-2.37-1.39-4.24-2.3-4.18-4.61h.46c-.06,2.11,1.71,2.85,4,4.21"/><polygon class="cls-26" points="57.24 88.08 50.89 88.08 50.43 88.54 57.69 88.54 57.24 88.08"/><path class="cls-27" d="M60.09,75.53a11.85,11.85,0,0,1-2.4-.23l-.45-.59a9.8,9.8,0,0,0,2.85.37Z"/><path class="cls-28" d="M71.64,59.46c0,8.26-3.37,16.07-11.55,16.07v-.45c7,0,11.09-6.35,11.09-15.62Z"/><path class="cls-29" d="M50.43,46.47a15.76,15.76,0,0,1,9-2.47v.46a15.36,15.36,0,0,0-8.55,2.25Z"/><path class="cls-30" d="M59.44,44c8.77,0,12.2,7.27,12.2,15.46h-.46c0-9.26-4.16-15-11.74-15Z"/><path class="cls-31" d="M35,45.1H28.6l-.45-.46H35.4Zm12.68,0H41.29l-.45-.46h7.25Z"/><polygon class="cls-32" points="25.36 67.61 25.36 43.04 25.82 43.24 25.82 67.61 25.36 67.61"/><polygon class="cls-33" points="88.56 53.16 88.56 46.29 88.1 46.52 88.1 52.04 88.56 53.16"/><polygon class="cls-32" points="35.4 65.33 35.4 44.64 34.95 45.1 34.95 65.33 35.4 65.33"/><polygon class="cls-34" points="91.17 67.61 91.17 25.98 91.62 25.56 91.62 67.61 91.17 67.61"/><polygon class="cls-35" points="72.44 66.35 72.44 73.47 72.9 73.21 72.9 67.37 72.44 66.35"/><polygon class="cls-36" points="41.3 69.02 41.3 45.1 40.84 44.64 40.84 68.77 41.3 69.02"/><polygon class="cls-36" points="28.6 65.05 28.6 45.1 28.15 44.64 28.15 65.05 28.6 65.05"/><path class="cls-37" d="M38.07,75.64c-6.77,0-9.92-3.87-9.92-10.59h.45c0,6.73,3.19,10.13,9.47,10.13Z"/><path class="cls-38" d="M48.09,72.88a17.36,17.36,0,0,1-10,2.76v-.46a16.92,16.92,0,0,0,9.56-2.54Z"/><path class="cls-39" d="M38.29,69.34a5.23,5.23,0,0,0,2.55-.57l.45.25a5.26,5.26,0,0,1-3,.78Z"/><path class="cls-40" d="M38.29,69.8c-2.91,0-3.34-2.67-3.34-4.47h.45c0,2.21.65,4,2.89,4Z"/><polygon class="cls-32" points="50.43 46.47 50.43 88.54 50.89 88.08 50.89 46.71 50.43 46.47"/><path class="cls-41" d="M57.69,69.2V50.33L57.24,50V69.53Zm0,6.1V88.54l-.45-.46V74.71Z"/><polygon class="cls-41" points="48.09 72.88 48.09 44.64 47.63 45.1 47.63 72.64 48.09 72.88"/><path class="cls-42" d="M152.92,53.8l-4.09-15.34-4.5,15.34H140l-3.92-14.48c-1.9-7-2.53-7.86-4.29-8.69V29.9h8.62v.73c-1.24.45-1.62.86-1.62,2.08a31.72,31.72,0,0,0,1.21,6.2l3,12,3.29-11.85a24.36,24.36,0,0,0,1.07-5.61c0-1.7-.8-2.25-2.22-2.84V29.9h8.15v.73c-1.25.48-1.88,1-1.88,2.22a24.6,24.6,0,0,0,.94,5.12l3.36,12.44,3.39-11a25.69,25.69,0,0,0,1.32-6.2c0-1.53-.62-2-2-2.6V29.9h8v.73c-1.76.83-2.42,1.56-4.78,8.76L156.9,53.8Zm25.8-3.67a8.48,8.48,0,0,1-7,4.09c-4.44,0-7.69-3.15-7.69-8.83,0-6.24,4-9.67,8-9.67,3.47,0,6.24,1.52,6.24,7.38a11.25,11.25,0,0,1,0,1.21H167.78v.14c0,5.09,2.77,7,5.64,7a7.22,7.22,0,0,0,4.82-1.77Zm-3.84-7.76c0-3.36-1.07-4.78-3.15-4.78s-3.71,1.18-3.95,5.16Zm12.88,6.51h.87c1.46,2.57,3,3.71,4.88,3.71a2.81,2.81,0,0,0,3-2.7c0-4.3-8.52-3-8.52-8.87,0-3.15,2.91-5.3,6-5.3a14.54,14.54,0,0,1,4.64.73v3.67h-.83c-1.28-1.8-2.32-2.74-4.05-2.74a2.52,2.52,0,0,0-2.63,2.39c0,4,8.66,2.77,8.66,8.8,0,3.29-3,5.65-6.55,5.65a13.39,13.39,0,0,1-5.23-1ZM211.7,53.8v-.69c1.84-.69,2.25-1.11,2.25-3.67V41.78c0-2.25-1.25-3.53-3.43-3.53a8.2,8.2,0,0,0-3.77,1.11V49.44c0,2.56.41,3,2.28,3.67v.69h-8.24v-.69c1.87-.69,2.28-1.11,2.28-3.67V33.68c0-2.84-.31-3.12-2.63-3.95v-.66a22.05,22.05,0,0,0,6.1-1.39h.21V38.25c1.11-.94,3.74-2.53,5.71-2.53,2.53,0,5.06,1.56,5.06,6v7.69c0,2.56.42,3,2.29,3.67v.69Zm10.05,0v-.69c1.87-.66,2.29-1.07,2.29-3.67V41.82c0-2.88-.49-3.19-2.67-4v-.69a22.24,22.24,0,0,0,6.24-1.42V49.44c0,2.6.38,3,2.25,3.67v.69Zm1.8-23.31a2.22,2.22,0,1,1,2.22,2.25A2.19,2.19,0,0,1,223.55,30.49Zm6.92,31.11v-.73c1.87-.66,2.29-1,2.29-3.67V41.82c0-2.84-.31-3.16-2.63-4v-.69a21.13,21.13,0,0,0,6.27-1.42v2.36a9.34,9.34,0,0,1,5.54-2.36c4,0,7.2,3.36,7.2,8.35,0,6.93-6.16,10.15-10.32,10.15a10.4,10.4,0,0,1-2.39-.31V57.2c0,2.63.42,3,2.63,3.67v.73Zm6-10.15a5.44,5.44,0,0,0,2.81.83c3.08,0,6-2.39,6-7.28,0-4.29-2.42-6.79-5.37-6.79a7.55,7.55,0,0,0-3.43,1ZM141,92.24l-3.53-10.7c-1.73-5.3-2.32-5.75-3.47-6.24v-.73h7.73v.73c-1.11.35-1.59.66-1.59,1.66a22.47,22.47,0,0,0,1.1,4.75l2.39,8,2.12-6.86a29.43,29.43,0,0,0,1.49-5.72c0-1.11-.56-1.52-1.8-1.87v-.73h7v.73c-1.56.62-2.22,1.52-3.81,6.06l-3.81,10.88Zm13.09,0v-.69c1.88-.66,2.29-1.08,2.29-3.68V80.25c0-2.87-.48-3.18-2.67-4v-.69A22.24,22.24,0,0,0,160,74.16V87.87c0,2.6.38,3,2.25,3.68v.69Zm1.81-23.31a2.22,2.22,0,1,1,2.21,2.25A2.18,2.18,0,0,1,155.93,68.93Zm23.55,22.51a11.09,11.09,0,0,1-3.81,1.08,2.26,2.26,0,0,1-2.39-2.08,9.18,9.18,0,0,1-5.23,2.22,4.28,4.28,0,0,1-4.43-4.3c0-3.12,1.9-5.72,9.63-6.34V80c0-2.63-1.63-3.81-4.12-3.81a8.82,8.82,0,0,0-2.67.38v.14a1.84,1.84,0,0,1,1.32,1.77A1.73,1.73,0,0,1,166,80.32a1.81,1.81,0,0,1-1.87-1.87c0-2.28,3.91-4.29,7.13-4.29,4.27,0,5.55,2.28,5.55,6.41v7.34c0,2.53.9,2.74,2.66,2.91Zm-6.23-7.58a8.48,8.48,0,0,0-1.28-.14c-2.84,0-4.68,1.24-4.68,3.67a2.8,2.8,0,0,0,3.05,2.77,7,7,0,0,0,2.91-.62Zm32.59-8.32c0-5.09-.58-5.71-2.7-6.51v-.69H211V69c-2.12.8-2.71,1.35-2.71,6.51V85.66c0,4.64-4.29,7.1-9.59,7.1-5.09,0-9-2.29-9-7.1V72.94c0-2.63-.49-3.22-2.71-3.91v-.69h9.29V69c-2.18.69-2.67,1.28-2.67,3.91V85.87c0,2.59,1.8,4.53,5.68,4.53s6.51-1.62,6.51-5ZM213,92.24v-.69c2.22-.66,2.67-1.18,2.67-3.81V72.84c0-2.6-.45-3.12-2.67-3.78v-.72h10.33c5.12,0,7.76,2.15,7.76,6.44,0,4.88-3.5,7.24-8.07,7.24h-3.43v5.72c0,2.59.62,3.15,3.18,3.81v.69Zm8.21-12c4.61,0,6-2.35,6-5.4,0-2.39-1.14-4.75-4.5-4.75h-3.08V80.25ZM233.38,86h1c1.83,3.64,3.63,4.88,5.88,4.88a3.68,3.68,0,0,0,3.88-3.57c0-5.36-10.53-6.23-10.53-13,0-3.87,3.71-6.51,7.49-6.51a16,16,0,0,1,5.75,1.42v4.37h-1c-1.66-3-3-3.92-5.2-3.92a3.31,3.31,0,0,0-3.53,3.16c0,5.09,10.71,5.85,10.71,12.85,0,4.19-3.5,7-7.9,7a14.75,14.75,0,0,1-6.24-1.46Z"/></svg>