<?xml version="1.0" encoding="utf-8"?>
<!-- Generator: Adobe Illustrator 22.0.1, SVG Export Plug-In . SVG Version: 6.00 Build 0)  -->
<svg version="1.1" id="Layer_1" xmlns="http://www.w3.org/2000/svg" xmlns:xlink="http://www.w3.org/1999/xlink" x="0px" y="0px"
	 viewBox="0 0 314.8 170" style="enable-background:new 0 0 314.8 170;" xml:space="preserve">
<style type="text/css">
	.st0{fill:#FFFFFF;}
	.st1{fill:#D0D0D0;}
	.st2{fill:#B2B2B2;}
	.st3{fill:#FDC300;}
</style>
<path class="st0" d="M57.6,26.1c-27,0-49,22-49,49c0,27,22,49,49,49h204.1c27,0,49-22,49-49c0-27-22-49-49-49H57.6z"/>
<path class="st1" d="M261.6,128.2H57.6c-29.3,0-53.1-23.8-53.1-53.1s23.8-53.1,53.1-53.1h204.1c29.3,0,53.1,23.8,53.1,53.1
	S290.9,128.2,261.6,128.2 M57.6,26.1c-27,0-49,22-49,49c0,27,22,49,49,49h204.1c27,0,49-22,49-49c0-27-22-49-49-49H57.6z"/>
<path d="M237.2,45.3c-7.9,0-14.3,6.4-14.3,14.4c0,7.9,6.4,14.3,14.3,14.3c7.9,0,14.3-6.4,14.3-14.3
	C251.5,51.8,245.1,45.3,237.2,45.3 M237.2,67c-4.1,0-7.4-3.3-7.4-7.4c0-4.1,3.3-7.4,7.4-7.4c4.1,0,7.4,3.3,7.4,7.4
	C244.5,63.7,241.2,67,237.2,67"/>
<path d="M171.4,45.3c-7.9,0-14.3,6.4-14.3,14.4c0,7.9,6.4,14.3,14.3,14.3c7.9,0,14.4-6.4,14.4-14.3
	C185.7,51.8,179.3,45.3,171.4,45.3 M171.4,67c-4.1,0-7.4-3.3-7.4-7.4c0-4.1,3.3-7.4,7.4-7.4c4.1,0,7.4,3.3,7.4,7.4
	C178.7,63.7,175.4,67,171.4,67"/>
<path d="M221.9,67.4c-0.9,0.3-2.3,0.5-2.8,0.5c-2.5,0-3-0.8-3-3.2V51.5h5.9V46h-5.9v-7.8h-6.6l-1.4,7.8h-4.6v0h-0.4
	c-3.8,0-6.6,2.3-8.4,5.9l-2.3-5.9h-4.7v27.5h8.1v-12c0-6,3.6-9.9,7.8-10h4.4v13.7c0,6.4,3.3,8.8,8.7,8.8c2.8,0,4.9-0.6,6.2-1
	L221.9,67.4z"/>
<polyline points="261.3,54.7 261.3,73.5 253.5,73.5 253.5,46 258.2,46 259.8,50.2 "/>
<path d="M259.8,50.2c2.4-2.8,5.7-4.9,9.5-4.9c6.6,0,9.2,5.2,9.2,10.1v18.1h-8.1V55.6c0-2.4-2-3.6-4.1-3.6c-2.3,0-3.7,1.3-5,2.7"/>
<polygon points="125.5,36 134.5,36 146.9,59.6 146.9,36 154.3,36 154.3,73.5 146.2,73.5 132.9,47.6 132.9,73.5 125.5,73.5 "/>
<polygon class="st2" points="302.4,21.9 302.4,23.3 300.5,23.3 300.5,29.9 298.9,29.9 298.9,23.3 297,23.3 297,21.9 "/>
<polygon class="st2" points="303.5,29.9 303.5,21.9 305.6,21.9 307,27.1 308.4,21.9 310.5,21.9 310.5,29.9 309.2,29.9 309.2,23.7 
	309.2,23.7 307.6,29.9 306.4,29.9 304.8,23.7 304.8,23.7 304.8,29.9 "/>
<path class="st2" d="M123.2,106.7l1.9-2.9c1.5,1.1,3.8,2.2,6.6,2.2c2.7,0,4.4-1.2,4.4-3.4c0-2.4-2.1-3.1-5.6-4.3
	c-3.1-1.1-6.2-2.7-6.2-7.1c0-4.1,3.3-6.4,7.6-6.4c2.9,0,5.1,0.6,6.8,1.6l-1.5,3.1c-1.4-0.8-3.2-1.3-5.2-1.3c-2.4,0-3.9,0.9-3.9,2.9
	c0,2.3,1.7,2.8,4.9,3.9c3.3,1.1,7,2.6,7,7.5c0,4.1-2.9,6.8-8.2,6.8C127.8,109.4,124.9,108.1,123.2,106.7"/>
<polygon class="st2" points="147.1,85.3 161.2,85.3 161.2,88.6 151.1,88.6 151.1,95.1 159.1,95.1 159.1,98.3 151.1,98.3 
	151.1,105.8 161.9,105.8 161.9,109.1 147.1,109.1 "/>
<path class="st2" d="M167.6,97.2c0-7,3.3-12.3,10-12.3c3,0,5.3,0.9,7,2.9l-2.4,2.7c-1.4-1.4-2.6-2.1-4.6-2.1c-3.9,0-5.7,3.2-5.7,9.1
	c0,5.5,1.9,8.3,5.7,8.3c2.1,0,3.6-1.1,4.9-2.5l2.4,2.6c-1.7,2-3.9,3.4-7.3,3.4C170.8,109.4,167.6,104.2,167.6,97.2"/>
<path class="st2" d="M191.6,100V85.3h4.1v15.4c0,3.3,0.8,5.4,4.3,5.4c3.4,0,4.3-2.1,4.3-5.4V85.3h4.1V100c0,5.9-2.3,9.4-8.4,9.4
	C193.9,109.4,191.6,105.9,191.6,100"/>
<path class="st2" d="M233.2,109.1h-4.4L224.2,99h-3.8v10.1h-4V85.3h7.8c4.8,0,8.6,1.7,8.6,6.9c0,3.6-2.1,5.4-4.5,6.2L233.2,109.1z
	 M224,95.9c3,0,4.6-1,4.6-3.7c0-2.6-1.6-3.6-4.3-3.6h-3.8v7.3H224z"/>
<polygon class="st2" points="240.1,85.3 254.2,85.3 254.2,88.6 244.1,88.6 244.1,95.1 252.1,95.1 252.1,98.3 244.1,98.3 
	244.1,105.8 254.8,105.8 254.8,109.1 240.1,109.1 "/>
<path class="st2" d="M261.7,85.3h5.9c7.8,0,11.5,4.2,11.5,11.8c0,7.8-3.8,12-11.3,12h-6.2V85.3z M267.4,105.8c5.6,0,7.5-2.6,7.5-8.7
	c0-5.4-1.5-8.5-7-8.5h-2.2v17.2H267.4z"/>
<path class="st3" d="M57.3,132.4C25.7,132.4,0,106.7,0,75.1c0-31.6,25.7-57.3,57.3-57.3c31.6,0,57.3,25.7,57.3,57.3
	C114.6,106.7,88.9,132.4,57.3,132.4 M57.3,35.9c-10.5,0-20.3,4.1-27.7,11.5c-7.4,7.4-11.5,17.2-11.5,27.7c0,10.5,4.1,20.3,11.5,27.7
	c7.4,7.4,17.2,11.5,27.7,11.5c10.5,0,20.3-4.1,27.7-11.5c7.4-7.4,11.5-17.2,11.5-27.7c0-10.5-4.1-20.3-11.5-27.7
	C77.6,39.9,67.8,35.9,57.3,35.9"/>
<rect x="119.8" y="8.9" class="st3" width="4.5" height="4.5"/>
<rect x="119.8" class="st3" width="4.5" height="4.5"/>
<rect x="107.2" y="13.3" class="st3" width="4.2" height="4.4"/>
<rect x="98.9" y="21.9" width="4.2" height="4.2"/>
<rect x="111.4" y="17.7" width="4.7" height="4.2"/>
<rect x="94.7" y="17.9" width="4.2" height="4"/>
<rect x="107.2" y="21.9" width="4.2" height="4.2"/>
<rect x="115.4" y="4.5" width="4.4" height="4.4"/>
<rect x="107.2" y="8.9" width="8.2" height="4.4"/>
<rect x="103.1" y="13.3" width="4.1" height="8.6"/>
<path d="M103.1,26.1v4.2h-4.2v-4.2h-7v3h-3.7v3.7h4.2V37h-4.2v-4.2h-4.4v6.5h-4.2v4.2h-2.8v4.2h-3.1C70.3,52.9,61.6,68.8,59,75.3
	c-9.4-13.1-16.7-18.3-22.5-20.2c-3.1-0.9-6.8,2.4-1.7,7.8C46.7,76,50.4,86.7,54,95.3c1.9,4.5,10.4,5.2,12.1,0.6
	c3.6-9.8,8.9-20.7,15.2-29.7v-4.7h3.3v-4.2h3.5v-4.9h4.2v-4.7h-4.2v-4.3h4.2v4.3h4.1l0-4.2h3.3v-5.1h3.7V35h3.6v-8.9H103.1z"/>
<path class="st0" d="M22.3,152h3.1v2.3c1-1.4,2.4-2.6,4.6-2.6c3.2,0,6.4,2.6,6.4,7.1v0.1c0,4.5-3.1,7.1-6.4,7.1
	c-2.3,0-3.7-1.1-4.6-2.4v6.3h-3.1V152z M33.2,158.9L33.2,158.9c0-2.7-1.8-4.4-3.9-4.4s-4,1.8-4,4.4v0.1c0,2.6,1.9,4.4,4,4.4
	C31.5,163.3,33.2,161.6,33.2,158.9"/>
<path class="st0" d="M39,159L39,159c0-4,3.1-7.2,7.3-7.2s7.3,3.2,7.3,7.1v0.1c0,3.9-3.1,7.1-7.3,7.1C42.1,166,39,162.9,39,159
	 M50.4,159L50.4,159c0-2.5-1.7-4.5-4.2-4.5c-2.5,0-4.1,2-4.1,4.4v0.1c0,2.4,1.7,4.4,4.2,4.4C48.8,163.3,50.4,161.3,50.4,159"/>
<polygon class="st0" points="55.1,152 58.3,152 61.1,161.4 64.1,152 66.8,152 69.8,161.4 72.6,152 75.8,152 71.3,165.8 68.5,165.8 
	65.4,156.5 62.3,165.8 59.5,165.8 "/>
<path class="st0" d="M77.4,158.9L77.4,158.9c0-4,2.8-7.2,6.7-7.2c4.4,0,6.6,3.4,6.6,7.4c0,0.3,0,0.6-0.1,0.9H80.5
	c0.3,2.2,1.9,3.5,3.9,3.5c1.5,0,2.6-0.6,3.7-1.6l1.8,1.6c-1.3,1.6-3.1,2.6-5.6,2.6C80.4,166,77.4,163.2,77.4,158.9 M87.5,157.9
	c-0.2-2-1.4-3.6-3.5-3.6c-1.9,0-3.3,1.5-3.6,3.6H87.5z"/>
<path class="st0" d="M93.9,152H97v3.1c0.9-2,2.4-3.4,4.8-3.3v3.3h-0.2c-2.8,0-4.7,1.8-4.7,5.4v5.2h-3.1V152z"/>
<path class="st0" d="M103.7,158.9L103.7,158.9c0-4,2.8-7.2,6.7-7.2c4.4,0,6.6,3.4,6.6,7.4c0,0.3,0,0.6-0.1,0.9h-10.1
	c0.3,2.2,1.9,3.5,3.9,3.5c1.5,0,2.6-0.6,3.7-1.6l1.8,1.6c-1.3,1.6-3.1,2.6-5.6,2.6C106.8,166,103.7,163.2,103.7,158.9 M113.9,157.9
	c-0.2-2-1.4-3.6-3.5-3.6c-1.9,0-3.3,1.5-3.6,3.6H113.9z"/>
<path class="st0" d="M119.5,158.9L119.5,158.9c0-4.6,3.1-7.2,6.4-7.2c2.3,0,3.7,1.1,4.7,2.4v-7.4h3.1v18.9h-3.1v-2.3
	c-1,1.4-2.4,2.6-4.7,2.6C122.7,166,119.5,163.5,119.5,158.9 M130.6,158.9L130.6,158.9c0-2.7-1.9-4.4-4-4.4c-2.2,0-3.9,1.7-3.9,4.4
	v0.1c0,2.6,1.8,4.4,3.9,4.4C128.7,163.3,130.6,161.5,130.6,158.9"/>
<path class="st0" d="M148.5,163.6v2.1h-3.1v-18.9h3.1v7.5c1-1.4,2.4-2.6,4.6-2.6c3.2,0,6.4,2.6,6.4,7.1v0.1c0,4.5-3.1,7.1-6.4,7.1
	C150.9,166,149.5,164.9,148.5,163.6 M156.3,158.9L156.3,158.9c0-2.7-1.8-4.4-3.9-4.4c-2.1,0-4,1.8-4,4.4v0.1c0,2.6,1.9,4.4,4,4.4
	C154.6,163.3,156.3,161.6,156.3,158.9"/>
<path class="st0" d="M161.7,169.1l1.1-2.3c0.6,0.3,1.2,0.5,1.8,0.5c0.9,0,1.4-0.4,1.9-1.6l-5.7-13.7h3.3l3.9,10.2l3.6-10.2h3.3
	l-5.4,14.1c-1.1,2.8-2.3,3.8-4.5,3.8C163.6,170,162.6,169.7,161.7,169.1"/>
<polygon class="st0" points="184.2,147.6 187.7,147.6 193.2,161.5 198.6,147.6 202,147.6 194.5,165.9 191.7,165.9 "/>
<path class="st0" d="M202.7,158.9L202.7,158.9c0-4,2.8-7.2,6.7-7.2c4.4,0,6.6,3.4,6.6,7.4c0,0.3,0,0.6-0.1,0.9h-10.1
	c0.3,2.2,1.9,3.5,3.9,3.5c1.5,0,2.6-0.6,3.7-1.6l1.8,1.6c-1.3,1.6-3.1,2.6-5.6,2.6C205.8,166,202.7,163.2,202.7,158.9 M212.8,157.9
	c-0.2-2-1.4-3.6-3.5-3.6c-1.9,0-3.3,1.5-3.6,3.6H212.8z"/>
<path class="st0" d="M219.2,152h3.1v3.1c0.9-2,2.4-3.4,4.9-3.3v3.3H227c-2.8,0-4.7,1.8-4.7,5.4v5.2h-3.1V152z"/>
<path class="st0" d="M229.8,147h3.4v3h-3.4V147z M229.9,152h3.1v13.7h-3.1V152z"/>
<path class="st0" d="M236.3,163.1l1.9-2.3c1.7,1.5,3.5,2.4,5.7,2.4c2,0,3.2-0.9,3.2-2.3v-0.1c0-1.3-0.7-2-4.1-2.8
	c-3.9-0.9-6-2.1-6-5.4v-0.1c0-3.1,2.6-5.3,6.2-5.3c2.6,0,4.7,0.8,6.6,2.3l-1.7,2.4c-1.6-1.2-3.3-1.9-4.9-1.9c-1.9,0-3,1-3,2.2v0.1
	c0,1.4,0.8,2,4.3,2.9c3.8,0.9,5.8,2.3,5.8,5.3v0c0,3.4-2.7,5.4-6.5,5.4C241.1,166,238.5,165,236.3,163.1"/>
<path class="st0" d="M253.8,147h3.4v3h-3.4V147z M253.9,152h3.1v13.7h-3.1V152z"/>
<path class="st0" d="M261,168.3l1.2-2.4c1.5,0.9,3,1.4,4.9,1.4c2.8,0,4.3-1.4,4.3-4.2v-1.1c-1.1,1.5-2.6,2.5-4.8,2.5
	c-3.2,0-6.2-2.4-6.2-6.4v-0.1c0-4,3-6.4,6.2-6.4c2.3,0,3.7,1.1,4.8,2.3v-2h3.1v10.9c0,2.3-0.6,4-1.7,5.2c-1.2,1.2-3.2,1.8-5.6,1.8
	C264.9,169.9,262.8,169.4,261,168.3 M271.4,158.2L271.4,158.2c0-2.3-1.8-3.8-4-3.8c-2.2,0-3.9,1.5-3.9,3.8v0.1
	c0,2.3,1.7,3.8,3.9,3.8C269.6,162,271.4,160.4,271.4,158.2"/>
<path class="st0" d="M278.6,152h3.1v2.1c0.9-1.3,2.2-2.4,4.3-2.4c3.1,0,4.9,2.1,4.9,5.3v8.7h-3.1V158c0-2.1-1.1-3.3-2.9-3.3
	c-1.8,0-3.1,1.3-3.1,3.4v7.7h-3.1V152z"/>
</svg>
