<?xml version="1.0" encoding="utf-8"?>
<!-- Generator: Adobe Illustrator 22.0.1, SVG Export Plug-In . SVG Version: 6.00 Build 0)  -->
<svg version="1.1" id="Layer_1" xmlns="http://www.w3.org/2000/svg" xmlns:xlink="http://www.w3.org/1999/xlink" x="0px" y="0px"
	 viewBox="0 0 125.4 78.4" style="enable-background:new 0 0 125.4 78.4;" xml:space="preserve">
<style type="text/css">
	.st0{fill:#FAFAFA;}
	.st1{fill:#283B82;}
	.st2{fill:#469BDB;}
</style>
<path class="st0" d="M125.4,74.2c0,2.3-1.9,4.2-4.2,4.2H4.2c-2.3,0-4.2-1.9-4.2-4.2v-70C0,1.9,1.9,0,4.2,0h117.1
	c2.3,0,4.2,1.9,4.2,4.2L125.4,74.2L125.4,74.2z"/>
<g id="g10" transform="matrix(1.25,0,0,-1.25,0,140.375)">
	<g id="g12" transform="scale(0.1,0.1)">
		<path id="path14" class="st1" d="M159.2,918.7H89.5c-4.8,0-8.8-3.5-9.6-8.2L51.7,731.8c-0.6-3.5,2.2-6.7,5.7-6.7h33.3
			c4.8,0,8.8,3.5,9.6,8.2l7.6,48.2c0.7,4.7,4.8,8.2,9.6,8.2h22.1c45.9,0,72.4,22.2,79.3,66.2c3.1,19.3,0.1,34.4-8.9,45
			C200.1,912.6,182.5,918.7,159.2,918.7L159.2,918.7z M167.2,853.4c-3.8-25-22.9-25-41.4-25h-10.5l7.4,46.7c0.4,2.8,2.9,4.9,5.7,4.9
			h4.8c12.6,0,24.5,0,30.6-7.2C167.5,868.6,168.6,862.2,167.2,853.4"/>
		<path id="path16" class="st1" d="M367.5,854.2h-33.4c-2.8,0-5.3-2.1-5.7-4.9l-1.5-9.3l-2.3,3.4c-7.2,10.5-23.3,14-39.4,14
			c-36.9,0-68.4-27.9-74.5-67.1c-3.2-19.5,1.3-38.2,12.4-51.3c10.2-12,24.7-17,42-17c29.7,0,46.2,19.1,46.2,19.1l-1.5-9.3
			c-0.6-3.5,2.2-6.7,5.7-6.7h30.1c4.8,0,8.8,3.5,9.6,8.2l18,114.2C373.8,851,371.1,854.2,367.5,854.2z M321,789.3
			c-3.2-19.1-18.4-31.9-37.7-31.9c-9.7,0-17.4,3.1-22.4,9c-4.9,5.8-6.8,14.2-5.2,23.4c3,18.9,18.4,32.1,37.4,32.1
			c9.5,0,17.2-3.1,22.3-9.1C320.4,806.9,322.4,798.5,321,789.3"/>
		<path id="path18" class="st1" d="M545.3,854.2h-33.5c-3.2,0-6.2-1.6-8-4.3l-46.3-68.1l-19.6,65.5c-1.2,4.1-5,6.9-9.3,6.9h-33
			c-4,0-6.8-3.9-5.5-7.7L427,738.1l-34.7-49c-2.7-3.9,0-9.2,4.7-9.2h33.5c3.2,0,6.2,1.5,8,4.2l111.5,161
			C552.7,849,550,854.2,545.3,854.2"/>
		<path id="path20" class="st2" d="M656.3,918.7h-69.7c-4.8,0-8.8-3.5-9.6-8.2l-28.2-178.7c-0.6-3.5,2.2-6.7,5.7-6.7h35.8
			c3.3,0,6.2,2.4,6.7,5.7l8,50.7c0.7,4.7,4.8,8.2,9.6,8.2h22.1c45.9,0,72.4,22.2,79.3,66.2c3.1,19.3,0.1,34.4-8.9,45
			C697.2,912.6,679.6,918.7,656.3,918.7L656.3,918.7z M664.3,853.4c-3.8-25-22.9-25-41.4-25h-10.5l7.4,46.7c0.4,2.8,2.9,4.9,5.7,4.9
			h4.8c12.6,0,24.5,0,30.6-7.2C664.6,868.6,665.7,862.2,664.3,853.4"/>
		<path id="path22" class="st2" d="M864.6,854.2h-33.4c-2.9,0-5.3-2.1-5.7-4.9l-1.5-9.3l-2.3,3.4c-7.2,10.5-23.3,14-39.4,14
			c-36.9,0-68.4-27.9-74.5-67.1c-3.2-19.5,1.3-38.2,12.4-51.3c10.2-12,24.7-17,42-17c29.7,0,46.2,19.1,46.2,19.1l-1.5-9.3
			c-0.6-3.5,2.2-6.7,5.7-6.7h30.1c4.8,0,8.8,3.5,9.6,8.2l18,114.2C870.9,851,868.2,854.2,864.6,854.2L864.6,854.2z M818.1,789.3
			c-3.2-19.1-18.4-31.9-37.7-31.9c-9.7,0-17.4,3.1-22.4,9c-4.9,5.8-6.8,14.2-5.2,23.4c3,18.9,18.4,32.1,37.4,32.1
			c9.5,0,17.2-3.1,22.3-9.1C817.6,806.9,819.6,798.5,818.1,789.3"/>
		<path id="path24" class="st2" d="M904,913.8l-28.6-182c-0.6-3.5,2.2-6.7,5.7-6.7h28.8c4.8,0,8.8,3.5,9.6,8.2L947.6,912
			c0.6,3.5-2.2,6.7-5.7,6.7h-32.2C906.9,918.7,904.4,916.6,904,913.8"/>
	</g>
</g>
</svg>
