<svg id="Layer_1" data-name="Layer 1" xmlns="http://www.w3.org/2000/svg" viewBox="0 0 772.74 112"><defs><style>.cls-1{fill:none;}.cls-2{fill:#fff;}</style></defs><title>Parcel Compare Logo_White</title><path class="cls-1" d="M394.35,47.36a10.7,10.7,0,1,0,10.76,10.7A10.73,10.73,0,0,0,394.35,47.36Z"/><path class="cls-1" d="M559.74,46.11a11.25,11.25,0,0,0-10.71,9V61a11.24,11.24,0,0,0,10.71,9c6.1,0,11-5.35,11-12S565.84,46.11,559.74,46.11Z"/><path class="cls-1" d="M105,54.72A11.41,11.41,0,0,0,94.14,46c-6.23,0-11.28,5.35-11.28,12s5,12,11.28,12A11.42,11.42,0,0,0,105,61.27a12.69,12.69,0,0,0,0-6.55Z"/><path class="cls-1" d="M625.13,46c-6.23,0-11.28,5.35-11.28,12s5,12,11.28,12A11.41,11.41,0,0,0,636,61.23V54.76A11.41,11.41,0,0,0,625.13,46Z"/><path class="cls-1" d="M259.34,44c-5.69,0-10.3,3.56-10.3,7.94h20.61C269.65,47.55,265,44,259.34,44Z"/><path class="cls-1" d="M34.2,27H24V41.1H34.2A6.58,6.58,0,0,0,40.61,34C40.61,27.54,35,27,34.2,27Z"/><path class="cls-2" d="M685,40.12V28H663V88h22V61.62s2.13-11.85,18.06-11.85V27S690.17,25.18,685,40.12Z"/><path class="cls-2" d="M636,33.45a24.39,24.39,0,0,0-17-7.13c-13.67,0-25,12-26.68,27.64-1.69-15.63-13-27.71-26.64-27.71A24.22,24.22,0,0,0,549,33.12V28H527v84h22V83a24.22,24.22,0,0,0,16.67,6.87c13.64,0,24.91-12,26.63-27.64C594,77.87,605.33,90,619,90a24.39,24.39,0,0,0,17-7.13V88h22V28H636ZM559.74,70A11.24,11.24,0,0,1,549,61v-5.9a11.25,11.25,0,0,1,10.71-9c6.1,0,11,5.35,11,12S565.84,70,559.74,70ZM625.13,70c-6.23,0-11.28-5.35-11.28-12s5-12,11.28-12A11.41,11.41,0,0,1,636,54.76v6.47A11.41,11.41,0,0,1,625.13,70Z"/><path class="cls-2" d="M394.35,26.17a32.14,32.14,0,0,0-26,13.23c-.45.62-.88,1.25-1.28,1.9q-.42.64-.78,1.32a31.73,31.73,0,0,0,0,30.88q.36.68.78,1.32c.4.65.83,1.28,1.28,1.9a32,32,0,1,0,26-50.55Zm0,42.58a10.7,10.7,0,1,1,10.76-10.69A10.73,10.73,0,0,1,394.35,68.75Z"/><path class="cls-2" d="M347.45,63.43a10.7,10.7,0,1,1,0-10.74l1-.58L365.87,42a32.24,32.24,0,0,0-51.94-4.85,31.73,31.73,0,0,0,0,41.88,32.24,32.24,0,0,0,51.94-4.85L348.45,64Z"/><path class="cls-2" d="M302.61,58.06a35.06,35.06,0,0,1,11.32-25.83V0h-22V88h22v-4.1A35,35,0,0,1,302.61,58.06Z"/><path class="cls-2" d="M258.93,26.17a31.87,31.87,0,0,0-26.7,14.44,30.23,30.23,0,0,0-1.58,2.7,31.94,31.94,0,0,0,0,29.5,30.23,30.23,0,0,0,1.58,2.7A31.87,31.87,0,0,0,258.93,90c19.76,0,27.35-9.73,27.35-9.73L272.57,68c-15.64,11.51-23.39-2.51-23.39-2.51H290v-9.4C290,38.45,276.54,26.17,258.93,26.17ZM249,51.93c0-4.38,4.61-7.94,10.3-7.94s10.31,3.56,10.31,7.94Z"/><path class="cls-2" d="M732.27,26.17a31.87,31.87,0,0,0-26.7,14.44,30.23,30.23,0,0,0-1.58,2.7,31.94,31.94,0,0,0,0,29.5,30.23,30.23,0,0,0,1.58,2.7A31.87,31.87,0,0,0,732.27,90c19.76,0,27.35-9.73,27.35-9.73L745.91,68c-15.64,11.51-23.39-2.51-23.39-2.51H763.3v-9.4C763.3,38.45,749.88,26.17,732.27,26.17Zm-9.89,25.76c0-4.38,4.61-7.94,10.3-7.94S743,47.55,743,51.93Z"/><path class="cls-2" d="M202.17,68.75a10.7,10.7,0,1,1,9.31-16.07L229.9,42a32.21,32.21,0,0,0-57.85,5V27S159.11,25.18,154,40.12V28H132V88h22V61.62S156,50.21,171.16,49.78a31.9,31.9,0,0,0,31,40.17,32.15,32.15,0,0,0,27.73-15.8L211.48,63.44A10.77,10.77,0,0,1,202.17,68.75Z"/><path class="cls-2" d="M105,33.45a24.39,24.39,0,0,0-17-7.13c-14.87,0-26.92,14.25-26.92,31.82S73.16,90,88,90a24.39,24.39,0,0,0,17-7.13V88h22V28H105ZM94.14,70c-6.23,0-11.28-5.35-11.28-12s5-12,11.28-12A11.41,11.41,0,0,1,105,54.72a12.69,12.69,0,0,1,0,6.55A11.42,11.42,0,0,1,94.14,70Z"/><path class="cls-2" d="M64,30.64C61.32,5.42,37.8,4.05,34.76,4.05H0V88H24V64.11H34.76C45.05,64.11,66.58,55.87,64,30.64ZM34.2,41.1H24V27H34.2c.78,0,6.41.58,6.41,7.07A6.58,6.58,0,0,1,34.2,41.1Z"/><path class="cls-2" d="M501.76,26.25c-14.42,0-19.06,7.92-19.06,7.92-13.74-15.34-28-4.32-31.7-.91V28H429V88h22.14V53.51A5.88,5.88,0,0,1,457,47.63h1.12A5.89,5.89,0,0,1,464,53.51V88h22.33V53.51a5.89,5.89,0,0,1,5.88-5.88h1.53a5.89,5.89,0,0,1,5.87,5.88V88h21.78V47C521.39,40.23,516.17,26.25,501.76,26.25Z"/><path class="cls-2" d="M764.33,27.92a8.42,8.42,0,1,1,8.41-8.41A8.43,8.43,0,0,1,764.33,27.92Zm0-15.83a7.42,7.42,0,1,0,7.41,7.42A7.43,7.43,0,0,0,764.33,12.09Z"/><path class="cls-2" d="M761.84,23.94h-1.2V15.07h4.11c1.46,0,2.91.5,2.91,2.38a2.18,2.18,0,0,1-1.23,2.13c.51.21,1,.43,1.06,1.67l.08,1.61c0,.49.07.68.44.89v.19h-1.47a11.05,11.05,0,0,1-.21-2.22c0-.73-.15-1.58-1.58-1.58h-2.91Zm0-4.83h2.78c.88,0,1.81-.22,1.81-1.53s-1-1.49-1.6-1.49h-3Z"/></svg>